<svg width="402" height="1098" viewBox="0 0 402 1098" fill="none" xmlns="http://www.w3.org/2000/svg">
<g clip-path="url(#clip0_486_1558)">
<rect width="402" height="1098" fill="#F6F6F6"/>
<path d="M58.3267 26.1594C58.9686 26.1594 59.5773 26.2784 60.1528 26.5164C60.7284 26.7488 61.2375 27.114 61.6802 27.6121C62.1284 28.1046 62.4798 28.7382 62.7344 29.5129C62.9889 30.2821 63.1162 31.2091 63.1162 32.2937V32.3103C63.1162 33.655 62.9225 34.8061 62.5352 35.7634C62.1478 36.7208 61.5916 37.4568 60.8667 37.9714C60.1473 38.4806 59.2868 38.7351 58.2852 38.7351C57.5492 38.7351 56.8851 38.6023 56.293 38.3367C55.7064 38.0655 55.2194 37.6947 54.832 37.2244C54.4502 36.7485 54.1929 36.2061 54.0601 35.5974L54.0435 35.5061H56.1436L56.1768 35.5891C56.2819 35.8658 56.4313 36.1093 56.625 36.3196C56.8242 36.5299 57.0622 36.6931 57.3389 36.8093C57.6211 36.92 57.9365 36.9753 58.2852 36.9753C58.916 36.9753 59.4307 36.79 59.8291 36.4192C60.2331 36.0429 60.5347 35.5421 60.7339 34.9167C60.9386 34.2859 61.0549 33.5886 61.0825 32.825C61.0881 32.7419 61.0908 32.6617 61.0908 32.5842C61.0908 32.5012 61.0908 32.421 61.0908 32.3435L60.7173 30.343C60.7173 29.8892 60.6121 29.477 60.4019 29.1062C60.1916 28.7354 59.9066 28.4421 59.5469 28.2263C59.1927 28.0105 58.7915 27.9026 58.3433 27.9026C57.9116 27.9026 57.516 28.0077 57.1562 28.218C56.7965 28.4283 56.5088 28.7161 56.293 29.0813C56.0771 29.441 55.9692 29.845 55.9692 30.2932V30.3098C55.9692 30.7747 56.0716 31.1869 56.2764 31.5466C56.4811 31.9008 56.7606 32.1803 57.1147 32.385C57.4689 32.5898 57.8729 32.6921 58.3267 32.6921C58.7804 32.6921 59.1872 32.5925 59.5469 32.3933C59.9066 32.1941 60.1916 31.9174 60.4019 31.5632C60.6121 31.2091 60.7173 30.8079 60.7173 30.3596V30.343H61.2153V32.551H60.9248C60.7809 32.8665 60.5679 33.1597 60.2856 33.4309C60.0034 33.7021 59.6548 33.9207 59.2397 34.0867C58.8302 34.2527 58.3488 34.3357 57.7954 34.3357C57.0317 34.3357 56.3566 34.1641 55.77 33.821C55.1834 33.4779 54.7214 33.0076 54.3838 32.4099C54.0518 31.8123 53.8857 31.1371 53.8857 30.3845V30.3679C53.8857 29.5544 54.0739 28.8323 54.4502 28.2014C54.832 27.565 55.3577 27.067 56.0273 26.7073C56.7025 26.342 57.4689 26.1594 58.3267 26.1594ZM66.8848 36.8259C66.5085 36.8259 66.193 36.7014 65.9385 36.4524C65.6895 36.1978 65.5649 35.8879 65.5649 35.5227C65.5649 35.1519 65.6895 34.842 65.9385 34.593C66.193 34.3385 66.5085 34.2112 66.8848 34.2112C67.2666 34.2112 67.582 34.3385 67.8311 34.593C68.0801 34.842 68.2046 35.1519 68.2046 35.5227C68.2046 35.8879 68.0801 36.1978 67.8311 36.4524C67.582 36.7014 67.2666 36.8259 66.8848 36.8259ZM66.8848 30.6667C66.5085 30.6667 66.193 30.5422 65.9385 30.2932C65.6895 30.0387 65.5649 29.7288 65.5649 29.3635C65.5649 28.9928 65.6895 28.6829 65.9385 28.4338C66.193 28.1793 66.5085 28.052 66.8848 28.052C67.2666 28.052 67.582 28.1793 67.8311 28.4338C68.0801 28.6829 68.2046 28.9928 68.2046 29.3635C68.2046 29.7288 68.0801 30.0387 67.8311 30.2932C67.582 30.5422 67.2666 30.6667 66.8848 30.6667ZM76.4639 38.4363V36.137H70.6035V34.3855C70.9189 33.8487 71.2344 33.3092 71.5498 32.7668C71.8708 32.2245 72.1945 31.685 72.521 31.1482C72.853 30.6059 73.1823 30.0719 73.5088 29.5461C73.8408 29.0149 74.1701 28.4919 74.4966 27.9773C74.8286 27.4571 75.1606 26.9508 75.4927 26.4583H78.5059V34.3689H80.1245V36.137H78.5059V38.4363H76.4639ZM72.5957 34.4187H76.4971V28.1682H76.3726C76.1291 28.5445 75.8773 28.9319 75.6172 29.3303C75.3626 29.7288 75.1053 30.1355 74.8452 30.5505C74.5851 30.9656 74.3278 31.3834 74.0732 31.804C73.8187 32.219 73.5669 32.6368 73.3179 33.0574C73.0688 33.4724 72.8281 33.8847 72.5957 34.2942V34.4187ZM85.0801 38.4363V28.5667H84.9307L81.9507 30.6667V28.658L85.0801 26.4583H87.2134V38.4363H85.0801Z" fill="#171717"/>
<path fill-rule="evenodd" clip-rule="evenodd" d="M309.425 27.4692C309.425 26.8362 308.948 26.323 308.358 26.323H307.292C306.703 26.323 306.225 26.8362 306.225 27.4692V37.4032C306.225 38.0362 306.703 38.5494 307.292 38.5494H308.358C308.948 38.5494 309.425 38.0362 309.425 37.4032V27.4692ZM301.991 28.7683H303.058C303.647 28.7683 304.124 29.2938 304.124 29.942V37.3757C304.124 38.0239 303.647 38.5494 303.058 38.5494H301.991C301.402 38.5494 300.924 38.0239 300.924 37.3757V29.942C300.924 29.2938 301.402 28.7683 301.991 28.7683ZM297.659 31.4173H296.593C296.003 31.4173 295.526 31.9495 295.526 32.606V37.3607C295.526 38.0172 296.003 38.5494 296.593 38.5494H297.659C298.248 38.5494 298.726 38.0172 298.726 37.3607V32.606C298.726 31.9495 298.248 31.4173 297.659 31.4173ZM292.358 33.8626H291.292C290.703 33.8626 290.225 34.3872 290.225 35.0343V37.3777C290.225 38.0248 290.703 38.5494 291.292 38.5494H292.358C292.948 38.5494 293.425 38.0248 293.425 37.3777V35.0343C293.425 34.3872 292.948 33.8626 292.358 33.8626Z" fill="#171717"/>
<path fill-rule="evenodd" clip-rule="evenodd" d="M324.997 28.7385C327.484 28.7386 329.876 29.6607 331.678 31.3142C331.814 31.4418 332.031 31.4402 332.165 31.3106L333.462 30.0471C333.53 29.9813 333.568 29.8923 333.567 29.7996C333.566 29.7069 333.528 29.6182 333.459 29.5533C328.728 25.1785 321.264 25.1785 316.533 29.5533C316.465 29.6182 316.426 29.7068 316.425 29.7995C316.425 29.8922 316.462 29.9813 316.53 30.0471L317.828 31.3106C317.961 31.4404 318.179 31.442 318.314 31.3142C320.117 29.6606 322.509 28.7385 324.997 28.7385ZM324.993 32.9588C326.351 32.9587 327.659 33.4704 328.666 34.3946C328.802 34.5257 329.016 34.5229 329.149 34.3882L330.436 33.0688C330.504 32.9996 330.541 32.9058 330.54 32.8082C330.539 32.7107 330.5 32.6176 330.431 32.5498C327.367 29.6589 322.622 29.6589 319.558 32.5498C319.489 32.6176 319.45 32.7107 319.449 32.8083C319.448 32.9059 319.486 32.9997 319.554 33.0688L320.84 34.3882C320.973 34.5229 321.187 34.5257 321.324 34.3946C322.329 33.471 323.637 32.9593 324.993 32.9588ZM327.518 35.7523C327.52 35.8577 327.483 35.9592 327.415 36.0331L325.239 38.4878C325.175 38.5599 325.088 38.6005 324.997 38.6005C324.906 38.6005 324.819 38.5599 324.755 38.4878L322.578 36.0331C322.511 35.9592 322.474 35.8576 322.476 35.7522C322.478 35.6469 322.519 35.5471 322.589 35.4765C323.979 34.1626 326.015 34.1626 327.405 35.4765C327.475 35.5472 327.516 35.647 327.518 35.7523Z" fill="#171717"/>
<rect opacity="0.35" x="341.067" y="26.4363" width="24" height="12" rx="3.8" stroke="#171717"/>
<path opacity="0.4" d="M366.567 30.7173V34.7928C367.372 34.4476 367.895 33.6446 367.895 32.755C367.895 31.8654 367.372 31.0625 366.567 30.7173Z" fill="#171717"/>
<rect x="342.567" y="27.9363" width="21" height="9" rx="2.5" fill="#171717"/>
<path d="M174.498 79.9941V84.2285H166.544V85.416H174.826V87.0098H164.529V82.7285H172.451V81.6035H164.482V79.9941H174.498ZM175.998 88.0723V89.666H170.466V93.8066H168.466V89.666H162.982V88.0723H175.998ZM188.732 79.5723V90.0879H186.732V79.5723H188.732ZM189.107 91.9316V93.5254H179.201V89.1504H181.216V91.9316H189.107ZM184.498 80.6348V82.2285H179.607V83.5723H184.076V85.1035H179.607V86.4629C182.107 86.4629 183.693 86.4316 185.498 86.1348L185.701 87.666C183.669 88.0254 181.873 88.0566 178.826 88.0566H177.607V80.6348H184.498ZM201.888 80.666C201.888 82.3379 203.591 84.1973 206.857 84.6035L206.076 86.2129C203.591 85.8535 201.771 84.7051 200.841 83.166C199.904 84.7051 198.099 85.8535 195.638 86.2129L194.841 84.6035C198.076 84.1973 199.794 82.3379 199.794 80.666V79.9785H201.888V80.666ZM207.31 87.291V88.916H201.779V93.7754H199.81V88.916H194.341V87.291H207.31ZM220.154 79.5566V87.9941H218.169V84.6348H215.951V83.0254H218.169V79.5566H220.154ZM215.294 88.3066C218.326 88.3223 220.185 89.3223 220.201 91.0566C220.185 92.7754 218.326 93.791 215.294 93.791C212.263 93.791 210.404 92.7754 210.404 91.0566C210.404 89.3223 212.263 88.3223 215.294 88.3066ZM215.294 89.8379C213.404 89.8379 212.388 90.2285 212.388 91.0566C212.388 91.8691 213.404 92.2754 215.294 92.2754C217.185 92.2754 218.216 91.8691 218.216 91.0566C218.216 90.2285 217.185 89.8379 215.294 89.8379ZM216.373 80.416V82.0098H213.544C213.591 83.666 214.591 85.3379 216.81 86.0723L215.826 87.6348C214.255 87.127 213.177 86.0957 212.56 84.8066C211.927 86.2598 210.794 87.4316 209.107 88.0098L208.076 86.4316C210.412 85.6504 211.458 83.791 211.513 82.0098H208.654V80.416H216.373Z" fill="black"/>
<path d="M33.7358 396.386V397.63H28.8413V401.335H27.3374V397.63H22.4702V396.386H33.7358ZM32.6831 390.425V391.628H28.8687C29.0122 392.852 30.6187 394.13 33.0933 394.431L32.5327 395.634C30.4888 395.375 28.9028 394.472 28.103 393.283C27.2896 394.486 25.6899 395.375 23.6323 395.634L23.0854 394.431C25.5532 394.13 27.1733 392.873 27.3237 391.628H23.5093V390.425H27.3374V388.976H28.8413V390.425H32.6831ZM44.1746 389.714V390.822C44.1746 391.977 44.1746 393.242 43.8465 394.992H45.5554V396.222H40.6472V401.335H39.116V396.222H34.2898V394.992H42.3015C42.6433 393.31 42.657 392.052 42.657 390.945H35.616V389.714H44.1746ZM55.7891 388.962V393.884H57.6895V395.142H55.7891V401.322H54.2852V388.962H55.7891ZM53.3282 390.863V392.08H46.0411V390.863H48.9669V389.14H50.4844V390.863H53.3282ZM49.7325 392.886C51.5098 392.886 52.836 394.089 52.836 395.798C52.836 397.507 51.5098 398.697 49.7325 398.697C47.9278 398.697 46.6016 397.507 46.6153 395.798C46.6016 394.089 47.9278 392.886 49.7325 392.886ZM49.7325 394.13C48.7618 394.13 48.0645 394.787 48.0645 395.798C48.0645 396.81 48.7618 397.453 49.7325 397.439C50.6758 397.453 51.3731 396.81 51.3868 395.798C51.3731 394.787 50.6758 394.13 49.7325 394.13ZM67.9369 392.462V393.666H59.3783V389.414H60.8822V392.462H67.9369ZM69.2083 395.101V396.304H57.9154V395.101H69.2083ZM68.0189 399.804V401.035H59.2689V397.398H60.7865V399.804H68.0189ZM82.58 388.962V393.105H84.2479V394.363H82.58V398.615H81.0624V388.962H82.58ZM83.0175 399.845V401.076H74.4589V397.972H75.9765V399.845H83.0175ZM72.6815 396.14C73.6044 396.14 74.6776 396.133 75.7987 396.085V395.306C74.4247 395.142 73.5565 394.465 73.5565 393.474C73.5565 392.257 74.746 391.546 76.537 391.56C78.3417 391.546 79.5175 392.257 79.5175 393.474C79.5175 394.458 78.6698 395.128 77.3163 395.306V396.017C78.369 395.962 79.4286 395.867 80.4198 395.716L80.5429 396.783C77.9315 397.275 74.9784 397.302 72.8456 397.33L72.6815 396.14ZM80.0917 390.042V391.15H72.996V390.042H75.7987V388.921H77.3163V390.042H80.0917ZM76.537 392.585C75.58 392.585 75.0058 392.9 75.0194 393.474C75.0058 394.007 75.58 394.322 76.537 394.322C77.494 394.322 78.0683 394.007 78.0683 393.474C78.0683 392.9 77.494 392.585 76.537 392.585ZM94.9601 388.976V396.195H93.4426V394.828H90.5031V393.597H93.4426V392.271H90.6262C89.84 394.24 88.0422 395.614 85.3488 396.359L84.7336 395.156C87.6252 394.37 89.1633 392.907 89.4094 391.068H85.3898V389.837H91.0637C91.0637 390.268 91.0295 390.678 90.9543 391.068H93.4426V388.976H94.9601ZM90.8722 396.332C93.3742 396.332 95.0422 397.275 95.0422 398.792C95.0422 400.31 93.3742 401.253 90.8722 401.253C88.3429 401.253 86.675 400.31 86.675 398.792C86.675 397.275 88.3429 396.332 90.8722 396.332ZM90.8722 397.521C89.2043 397.521 88.1926 397.972 88.1926 398.792C88.1926 399.599 89.2043 400.05 90.8722 400.05C92.4992 400.05 93.5246 399.599 93.5246 398.792C93.5246 397.972 92.4992 397.521 90.8722 397.521ZM103.334 390.248V391.123C103.334 392.23 103.334 393.775 102.993 395.908L101.489 395.785C101.783 393.912 101.817 392.531 101.831 391.464H96.977V390.248H103.334ZM100.217 393.775V397.425C101.475 397.377 102.767 397.289 103.95 397.138L104.032 398.273C101.475 398.683 98.645 398.738 96.4712 398.724L96.3208 397.507C97.0522 397.5 97.8657 397.494 98.7133 397.466V393.775H100.217ZM106.123 388.962V393.994H107.915V395.279H106.123V401.322H104.592V388.962H106.123ZM121.081 388.962V391.97H122.749V393.242H121.081V396.236H119.563V388.962H121.081ZM121.081 396.728V399.394H114.368V400.187H121.519V401.212H112.851V398.451H119.563V397.753H112.823V396.728H121.081ZM111.183 394.992C112.112 394.992 113.179 394.992 114.3 394.951V394.335C112.912 394.199 112.058 393.638 112.058 392.722C112.058 391.724 113.22 391.136 115.038 391.136C116.856 391.136 118.019 391.724 118.019 392.722C118.019 393.625 117.185 394.185 115.817 394.335V394.896C116.87 394.855 117.93 394.766 118.921 394.636L119.044 395.593C116.405 396.044 113.507 396.058 111.347 396.058L111.183 394.992ZM118.593 389.796V390.835H111.497V389.796H114.3V388.867H115.817V389.796H118.593ZM115.038 392.093C114.081 392.107 113.507 392.312 113.521 392.722C113.507 393.16 114.081 393.406 115.038 393.406C115.995 393.406 116.569 393.16 116.569 392.722C116.569 392.312 115.995 392.107 115.038 392.093ZM134.391 394.882V396.099H123.112V394.882H128.006V393.707H124.492V389.523H133.024V390.712H126.01V392.503H133.092V393.707H129.496V394.882H134.391ZM128.731 396.81C131.397 396.81 132.996 397.617 133.01 399.066C132.996 400.501 131.397 401.322 128.731 401.322C126.037 401.322 124.424 400.501 124.424 399.066C124.424 397.617 126.037 396.81 128.731 396.81ZM128.731 397.972C126.926 397.972 125.955 398.355 125.969 399.066C125.955 399.777 126.926 400.146 128.731 400.146C130.494 400.146 131.479 399.777 131.492 399.066C131.479 398.355 130.494 397.972 128.731 397.972Z" fill="#363636"/>
<path d="M335.146 350.201C337.647 350.201 339.151 351.021 339.151 352.443C339.151 353.879 337.647 354.699 335.146 354.713C332.644 354.699 331.112 353.879 331.112 352.443C331.112 351.021 332.644 350.201 335.146 350.201ZM335.146 351.049C333.313 351.062 332.179 351.568 332.192 352.443C332.179 353.318 333.313 353.838 335.146 353.838C336.991 353.838 338.112 353.318 338.112 352.443C338.112 351.568 336.991 351.062 335.146 351.049ZM339.042 342.559V345.621H340.874V346.537H339.042V349.873H337.976V342.559H339.042ZM331.112 343.324V345.184H334.653V343.324H335.72V348.93H330.06V343.324H331.112ZM331.112 348.055H334.653V346.031H331.112V348.055ZM345.297 343.707V353.605H344.053V344.992H343.998L341.592 346.592V345.348L344.053 343.707H345.297Z" fill="#363636"/>
<path d="M329.167 303.792V304.681H324.232V307.169H323.152V304.681H318.039V303.792H329.167ZM327.923 308.591V309.507H319.474V305.952H320.554V308.591H327.923ZM323.589 297.927C326.187 297.94 327.869 298.87 327.869 300.374C327.869 301.878 326.187 302.794 323.589 302.794C320.992 302.794 319.296 301.878 319.296 300.374C319.296 298.87 320.992 297.94 323.589 297.927ZM323.589 298.802C321.703 298.802 320.431 299.403 320.445 300.374C320.431 301.317 321.703 301.919 323.589 301.919C325.476 301.919 326.734 301.317 326.734 300.374C326.734 299.403 325.476 298.802 323.589 298.802ZM340.96 303.628V304.489H329.872V303.628H334.889V302.206H331.28V298.187H339.579V299.048H332.333V301.331H339.661V302.206H335.928V303.628H340.96ZM335.409 305.378C338.02 305.378 339.579 306.171 339.593 307.565C339.579 308.974 338.02 309.753 335.409 309.767C332.784 309.753 331.212 308.974 331.212 307.565C331.212 306.171 332.784 305.378 335.409 305.378ZM335.409 306.226C333.454 306.226 332.292 306.731 332.305 307.565C332.292 308.413 333.454 308.905 335.409 308.905C337.337 308.905 338.512 308.413 338.512 307.565C338.512 306.731 337.337 306.226 335.409 306.226Z" fill="#363636"/>
<path d="M25.6538 193.677C28.5044 193.677 30.5552 196.261 30.5757 200.321C30.5552 204.423 28.5044 206.986 25.6538 206.986C22.8032 206.986 20.7114 204.423 20.7319 200.321C20.7114 196.261 22.8032 193.677 25.6538 193.677ZM25.6538 196.035C24.2183 196.035 23.2544 197.553 23.2544 200.321C23.2544 203.11 24.2183 204.607 25.6538 204.607C27.1099 204.607 28.0532 203.11 28.0737 200.321C28.0532 197.553 27.1099 196.035 25.6538 196.035ZM35.354 192.364V199.398H38.1021V201.572H35.354V211.026H32.729V192.364H35.354ZM49.853 194.23V196.281H46.0386C46.1001 198.178 47.5356 200.116 50.5298 200.854L49.3198 202.905C47.1562 202.341 45.6387 201.131 44.7671 199.583C43.9263 201.295 42.3984 202.628 40.1733 203.254L38.9634 201.244C41.9165 200.383 43.3213 198.342 43.3931 196.281H39.5786V194.23H43.3931V192.303H46.0591V194.23H49.853ZM54.4058 192.385V203.315H51.7808V192.385H54.4058ZM54.4058 204.095V210.821H41.896V204.095H54.4058ZM44.48 206.187V208.729H51.8423V206.187H44.48ZM71.5913 194.825C71.5913 197.553 74.0112 200.485 78.2358 201.203L77.0874 203.377C73.8369 202.731 71.417 200.906 70.2173 198.496C68.9766 200.885 66.5566 202.721 63.3267 203.377L62.1987 201.203C66.3413 200.465 68.7817 197.532 68.8022 194.825V193.472H71.5913V194.825ZM78.8511 206.576V208.729H61.7681V206.576H78.8511ZM95.1343 202.003V204.074H81.9272V193.738H94.9907V195.851H84.5933V197.819H94.5601V199.87H84.5933V202.003H95.1343ZM97.0005 206.72V208.853H79.9175V206.72H97.0005ZM105.204 194.23V201.306H101.102V204.484C102.917 204.464 104.64 204.382 106.578 204.013L106.803 206.146C104.363 206.597 102.271 206.638 99.9126 206.658H98.6001V199.234H102.681V196.302H98.5796V194.23H105.204ZM114.207 192.364V211.026H111.725V192.364H114.207ZM110.331 192.713V210.124H107.89V200.854H105.983V198.742H107.89V192.713H110.331ZM127.291 194.312V196.384H123.476C123.538 198.281 124.973 200.219 127.967 200.998L126.757 203.008C124.604 202.454 123.086 201.254 122.225 199.706C121.384 201.429 119.856 202.792 117.631 203.418L116.38 201.388C119.354 200.567 120.759 198.465 120.831 196.384H117.016V194.312H120.831V192.385H123.497V194.312H127.291ZM131.843 192.385V203.644H129.218V192.385H131.843ZM125.486 203.931C129.444 203.931 131.884 205.243 131.905 207.479C131.884 209.734 129.444 211.026 125.486 211.026C121.507 211.026 119.067 209.734 119.067 207.479C119.067 205.243 121.507 203.931 125.486 203.931ZM125.486 205.961C122.984 205.961 121.692 206.474 121.692 207.479C121.692 208.504 122.984 209.037 125.486 209.037C127.988 209.037 129.321 208.504 129.321 207.479C129.321 206.474 127.988 205.961 125.486 205.961ZM154.299 192.938V198.496H143.861V200.055H154.73V202.146H141.215V196.527H151.613V195.051H141.154V192.938H154.299ZM156.268 203.541V205.633H149.008V211.067H146.383V205.633H139.185V203.541H156.268ZM172.982 192.385V206.187H170.357V192.385H172.982ZM173.474 208.606V210.698H160.472V204.956H163.118V208.606H173.474ZM167.424 193.779V195.871H161.005V197.635H166.871V199.645H161.005V201.429C164.287 201.429 166.368 201.388 168.737 200.998L169.003 203.008C166.337 203.479 163.979 203.521 159.98 203.521H158.38V193.779H167.424Z" fill="black"/>
<path d="M32.8003 293.522V297.815H29.355V299.114H34.2358V300.345H22.9702V299.114H27.8237V297.815H24.3921V293.522H32.8003ZM25.8687 294.712V296.612H31.2964V294.712H25.8687ZM32.855 301.384V305.376H31.3374V302.587H24.2144V301.384H32.855ZM39.3289 295.136C39.3289 296.64 40.3269 298.157 42.241 298.8L41.4754 299.976C40.0945 299.524 39.117 298.588 38.5769 297.433C38.0369 298.725 37.0047 299.764 35.5418 300.249L34.7625 299.046C36.7312 298.403 37.784 296.763 37.784 295.149V294.985H35.2137V293.769H41.8855V294.985H39.3289V295.136ZM45.1394 300.974V305.376H43.6219V302.19H36.7176V300.974H45.1394ZM45.1394 293.017V300.386H43.6219V297.323H41.5164V296.079H43.6219V293.017H45.1394Z" fill="#363636"/>
<path d="M31.4819 263.656V267.891H23.5288V269.078H31.8101V270.672H21.5132V266.391H29.4351V265.266H21.4663V263.656H31.4819ZM32.9819 271.734V273.328H27.4507V277.469H25.4507V273.328H19.9663V271.734H32.9819ZM45.7163 263.234V273.75H43.7163V263.234H45.7163ZM46.0913 275.594V277.188H36.1851V272.812H38.2007V275.594H46.0913ZM41.4819 264.297V265.891H36.5913V267.234H41.0601V268.766H36.5913V270.125C39.0913 270.125 40.6772 270.094 42.4819 269.797L42.6851 271.328C40.6538 271.688 38.8569 271.719 35.8101 271.719H34.5913V264.297H41.4819ZM56.5132 265.453C56.5132 267.172 57.5132 268.828 59.7632 269.531L58.7007 271.078C57.1929 270.578 56.1382 269.609 55.5288 268.359C54.9116 269.797 53.8101 270.922 52.1851 271.469L51.1069 269.906C53.4819 269.109 54.4976 267.219 54.5132 265.266V263.969H56.5132V265.453ZM62.6069 263.219V266.547H64.5288V268.203H62.6069V271.656H60.6069V263.219H62.6069ZM57.9507 271.938C60.8882 271.938 62.7476 272.953 62.7476 274.688C62.7476 276.438 60.8882 277.438 57.9507 277.438C54.9507 277.438 53.0757 276.438 53.0757 274.688C53.0757 272.953 54.9507 271.938 57.9507 271.938ZM57.9507 273.5C56.0757 273.5 55.0601 273.906 55.0757 274.688C55.0601 275.5 56.0757 275.875 57.9507 275.875C59.7944 275.875 60.7788 275.5 60.7788 274.688C60.7788 273.906 59.7944 273.5 57.9507 273.5ZM69.7163 266.797C69.7163 269.094 70.3569 271.469 72.2944 272.719L71.2163 274.266C69.9897 273.523 69.2085 272.305 68.7632 270.844C68.2476 272.453 67.396 273.797 66.1069 274.578L64.8882 273.109C66.9976 271.797 67.7788 269.297 67.7788 266.891V264.438H69.7163V266.797ZM77.4819 263.219V277.438H75.5757V263.219H77.4819ZM74.4976 263.422V276.781H72.6382V269.641H70.7944V268.016H72.6382V263.422H74.4976Z" fill="black"/>
<path d="M29.937 344.44V347.954H22.8413V349.185H30.2104V350.401H21.3101V346.806H28.3784V345.671H21.2827V344.44H29.937ZM31.2495 351.454V352.671H26.3413V356.39H24.8237V352.671H19.9565V351.454H31.2495ZM42.0847 344.03V353.177H40.5535V344.03H42.0847ZM42.4265 354.899V356.13H33.909V352.37H35.4402V354.899H42.4265ZM38.448 344.974V346.19H34.0183V347.544H38.0926V348.72H34.0183V350.101C36.3289 350.101 37.7371 350.066 39.364 349.8L39.5144 350.976C37.7371 351.29 36.1922 351.331 33.5262 351.331H32.4734V344.974H38.448ZM53.3985 344.017V348.159H55.0665V349.417H53.3985V353.669H51.8809V344.017H53.3985ZM53.836 354.899V356.13H45.2774V353.026H46.795V354.899H53.836ZM43.5001 351.194C44.4229 351.194 45.4962 351.188 46.6172 351.14V350.36C45.2432 350.196 44.3751 349.52 44.3751 348.528C44.3751 347.312 45.5645 346.601 47.3555 346.614C49.1602 346.601 50.336 347.312 50.336 348.528C50.336 349.513 49.4883 350.183 48.1348 350.36V351.071C49.1876 351.017 50.2471 350.921 51.2383 350.771L51.3614 351.837C48.7501 352.329 45.7969 352.356 43.6641 352.384L43.5001 351.194ZM50.9102 345.097V346.204H43.8145V345.097H46.6172V343.976H48.1348V345.097H50.9102ZM47.3555 347.64C46.3985 347.64 45.8243 347.954 45.8379 348.528C45.8243 349.062 46.3985 349.376 47.3555 349.376C48.3126 349.376 48.8868 349.062 48.8868 348.528C48.8868 347.954 48.3126 347.64 47.3555 347.64ZM65.7787 344.03V351.249H64.2611V349.882H61.3216V348.651H64.2611V347.325H61.4447C60.6585 349.294 58.8607 350.668 56.1673 351.413L55.5521 350.21C58.4437 349.424 59.9818 347.961 60.2279 346.122H56.2083V344.892H61.8822C61.8822 345.322 61.848 345.732 61.7728 346.122H64.2611V344.03H65.7787ZM61.6908 351.386C64.1927 351.386 65.8607 352.329 65.8607 353.847C65.8607 355.364 64.1927 356.308 61.6908 356.308C59.1615 356.308 57.4935 355.364 57.4935 353.847C57.4935 352.329 59.1615 351.386 61.6908 351.386ZM61.6908 352.575C60.0228 352.575 59.0111 353.026 59.0111 353.847C59.0111 354.653 60.0228 355.104 61.6908 355.104C63.3177 355.104 64.3431 354.653 64.3431 353.847C64.3431 353.026 63.3177 352.575 61.6908 352.575Z" fill="black"/>
<path d="M362.06 355.605L368.06 349.346L362.06 342.605" stroke="#B1B1B1" stroke-width="2"/>
<path d="M362.06 310.659L368.06 304.4L362.06 297.659" stroke="#B1B1B1" stroke-width="2"/>
<g opacity="0.8">
<rect x="19.5" y="415.659" width="359" height="109" rx="7.5" fill="white"/>
<rect x="19.5" y="415.659" width="359" height="109" rx="7.5" stroke="#C9C9C9"/>
<path d="M53.9684 432.071V441.163H52.6696V437.786H50.7555V436.692H52.6696V435.407H50.7555V434.341H52.6696V432.071H53.9684ZM43.7692 438.333C44.2272 438.333 44.7331 438.326 45.2595 438.326V434.081H44.111V433.028H50.6188V434.081H49.443V438.183C49.9626 438.142 50.4616 438.101 50.947 438.046L51.0016 439.003C48.6569 439.372 45.8952 439.42 43.9333 439.427L43.7692 438.333ZM45.9841 444.062V440.425H47.2966V443.009H54.2829V444.062H45.9841ZM46.5173 438.306C47.071 438.292 47.6315 438.271 48.1989 438.251V434.081H46.5173V438.306ZM65.2002 432.058V435.722H66.9775V436.815H65.2002V441.067H63.9013V432.058H65.2002ZM55.7666 435.954C55.7529 434.17 57.1748 432.912 59.0205 432.905C60.873 432.912 62.2744 434.17 62.288 435.954C62.2744 437.738 60.873 439.01 59.0205 439.003C57.1748 439.01 55.7529 437.738 55.7666 435.954ZM57.038 435.954C57.0244 437.096 57.8994 437.868 59.0205 437.868C60.1552 437.868 61.0097 437.096 61.0166 435.954C61.0097 434.812 60.1552 434.04 59.0205 434.04C57.8994 434.04 57.0244 434.812 57.038 435.954ZM57.4345 444.062V440.124H58.7334V443.009H65.7197V444.062H57.4345ZM77.0198 432.085V436.022H78.7971V437.103H77.0198V441.245H75.7209V432.085H77.0198ZM67.4084 434.56V433.507H70.4163V432.071H71.7151V433.507H74.7092V434.56H67.4084ZM68.0784 437.458C68.0715 436.057 69.2815 435.141 71.0588 435.147C72.8157 435.141 74.0256 436.057 74.0256 437.458C74.0256 438.846 72.8157 439.748 71.0588 439.755C69.2815 439.748 68.0715 438.846 68.0784 437.458ZM69.2541 444.062V440.521H70.553V443.009H77.5393V444.062H69.2541ZM69.3362 437.458C69.3225 438.258 70.0198 438.75 71.0588 438.743C72.0979 438.75 72.7952 438.258 72.8088 437.458C72.7952 436.651 72.0979 436.152 71.0588 436.146C70.0198 436.152 69.3225 436.651 69.3362 437.458ZM93.5496 438.483V439.522H88.6824V441.778H87.3973V439.522H82.3387V438.483H93.5496ZM83.7332 444.062V440.712H85.0184V443.009H92.3055V444.062H83.7332ZM83.8152 437.403V432.454H85.1004V433.944H90.7742V432.454H92.073V437.403H83.8152ZM85.1004 436.364H90.7742V434.915H85.1004V436.364ZM98.1915 432.632C100.037 432.625 101.37 433.657 101.377 435.175C101.37 436.679 100.037 437.718 98.1915 437.704C96.3526 437.718 95.0264 436.679 95.0333 435.175C95.0264 433.657 96.3526 432.625 98.1915 432.632ZM94.1583 438.661C96.421 438.661 99.545 438.613 102.225 438.21L102.32 439.181C101.199 439.393 100.044 439.522 98.9161 439.598V443.938H97.6173V439.673C96.4278 439.728 95.3067 439.734 94.336 439.741L94.1583 438.661ZM96.2911 435.175C96.2774 436.063 97.0772 436.651 98.1915 436.638C99.3331 436.651 100.133 436.063 100.133 435.175C100.133 434.279 99.3331 433.678 98.1915 433.685C97.0772 433.678 96.2774 434.279 96.2911 435.175ZM103.072 444.321V432.085H104.357V444.321H103.072ZM116.177 432.071V444.321H114.865V432.071H116.177ZM106.115 441.04C109.369 439.488 110.961 437.28 111.214 434.423H106.702V433.384H112.527C112.527 436.973 111.002 440.076 106.798 442.093L106.115 441.04ZM128.352 432.071V444.321H127.108V432.071H128.352ZM117.948 437.362C117.948 434.71 118.987 433.049 120.587 433.056C122.077 433.049 123.082 434.464 123.232 436.761H124.62V432.304H125.864V443.72H124.62V437.813H123.239C123.123 440.206 122.104 441.689 120.587 441.683C118.987 441.689 117.948 440.021 117.948 437.362ZM119.151 437.362C119.151 439.311 119.705 440.459 120.587 440.452C121.489 440.459 122.049 439.311 122.049 437.362C122.049 435.407 121.489 434.266 120.587 434.272C119.705 434.266 119.151 435.407 119.151 437.362ZM134.047 435.188C134.047 437.431 135.305 439.666 137.178 440.507L136.385 441.546C134.997 440.849 133.944 439.468 133.404 437.793C132.864 439.557 131.798 441.047 130.383 441.778L129.562 440.726C131.463 439.816 132.727 437.458 132.734 435.188V433.097H134.047V435.188ZM135.824 437.198V436.146H138.559V432.071H139.844V444.349H138.559V437.198H135.824ZM150.809 433.808C150.809 435.804 152.935 437.69 155.293 438.114L154.692 439.194C152.73 438.771 150.932 437.485 150.139 435.763C149.332 437.479 147.535 438.757 145.573 439.194L144.999 438.114C147.323 437.677 149.435 435.804 149.442 433.808V432.878H150.809V433.808ZM144.588 442.708V441.628H155.799V442.708H144.588ZM166.347 438.593V439.632H157.816V433.083H166.224V434.136H159.129V435.79H165.965V436.815H159.129V438.593H166.347ZM156.408 442.776V441.71H167.619V442.776H156.408ZM172.972 433.384V437.745H169.868V440.261C171.201 440.254 172.473 440.199 173.983 439.933L174.093 440.999C172.391 441.307 170.996 441.341 169.458 441.354H168.61V436.706H171.728V434.437H168.597V433.384H172.972ZM173.546 437.458V436.405H174.995V432.345H176.226V443.692H174.995V437.458H173.546ZM177.497 444.321V432.071H178.741V444.321H177.497ZM184.6 434.614C184.593 436.084 185.803 437.438 187.703 437.964L187.088 438.976C185.653 438.572 184.559 437.684 183.992 436.535C183.445 437.813 182.351 438.812 180.881 439.276L180.239 438.251C182.132 437.684 183.308 436.2 183.301 434.614V434.546H180.58V433.507H183.301V432.071H184.614V433.507H187.307V434.546H184.6V434.614ZM181.92 442.038C181.92 440.609 183.499 439.782 186.09 439.782C188.66 439.782 190.24 440.609 190.246 442.038C190.24 443.48 188.66 444.301 186.09 444.294C183.499 444.301 181.92 443.48 181.92 442.038ZM183.233 442.038C183.233 442.838 184.272 443.289 186.09 443.296C187.902 443.289 188.968 442.838 188.961 442.038C188.968 441.259 187.902 440.801 186.09 440.808C184.272 440.801 183.233 441.259 183.233 442.038ZM188.907 439.55V432.085H190.205V439.55H188.907Z" fill="#BEBEBE"/>
</g>
<rect x="168.25" y="636.094" width="207" height="47.7121" rx="10" fill="#D9D9D9"/>
<path d="M34.9219 643.606V647.841H26.9688V649.028H35.25V650.622H24.9531V646.341H32.875V645.216H24.9062V643.606H34.9219ZM36.4219 651.685V653.278H30.8906V657.419H28.8906V653.278H23.4062V651.685H36.4219ZM49.1562 643.185V653.7H47.1562V643.185H49.1562ZM49.5312 655.544V657.138H39.625V652.763H41.6406V655.544H49.5312ZM44.9219 644.247V645.841H40.0312V647.185H44.5V648.716H40.0312V650.075C42.5312 650.075 44.1172 650.044 45.9219 649.747L46.125 651.278C44.0938 651.638 42.2969 651.669 39.25 651.669H38.0312V644.247H44.9219ZM60.1406 645.106C60.125 647.013 61.1094 648.763 63.3906 649.466L62.3438 651.028C60.8125 650.497 59.7734 649.513 59.1875 648.231C58.5469 649.716 57.3984 650.888 55.6875 651.466L54.6406 649.872C57.0781 649.091 58.1094 647.185 58.125 645.2V643.903H60.1406V645.106ZM66.75 643.169V651.497H64.7656V647.403H62.0938V645.778H64.7656V643.169H66.75ZM61.8906 651.872C64.9219 651.872 66.7812 652.888 66.7969 654.638C66.7812 656.388 64.9219 657.388 61.8906 657.388C58.8594 657.388 57 656.388 57 654.638C57 652.888 58.8594 651.872 61.8906 651.872ZM61.8906 653.419C60 653.419 58.9844 653.825 58.9844 654.638C58.9844 655.419 60 655.841 61.8906 655.841C63.7812 655.841 64.8125 655.419 64.8125 654.638C64.8125 653.825 63.7812 653.419 61.8906 653.419ZM76.2031 644.06C76.2031 644.552 76.1641 645.028 76.0938 645.481H78.5938V643.185H80.5781V651.622H78.5938V650.075H75.3594V648.481H78.5938V647.044H75.625C74.6641 649.247 72.5625 650.794 69.5 651.606L68.75 650.013C71.9531 649.192 73.75 647.599 74.0625 645.669H69.5625V644.06H76.2031ZM80.5781 652.2V657.356H78.5938V653.763H70.8125V652.2H80.5781Z" fill="black"/>
<rect x="174.701" y="642.45" width="98.7841" height="35" rx="9.5" fill="#F4F4F4"/>
<rect x="174.701" y="642.45" width="98.7841" height="35" rx="9.5" stroke="#D3D3D3"/>
<path d="M209 652.685V663.169H207.015V659.7H204.39V660.919H197.625V653.606H199.625V655.794H202.421V653.606H204.39V655.06H207.015V652.685H209ZM209.296 665.044V666.638H199.531V662.122H201.546V665.044H209.296ZM199.625 659.356H202.421V657.31H199.625V659.356ZM204.39 658.106H207.015V656.669H204.39V658.106ZM223.683 659.388V660.95H210.683V659.388H216.215V658.169H212.261V653.294H222.121V654.841H214.246V656.606H222.199V658.169H218.168V659.388H223.683ZM217.152 661.669C220.23 661.669 222.09 662.606 222.105 664.294C222.09 665.95 220.23 666.903 217.152 666.903C214.043 666.903 212.168 665.95 212.168 664.294C212.168 662.606 214.043 661.669 217.152 661.669ZM217.152 663.185C215.183 663.185 214.183 663.56 214.199 664.294C214.183 665.044 215.183 665.388 217.152 665.388C219.074 665.388 220.09 665.044 220.105 664.294C220.09 663.56 219.074 663.185 217.152 663.185ZM235.57 652.669V658.122H237.586V659.763H235.57V666.856H233.57V652.669H235.57ZM231.773 654.122C231.758 658.372 230.101 662.06 225.32 664.403L224.195 662.872C227.562 661.185 229.367 658.919 229.742 655.747H225.008V654.122H231.773ZM249.551 656.231V657.825H239.66V652.888H241.645V656.231H249.551ZM251.02 659.044V660.669H238.02V659.044H251.02ZM244.488 661.56C247.566 661.575 249.426 662.528 249.441 664.2C249.426 665.888 247.566 666.841 244.488 666.841C241.379 666.841 239.504 665.888 239.504 664.2C239.504 662.528 241.379 661.575 244.488 661.56ZM244.488 663.106C242.52 663.122 241.52 663.45 241.535 664.2C241.52 664.935 242.52 665.325 244.488 665.325C246.41 665.325 247.426 664.935 247.441 664.2C247.426 663.45 246.41 663.122 244.488 663.106Z" fill="#3C3C3C"/>
<path opacity="0.5" d="M305.297 652.888V653.872H311V652.888H312.984V657.653H303.328V652.888H305.297ZM305.297 656.169H311V655.31H305.297V656.169ZM314.641 658.388V659.997H309.141V660.888H313.062V664.481H305.141V665.294H313.438V666.794H303.188V663.106H311.094V662.341H303.172V660.888H307.141V659.997H301.672V658.388H314.641ZM326.559 652.669V658.122H328.574V659.763H326.559V666.856H324.559V652.669H326.559ZM322.762 654.122C322.746 658.372 321.09 662.06 316.309 664.403L315.184 662.872C318.551 661.185 320.356 658.919 320.731 655.747H315.996V654.122H322.762ZM340.539 656.231V657.825H330.649V652.888H332.633V656.231H340.539ZM342.008 659.044V660.669H329.008V659.044H342.008ZM335.477 661.56C338.555 661.575 340.414 662.528 340.43 664.2C340.414 665.888 338.555 666.841 335.477 666.841C332.368 666.841 330.493 665.888 330.493 664.2C330.493 662.528 332.368 661.575 335.477 661.56ZM335.477 663.106C333.508 663.122 332.508 663.45 332.524 664.2C332.508 664.935 333.508 665.325 335.477 665.325C337.399 665.325 338.414 664.935 338.43 664.2C338.414 663.45 337.399 663.122 335.477 663.106Z" fill="#3C3C3C"/>
<path d="M34.9219 705.894V710.128H26.9688V711.315H35.25V712.909H24.9531V708.628H32.875V707.503H24.9062V705.894H34.9219ZM36.4219 713.972V715.565H30.8906V719.706H28.8906V715.565H23.4062V713.972H36.4219ZM49.1562 705.472V715.987H47.1562V705.472H49.1562ZM49.5312 717.831V719.425H39.625V715.05H41.6406V717.831H49.5312ZM44.9219 706.534V708.128H40.0312V709.472H44.5V711.003H40.0312V712.362C42.5312 712.362 44.1172 712.331 45.9219 712.034L46.125 713.565C44.0938 713.925 42.2969 713.956 39.25 713.956H38.0312V706.534H44.9219ZM60.2812 709.331C60.2812 711.628 61.4531 714.081 63.8438 715.081L62.7656 716.644C61.0859 715.933 59.9297 714.519 59.2969 712.784C58.6484 714.667 57.4688 716.229 55.7969 717.003L54.6562 715.425C57.0156 714.378 58.2344 711.737 58.2344 709.331V708.456H55.2188V706.831H63.25V708.456H60.2812V709.331ZM66.6719 705.456V719.675H64.6562V705.456H66.6719ZM81.5625 712.378V713.972H68.5938V712.378H74.0781V710.487H76.0469V712.378H81.5625ZM76.0781 706.159C76.0781 707.815 77.6719 709.394 80.875 709.784L80.1094 711.331C77.7109 710.972 75.9453 709.964 75.0469 708.534C74.1328 709.964 72.3672 710.979 69.9688 711.331L69.2656 709.784C72.4062 709.394 74.0469 707.769 74.0469 706.159V705.69H76.0781V706.159ZM79.9844 714.972V719.675H78V716.519H70.0312V714.972H79.9844ZM91.6406 708.675C91.6406 711.284 92.8281 713.909 95.2344 714.925L94.0625 716.519C92.4375 715.784 91.3125 714.37 90.6719 712.612C90.0234 714.526 88.8594 716.073 87.125 716.862L85.9219 715.206C88.4062 714.159 89.6094 711.44 89.625 708.675V706.55H91.6406V708.675ZM98.0156 705.456V719.706H96V705.456H98.0156ZM111.219 705.456V709.44H113.141V711.081H111.219V715.644H109.203V705.456H111.219ZM107.344 706.519C107.344 710.362 104.938 713.05 100.672 714.253L99.8438 712.675C103.023 711.784 104.828 710.136 105.156 708.144H100.469V706.519H107.344ZM111.703 717.831V719.425H101.969V714.597H103.984V717.831H111.703Z" fill="black"/>
<g filter="url(#filter0_d_486_1558)">
<rect x="23" y="734.386" width="361" height="119" rx="10" fill="white" shape-rendering="crispEdges"/>
<rect x="23.5" y="734.886" width="360" height="118" rx="9.5" stroke="#E5E5E5" shape-rendering="crispEdges"/>
<path d="M49.377 769.667V773.181H42.2812V774.412H49.6504V775.628H40.75V772.033H47.8184V770.898H40.7227V769.667H49.377ZM50.6895 776.681V777.898H45.7812V781.617H44.2637V777.898H39.3965V776.681H50.6895ZM61.5247 769.257V778.404H59.9934V769.257H61.5247ZM61.8665 780.126V781.357H53.3489V777.597H54.8802V780.126H61.8665ZM57.888 770.201V771.417H53.4583V772.771H57.5325V773.947H53.4583V775.328C55.7688 775.328 57.177 775.293 58.804 775.027L58.9544 776.203C57.177 776.517 55.6321 776.558 52.9661 776.558H51.9134V770.201H57.888ZM70.7537 772.757C70.7537 774.781 71.9432 776.914 73.9393 777.748L73.1053 778.951C71.6424 778.322 70.576 777.023 70.0155 775.451C69.4412 777.146 68.3612 778.568 66.912 779.251L66.037 778.062C67.992 777.16 69.2088 774.863 69.2088 772.757V771.718H66.4881V770.46H73.4608V771.718H70.7537V772.757ZM76.3729 769.244V781.603H74.8416V769.244H76.3729ZM89.1769 775.314V776.544H77.9113V775.314H82.7784V773.591H84.2823V775.314H89.1769ZM84.296 769.914C84.296 771.417 85.9503 772.785 88.5343 773.113L87.9464 774.302C85.9161 773.988 84.3029 773.072 83.5167 771.773C82.7238 773.072 81.1105 773.988 79.0734 774.302L78.5265 773.113C81.0695 772.785 82.7511 771.39 82.7511 769.914V769.449H84.296V769.914ZM87.796 777.529V781.603H86.2784V778.718H79.1554V777.529H87.796ZM97.4489 772.21C97.4352 774.48 98.6247 776.75 100.634 777.611L99.7321 778.828C98.3102 778.171 97.2643 776.859 96.697 775.246C96.1296 776.989 95.07 778.411 93.5661 779.115L92.6364 777.843C94.7009 776.955 95.904 774.589 95.904 772.21V770.242H97.4489V772.21ZM103.054 769.244V781.617H101.523V769.244H103.054ZM114.341 769.244V772.798H116.063V774.07H114.341V778.158H112.796V769.244H114.341ZM110.978 770.187C110.978 773.468 108.845 775.806 105.181 776.873L104.552 775.669C107.375 774.856 109.057 773.318 109.323 771.431H105.071V770.187H110.978ZM114.806 780.126V781.357H106.397V777.242H107.942V780.126H114.806Z" fill="black"/>
<rect x="147" y="757.386" width="90" height="37" rx="4" fill="#F1F1F1"/>
<path d="M164.34 770.488V780.386H162.549V772.224H162.494L160.184 773.701V772.074L162.631 770.488H164.34ZM166.466 780.386V779.101L169.966 775.724C170.964 774.726 171.484 774.138 171.484 773.304C171.484 772.388 170.759 771.8 169.788 771.8C168.763 771.8 168.107 772.443 168.12 773.441H166.425C166.411 771.568 167.82 770.351 169.802 770.351C171.825 770.351 173.193 771.554 173.193 773.222C173.193 774.343 172.646 775.246 170.704 777.078L168.941 778.828V778.896H173.343V780.386H166.466ZM178.758 779.156C178.17 779.156 177.691 778.677 177.691 778.089C177.691 777.515 178.17 777.037 178.758 777.037C179.318 777.037 179.81 777.515 179.81 778.089C179.81 778.677 179.318 779.156 178.758 779.156ZM178.758 773.851C178.17 773.851 177.691 773.373 177.691 772.785C177.691 772.21 178.17 771.732 178.758 771.732C179.318 771.732 179.81 772.21 179.81 772.785C179.81 773.373 179.318 773.851 178.758 773.851ZM187.891 780.523C185.512 780.523 184.09 778.677 184.09 775.437C184.09 772.21 185.512 770.351 187.891 770.351C190.256 770.351 191.692 772.21 191.692 775.437C191.692 778.677 190.27 780.523 187.891 780.523ZM187.891 779.033C189.135 779.033 189.901 777.816 189.901 775.437C189.901 773.072 189.121 771.828 187.891 771.828C186.661 771.828 185.881 773.072 185.881 775.437C185.881 777.816 186.647 779.033 187.891 779.033ZM196.552 780.523C194.174 780.523 192.752 778.677 192.752 775.437C192.752 772.21 194.174 770.351 196.552 770.351C198.918 770.351 200.353 772.21 200.353 775.437C200.353 778.677 198.931 780.523 196.552 780.523ZM196.552 779.033C197.797 779.033 198.562 777.816 198.562 775.437C198.562 773.072 197.783 771.828 196.552 771.828C195.322 771.828 194.543 773.072 194.543 775.437C194.543 777.816 195.308 779.033 196.552 779.033ZM204.701 780.386V770.488H208.42C210.69 770.488 211.906 771.869 211.906 773.769C211.906 775.669 210.676 777.037 208.393 777.037H206.479V780.386H204.701ZM206.479 775.574H208.147C209.487 775.574 210.088 774.822 210.088 773.769C210.088 772.703 209.487 771.978 208.147 771.978H206.479V775.574ZM213.062 770.488H215.25L218.189 777.679H218.312L221.251 770.488H223.439V780.386H221.73V773.578H221.634L218.886 780.359H217.615L214.867 773.55H214.785V780.386H213.062V770.488Z" fill="black"/>
<path d="M253.312 776.107C253.764 775.615 254.338 775.355 254.967 775.355C256.061 775.355 257.004 776.121 258.098 776.121C258.727 776.121 259.273 775.861 259.711 775.341V776.832C259.26 777.337 258.686 777.583 258.057 777.583C256.963 777.583 256.006 776.818 254.926 776.818C254.297 776.818 253.75 777.078 253.312 777.597V776.107Z" fill="black"/>
<rect x="277" y="757.386" width="90" height="37" rx="4" fill="#F1F1F1"/>
<path d="M293.84 770.488V780.386H292.049V772.224H291.994L289.684 773.701V772.074L292.131 770.488H293.84ZM299.562 780.523C297.361 780.523 295.802 779.347 295.802 777.734C295.802 776.476 296.732 775.451 297.921 775.259V775.205C296.882 774.986 296.171 774.083 296.171 773.003C296.171 771.472 297.607 770.351 299.562 770.351C301.503 770.351 302.939 771.472 302.939 773.003C302.939 774.083 302.214 774.986 301.189 775.205V775.259C302.378 775.451 303.322 776.476 303.322 777.734C303.322 779.347 301.749 780.523 299.562 780.523ZM299.562 779.115C300.724 779.115 301.49 778.486 301.49 777.57C301.49 776.64 300.669 775.957 299.562 775.957C298.441 775.957 297.62 776.64 297.634 777.57C297.62 778.486 298.386 779.115 299.562 779.115ZM299.562 774.63C300.519 774.63 301.202 774.029 301.202 773.167C301.202 772.333 300.532 771.746 299.562 771.746C298.577 771.746 297.907 772.32 297.907 773.167C297.907 774.029 298.591 774.63 299.562 774.63ZM308.654 779.156C308.066 779.156 307.588 778.677 307.588 778.089C307.588 777.515 308.066 777.037 308.654 777.037C309.215 777.037 309.707 777.515 309.707 778.089C309.707 778.677 309.215 779.156 308.654 779.156ZM308.654 773.851C308.066 773.851 307.588 773.373 307.588 772.785C307.588 772.21 308.066 771.732 308.654 771.732C309.215 771.732 309.707 772.21 309.707 772.785C309.707 773.373 309.215 773.851 308.654 773.851ZM317.788 780.523C315.409 780.523 313.987 778.677 313.987 775.437C313.987 772.21 315.409 770.351 317.788 770.351C320.153 770.351 321.588 772.21 321.588 775.437C321.588 778.677 320.166 780.523 317.788 780.523ZM317.788 779.033C319.032 779.033 319.797 777.816 319.797 775.437C319.797 773.072 319.018 771.828 317.788 771.828C316.557 771.828 315.778 773.072 315.778 775.437C315.778 777.816 316.543 779.033 317.788 779.033ZM326.449 780.523C324.07 780.523 322.648 778.677 322.648 775.437C322.648 772.21 324.07 770.351 326.449 770.351C328.814 770.351 330.25 772.21 330.25 775.437C330.25 778.677 328.828 780.523 326.449 780.523ZM326.449 779.033C327.693 779.033 328.459 777.816 328.459 775.437C328.459 773.072 327.679 771.828 326.449 771.828C325.218 771.828 324.439 773.072 324.439 775.437C324.439 777.816 325.205 779.033 326.449 779.033ZM334.598 780.386V770.488H338.317C340.586 770.488 341.803 771.869 341.803 773.769C341.803 775.669 340.572 777.037 338.289 777.037H336.375V780.386H334.598ZM336.375 775.574H338.043C339.383 775.574 339.985 774.822 339.985 773.769C339.985 772.703 339.383 771.978 338.043 771.978H336.375V775.574ZM342.959 770.488H345.146L348.085 777.679H348.209L351.148 770.488H353.335V780.386H351.626V773.578H351.531L348.783 780.359H347.511L344.763 773.55H344.681V780.386H342.959V770.488Z" fill="black"/>
<path d="M49.2402 810.216V813.716H50.9219V815.152H49.2402V819.376H47.4902V810.216H49.2402ZM49.6914 821.031V822.425H41.1738V818.433H42.9102V821.031H49.6914ZM41.4746 811.091V812.896H44.0176V811.091H45.7676V817.394H39.7383V811.091H41.4746ZM41.4746 816.027H44.0176V814.236H41.4746V816.027ZM62.8164 816.369V817.777H51.4688V816.369H56.2539V815.316H52.918V810.503H54.6406V811.638H59.6309V810.503H61.3672V815.316H58.0039V816.369H62.8164ZM61.4355 818.625V822.644H59.6992V820.005H52.7266V818.625H61.4355ZM54.6406 813.949H59.6309V812.923H54.6406V813.949Z" fill="black"/>
<path d="M302.646 810.216V817.421H300.896V817.025H298.64V815.972H300.896V810.216H302.646ZM292.104 814.591C294.511 814.605 297.491 814.578 300.157 814.332L300.239 815.412C299.139 815.562 298.011 815.658 296.903 815.712V817.449H295.181V815.781C294.162 815.808 293.185 815.808 292.282 815.794L292.104 814.591ZM302.646 817.791V820.703H295.646V821.345H302.933V822.562H293.937V819.582H300.909V818.966H293.882V817.791H302.646ZM296.11 810.38C297.956 810.38 299.228 811.132 299.241 812.253C299.228 813.416 297.956 814.113 296.11 814.113C294.21 814.113 292.952 813.416 292.952 812.253C292.952 811.132 294.21 810.38 296.11 810.38ZM296.11 811.529C295.167 811.515 294.593 811.802 294.606 812.253C294.593 812.718 295.167 812.978 296.11 812.978C297.026 812.978 297.614 812.718 297.614 812.253C297.614 811.802 297.026 811.515 296.11 811.529ZM306.689 820.375L305.513 824.271H304.064L304.748 820.375H306.689ZM320.532 810.203V815.261H322.159V816.71H320.532V822.644H318.768V810.203H320.532ZM310.429 819.13C311.338 819.13 312.397 819.13 313.505 819.103V818.037C312.179 817.777 311.317 816.936 311.331 815.781C311.317 814.386 312.575 813.443 314.393 813.443C316.171 813.443 317.442 814.386 317.456 815.781C317.442 816.936 316.567 817.784 315.255 818.037V819.035C316.239 818.987 317.23 818.905 318.153 818.775L318.263 820.046C315.61 820.539 312.767 820.552 310.661 820.552L310.429 819.13ZM318.058 811.583V812.951H310.675V811.583H313.505V810.271H315.255V811.583H318.058ZM314.393 814.769C313.546 814.769 312.972 815.138 312.985 815.781C312.972 816.437 313.546 816.792 314.393 816.792C315.214 816.792 315.774 816.437 315.774 815.781C315.774 815.138 315.214 814.769 314.393 814.769ZM325.164 820.375L323.988 824.271H322.539L323.222 820.375H325.164ZM335.657 811.173C335.657 812.636 337.147 814.263 340.005 814.619L339.321 816.027C337.147 815.712 335.555 814.708 334.741 813.361C333.921 814.708 332.342 815.712 330.188 816.027L329.491 814.619C332.321 814.263 333.825 812.636 333.825 811.173V810.572H335.657V811.173ZM340.401 816.97V818.392H335.561V822.644H333.839V818.392H329.054V816.97H340.401Z" fill="#3C3C3C"/>
<path d="M351.735 810.393L358 817.185L351.735 823.38" stroke="#B2B2B2" stroke-width="2"/>
</g>
<rect x="221.248" y="886.576" width="156.002" height="35" rx="9.5" fill="#F4F4F4"/>
<rect x="221.248" y="886.576" width="156.002" height="35" rx="9.5" stroke="#D3D3D3"/>
<path d="M236.514 898.264V909.576H234.154V900.498H234.092L231.498 902.123V900.045L234.295 898.264H236.514ZM243.369 909.732C240.541 909.732 238.822 907.623 238.822 903.92C238.822 900.217 240.541 898.107 243.369 898.107C246.197 898.107 247.916 900.232 247.916 903.92C247.916 907.639 246.197 909.732 243.369 909.732ZM243.369 907.795C244.682 907.795 245.526 906.529 245.51 903.92C245.51 901.342 244.682 900.029 243.369 900.029C242.057 900.029 241.229 901.342 241.229 903.92C241.213 906.529 242.057 907.795 243.369 907.795ZM261.912 904.092V905.654H256.553V907.951H254.584V905.654H248.897V904.092H261.912ZM260.475 909.17V910.764H250.428V906.826H252.397V909.17H260.475ZM252.537 897.248V898.732H258.241V897.248H260.225V903.092H250.569V897.248H252.537ZM252.537 901.514H258.241V900.217H252.537V901.514ZM278.092 896.811V907.186H276.108V902.092H273.78V900.482H276.108V896.811H278.092ZM278.436 909.17V910.764H268.655V906.279H270.655V909.17H278.436ZM271.483 899.592C271.483 901.232 272.483 902.998 274.749 903.732L273.764 905.311C272.186 904.803 271.108 903.764 270.483 902.467C269.858 903.904 268.725 905.045 267.046 905.607L266.03 903.982C268.374 903.248 269.436 901.389 269.452 899.576V899.357H266.592V897.764H274.311V899.357H271.483V899.592Z" fill="#3C3C3C"/>
<path d="M354.75 901.076L361.009 907.076L367.75 901.076" stroke="#B1B1B1" stroke-width="2"/>
<path d="M36.2031 896.795V900.873H38.125V902.529H36.2031V907.154H34.2031V896.795H36.2031ZM36.7188 909.17V910.764H26.9844V906.061H28.9688V909.17H36.7188ZM28.9219 897.717C31.0938 897.717 32.7969 899.217 32.7969 901.326C32.7969 903.404 31.0938 904.936 28.9219 904.936C26.7344 904.936 25.0156 903.404 25.0156 901.326C25.0156 899.217 26.7344 897.717 28.9219 897.717ZM28.9219 899.451C27.8438 899.436 26.9688 900.139 26.9844 901.326C26.9688 902.482 27.8438 903.201 28.9219 903.201C30.0156 903.201 30.8438 902.482 30.8594 901.326C30.8438 900.139 30.0156 899.436 28.9219 899.451ZM51.0156 896.795V911.014H49.0938V903.904H47.7656V910.326H45.8906V897.029H47.7656V902.295H49.0938V896.795H51.0156ZM41.3281 898.373V905.795C42.4688 905.771 43.7188 905.67 45.0938 905.404L45.2969 907.123C43.3906 907.451 41.7656 907.545 40.2969 907.545H39.3281V898.373H41.3281ZM61.7969 900.014C61.7969 902.623 62.9844 905.248 65.3906 906.264L64.2188 907.857C62.5938 907.123 61.4688 905.709 60.8281 903.951C60.1797 905.865 59.0156 907.412 57.2812 908.201L56.0781 906.545C58.5625 905.498 59.7656 902.779 59.7812 900.014V897.889H61.7969V900.014ZM68.1719 896.795V911.045H66.1562V896.795H68.1719ZM81.375 896.795V900.779H83.2969V902.42H81.375V906.982H79.3594V896.795H81.375ZM77.5 897.857C77.5 901.701 75.0938 904.389 70.8281 905.592L70 904.014C73.1797 903.123 74.9844 901.475 75.3125 899.482H70.625V897.857H77.5ZM81.8594 909.17V910.764H72.125V905.936H74.1406V909.17H81.8594Z" fill="black"/>
<path d="M64.332 939.389V946.127H63.1748V942.744H60.2744V941.792H63.1748V939.389H64.332ZM64.332 946.787V949.892H57.0518V951.313H64.8154V952.236H55.9238V949.013H63.1895V947.709H55.8945V946.787H64.332ZM57.9746 941.044C57.96 942.758 59.3076 944.311 61.2119 944.941L60.5967 945.834C59.1538 945.322 58.0039 944.296 57.4326 942.978C56.876 944.465 55.6968 945.6 54.1514 946.157L53.5215 945.234C55.4844 944.589 56.832 942.949 56.8467 941.044V939.814H57.9746V941.044ZM77.1459 939.389V947.153H75.9887V943.74H73.3666V942.788H75.9887V939.389H77.1459ZM72.8246 947.563C75.5346 947.563 77.1898 948.442 77.1898 949.98C77.1898 951.518 75.5346 952.397 72.8246 952.412C70.1146 952.397 68.4594 951.518 68.4594 949.98C68.4594 948.442 70.1146 947.563 72.8246 947.563ZM72.8246 948.457C70.8324 948.457 69.5873 949.028 69.602 949.98C69.5873 950.917 70.8324 951.489 72.8246 951.489C74.8168 951.489 76.0473 950.917 76.0473 949.98C76.0473 949.028 74.8168 948.457 72.8246 948.457ZM70.8764 941.777C70.8764 943.476 72.1801 945.087 74.0844 945.747L73.4838 946.669C72.0189 946.142 70.8837 945.051 70.3344 943.696C69.7631 945.227 68.5546 946.45 67.0092 947.036L66.4086 946.113C68.3422 945.41 69.7191 943.652 69.7191 941.792V941.308H66.7748V940.341H73.7914V941.308H70.8764V941.777ZM86.7371 943.667V944.604H84.1004V946.42C85.3162 946.369 86.532 946.281 87.66 946.157L87.7479 947.006C84.95 947.387 81.8445 947.475 79.3982 947.475L79.2225 946.538C80.365 946.53 81.6468 946.516 82.9578 946.464V944.604H80.409V940.239H86.6346V941.191H81.5662V943.667H86.7371ZM89.9012 939.404V949.145H88.7439V939.404H89.9012ZM90.326 951.167V952.133H81.449V948.471H82.5916V951.167H90.326ZM100.221 942.89C100.207 945.263 101.833 947.666 103.752 948.53L103.048 949.438C101.569 948.713 100.287 947.182 99.6646 945.322C99.0567 947.292 97.775 948.933 96.2516 949.702L95.5191 948.735C97.4527 947.841 99.0641 945.366 99.0787 942.89V940.517H100.221V942.89ZM106.33 939.389V952.441H105.172V939.389H106.33ZM118.587 939.389V943.359H120.55V944.326H118.587V948.925H117.43V939.389H118.587ZM115.071 940.4C115.071 943.754 112.669 946.245 108.919 947.417L108.421 946.494C111.541 945.52 113.577 943.659 113.826 941.367H108.963V940.4H115.071ZM119.188 951.167V952.133H110.428V947.958H111.57V951.167H119.188ZM132.382 939.389V952.412H131.269V939.389H132.382ZM129.76 939.667V951.752H128.662V945.424H126.992C126.867 947.958 125.79 949.541 124.179 949.541C122.48 949.541 121.381 947.783 121.381 945.014C121.381 942.246 122.48 940.488 124.179 940.488C125.761 940.488 126.83 942.019 126.977 944.472H128.662V939.667H129.76ZM124.179 941.572C123.124 941.572 122.451 942.89 122.465 945.014C122.451 947.124 123.124 948.457 124.179 948.442C125.234 948.457 125.908 947.124 125.908 945.014C125.908 942.89 125.234 941.572 124.179 941.572ZM147.946 939.375V944.516H149.851V945.498H147.946V952.412H146.804V939.375H147.946ZM141.355 940.766V941.718H139.187V948.017C139.831 948.002 140.622 947.944 141.487 947.753L141.604 948.72C140.373 948.984 139.392 948.999 138.615 948.999H138.044V940.766H141.355ZM145.573 940.766V941.718H143.244V948.032C144.262 948.017 145.075 947.951 145.998 947.724L146.115 948.691C144.973 948.969 144.05 948.999 142.732 948.999H142.102V940.766H145.573ZM160.541 939.389V944.575H162.723V945.542H160.541V952.441H159.398V939.389H160.541ZM156.893 940.605V945.263H152.147V948.31C154.564 948.31 156.249 948.229 158.226 947.856L158.343 948.808C156.293 949.189 154.549 949.277 152.045 949.292H151.004V944.311H155.751V941.557H150.975V940.605H156.893ZM175.958 940.62V951.225H174.699L168.956 942.963H168.854V951.225H167.536V940.62H168.81L174.552 948.896H174.655V940.62H175.958ZM189.417 946.289V947.226H184.114V949.775H182.971V947.226H177.493V946.289H189.417ZM188.084 951.167V952.133H179.016V948.574H180.159V951.167H188.084ZM180.232 939.814V941.484H186.678V939.814H187.82V945.014H179.09V939.814H180.232ZM180.232 944.077H186.678V942.363H180.232V944.077ZM204.732 939.404V948.955H203.575V943.959H200.894V943.007H203.575V939.404H204.732ZM205.098 951.167V952.133H196.368V948.09H197.525V951.167H205.098ZM198.462 942.084C198.462 943.769 199.766 945.41 201.671 946.054L201.07 946.977C199.598 946.45 198.462 945.351 197.906 944.003C197.342 945.505 196.141 946.706 194.595 947.285L193.995 946.347C195.914 945.673 197.305 943.959 197.305 942.084V941.411H194.361V940.458H201.378V941.411H198.462V942.084ZM218.659 947.124V948.061H213.225V952.412H212.097V948.061H206.735V947.124H218.659ZM209.401 939.931V941.733H215.964V939.931H217.121V945.542H208.259V939.931H209.401ZM209.401 944.604H215.964V942.67H209.401V944.604ZM230.36 939.389V952.441H229.217V945.263H226.463V944.311H229.217V939.389H230.36ZM226.244 940.59V941.542H221.322V944.252H225.672V945.19H221.322V948.339C223.717 948.339 225.24 948.259 227.035 947.944L227.166 948.896C225.277 949.204 223.68 949.292 221.161 949.292H220.164V940.59H226.244ZM237.955 940.62V951.225H236.637V940.62H237.955ZM249.114 945.922C249.114 949.277 247.136 951.372 244.426 951.372C241.702 951.372 239.739 949.277 239.739 945.922C239.739 942.568 241.702 940.473 244.426 940.473C247.136 940.473 249.114 942.568 249.114 945.922ZM247.839 945.922C247.839 943.183 246.345 941.704 244.426 941.704C242.507 941.704 241.013 943.183 241.013 945.922C241.013 948.662 242.507 950.141 244.426 950.141C246.345 950.141 247.839 948.662 247.839 945.922ZM249.872 941.792V940.62H257.87V941.792H254.545V951.225H253.212V941.792H249.872ZM263.199 942.89C263.199 945.19 264.722 947.548 266.568 948.457L265.865 949.379C264.429 948.625 263.228 947.087 262.657 945.278C262.071 947.204 260.84 948.845 259.375 949.628L258.643 948.706C260.547 947.768 262.056 945.263 262.071 942.89V940.517H263.199V942.89ZM268.912 939.389V944.677H271.094V945.673H268.912V952.412H267.769V939.389H268.912ZM283.512 944.897V945.834H278.137V947.124H281.989V950.039H274.255V951.357H282.385V952.265H273.112V949.174H280.861V948.017H273.083V947.124H276.994V945.834H271.647V944.897H283.512ZM281.974 939.829V943.798H273.185V939.829H281.974ZM274.328 940.751V942.875H280.832V940.751H274.328ZM295.198 939.389V952.441H294.041V939.389H295.198ZM288.27 940.4C290.203 940.415 291.595 942.172 291.595 944.941C291.595 947.709 290.203 949.467 288.27 949.467C286.321 949.467 284.945 947.709 284.945 944.941C284.945 942.172 286.321 940.415 288.27 940.4ZM288.27 941.425C286.966 941.44 286.058 942.817 286.058 944.941C286.058 947.065 286.966 948.442 288.27 948.442C289.573 948.442 290.482 947.065 290.482 944.941C290.482 942.817 289.573 941.44 288.27 941.425ZM311.686 939.404V949.028H310.528V945.512H307.159C306.559 946.281 305.592 946.743 304.479 946.743C302.53 946.743 301.095 945.395 301.095 943.491C301.095 941.586 302.53 940.239 304.479 940.224C305.584 940.231 306.529 940.686 307.145 941.44H310.528V939.404H311.686ZM312.052 951.167V952.133H303.321V948.017H304.479V951.167H312.052ZM304.479 941.25C303.146 941.264 302.193 942.187 302.193 943.491C302.193 944.794 303.146 945.717 304.479 945.717C305.753 945.717 306.734 944.794 306.734 943.491C306.734 942.187 305.753 941.264 304.479 941.25ZM307.672 942.392C307.782 942.729 307.848 943.095 307.848 943.491C307.848 943.872 307.782 944.23 307.672 944.56H310.528V942.392H307.672ZM325.583 945.834V946.757H313.704V945.834H319.079V944.311H315.212V940.004H324.104V940.927H316.34V943.374H324.192V944.311H320.193V945.834H325.583ZM319.636 947.709C322.434 947.709 324.104 948.559 324.119 950.053C324.104 951.562 322.434 952.397 319.636 952.412C316.824 952.397 315.139 951.562 315.139 950.053C315.139 948.559 316.824 947.709 319.636 947.709ZM319.636 948.618C317.541 948.618 316.296 949.16 316.311 950.053C316.296 950.961 317.541 951.489 319.636 951.489C321.702 951.489 322.961 950.961 322.961 950.053C322.961 949.16 321.702 948.618 319.636 948.618ZM337.269 939.404V946.889H336.112V939.404H337.269ZM326.561 945.615C327.667 945.615 328.956 945.607 330.297 945.556V944.165H327.748V940.048H333.93V941H328.905V943.242H334.047V944.165H331.454V945.512C332.662 945.461 333.886 945.358 335.028 945.205L335.101 946.04C332.245 946.523 329.081 946.567 326.737 946.567L326.561 945.615ZM329.828 947.475V948.867H336.141V947.475H337.269V952.236H328.685V947.475H329.828ZM329.828 951.298H336.141V949.76H329.828V951.298ZM350.069 939.389V952.412H348.926V939.389H350.069ZM341.309 940.678V948.061C343.294 948.054 345.352 947.893 347.534 947.431L347.695 948.413C345.381 948.896 343.316 949.057 341.236 949.057H340.181V940.678H341.309ZM362.223 939.389V944.545H364.406V945.512H362.223V952.441H361.081V939.389H362.223ZM358.796 940.664V941.616H353.859V948.208C356.217 948.208 357.887 948.098 359.821 947.739L359.967 948.735C357.931 949.101 356.217 949.174 353.742 949.174H352.716V940.664H358.796ZM366.336 951.313C365.823 951.313 365.384 950.888 365.398 950.361C365.384 949.848 365.823 949.423 366.336 949.423C366.849 949.423 367.273 949.848 367.273 950.361C367.273 950.888 366.849 951.313 366.336 951.313Z" fill="black" fill-opacity="0.8"/>
<circle cx="34.1115" cy="946.454" r="7.61151" stroke="black"/>
<rect x="23.1914" y="1013.66" width="355.618" height="55.1804" fill="#D9D9D9"/>
<path d="M193.906 1033.61V1039.04H196.058V1040.71H193.906V1048.26H191.85V1033.61H193.906ZM189.811 1034.96V1036.62H184.993V1043.03C187.113 1043 188.863 1042.91 190.807 1042.56L191.031 1044.28C188.767 1044.66 186.775 1044.73 184.19 1044.71H182.953V1034.96H189.811ZM203.089 1033.89C206.333 1033.89 208.388 1034.96 208.404 1036.75C208.388 1038.51 206.333 1039.59 203.089 1039.57C199.861 1039.59 197.757 1038.51 197.757 1036.75C197.757 1034.96 199.861 1033.89 203.089 1033.89ZM203.089 1035.48C201.049 1035.48 199.877 1035.91 199.893 1036.75C199.877 1037.57 201.049 1037.98 203.089 1037.98C205.112 1037.98 206.285 1037.57 206.285 1036.75C206.285 1035.91 205.112 1035.48 203.089 1035.48ZM208.164 1043.09V1048.07H197.965V1043.09H208.164ZM199.989 1044.71V1046.43H206.156V1044.71H199.989ZM209.753 1040.42V1042.06H196.424V1040.42H209.753Z" fill="black"/>
<path d="M33.6475 598.512V604.069H23.209V605.628H34.0781V607.72H20.5635V602.101H30.9609V600.624H20.502V598.512H33.6475ZM35.6162 609.114V611.206H28.3564V616.641H25.7314V611.206H18.5332V609.114H35.6162ZM52.3301 597.958V611.76H49.7051V597.958H52.3301ZM52.8223 614.18V616.271H39.8203V610.529H42.4658V614.18H52.8223ZM46.7725 599.353V601.444H40.3535V603.208H46.2188V605.218H40.3535V607.002C43.6348 607.002 45.7163 606.961 48.085 606.571L48.3516 608.581C45.6855 609.053 43.3271 609.094 39.3281 609.094H37.7285V599.353H46.7725ZM66.9727 601.629C66.9727 603.864 68.3467 606.141 71.4229 607.063L70.0898 609.114C67.998 608.458 66.5215 607.115 65.6807 605.423C64.8296 607.258 63.312 608.735 61.1279 609.463L59.7744 607.412C62.8711 606.407 64.3066 603.987 64.3066 601.629V601.362H60.4717V599.271H70.7256V601.362H66.9727V601.629ZM75.3193 597.958V611.452H72.6943V597.958H75.3193ZM75.8115 614.18V616.271H62.8096V610.222H65.4551V614.18H75.8115ZM93.8789 597.938V609.647H91.3975V604.685H89.9004V609.032H87.46V598.286H89.9004V602.552H91.3975V597.938H93.8789ZM86.9062 599.865V601.896H77.7393V599.865H81.041V598.102H83.6455V599.865H86.9062ZM82.3535 602.511C84.7324 602.511 86.4141 603.823 86.4346 605.771C86.4141 607.699 84.7324 609.012 82.3535 609.012C80.0156 609.012 78.3135 607.699 78.3135 605.771C78.3135 603.823 80.0156 602.511 82.3535 602.511ZM82.3535 604.397C81.3281 604.397 80.6514 604.91 80.6514 605.771C80.6514 606.633 81.3281 607.166 82.3535 607.146C83.3789 607.166 84.0557 606.633 84.0762 605.771C84.0557 604.91 83.3789 604.397 82.3535 604.397ZM87.501 609.812C91.541 609.812 93.9609 611.042 93.9814 613.216C93.9609 615.369 91.541 616.6 87.501 616.6C83.4814 616.6 81.041 615.369 81.041 613.216C81.041 611.042 83.4814 609.812 87.501 609.812ZM87.501 611.78C84.9785 611.78 83.6455 612.231 83.666 613.216C83.6455 614.159 84.9785 614.631 87.501 614.631C90.0439 614.631 91.3359 614.159 91.3359 613.216C91.3359 612.231 90.0439 611.78 87.501 611.78Z" fill="black"/>
<rect x="20" y="560" width="355.25" height="4.22717" fill="#D9D9D9"/>
<rect x="349.237" y="192.228" width="18.8232" height="18.8232" fill="#D9D9D9"/>
<mask id="path-48-inside-1_486_1558" fill="white">
<path d="M19.5 120.6H196.5V165.6H19.5V120.6Z"/>
</mask>
<path d="M19.5 120.6V123.6H196.5V120.6V117.6H19.5V120.6Z" fill="#B8B8B8" mask="url(#path-48-inside-1_486_1558)"/>
<path d="M92.9741 136.963V140.299H85.7553V141.707H93.2338V142.76H84.4565V139.301H91.6479V138.016H84.4155V136.963H92.9741ZM94.3002 143.922V144.961H89.3237V148.789H88.0248V144.961H83.0893V143.922H94.3002ZM105.081 136.525V145.604H103.782V136.525H105.081ZM105.45 147.449V148.502H97.0691V144.797H98.3816V147.449H105.45ZM101.512 137.469V138.508H96.9323V140.039H101.171V141.051H96.9323V142.623C99.3864 142.623 100.815 142.582 102.469 142.295L102.606 143.32C100.829 143.635 99.3112 143.676 96.6316 143.689H95.6198V137.469H101.512ZM120.093 136.512V142.814H118.794V139.67H116.21V138.617H118.794V136.512H120.093ZM120.093 143.389V146.438H113.38V147.572H120.517V148.611H112.109V145.453H118.808V144.414H112.081V143.389H120.093ZM114.187 137.975C114.187 139.533 115.308 140.982 117.154 141.57L116.47 142.582C115.123 142.117 114.105 141.194 113.572 140.025C113.032 141.338 111.979 142.37 110.536 142.869L109.839 141.83C111.753 141.215 112.888 139.697 112.902 137.975V136.908H114.187V137.975ZM131.913 136.512V143.799H130.614V140.695H128.331V139.629H130.614V136.512H131.913ZM127.811 144.141C130.381 144.141 131.954 144.988 131.954 146.451C131.954 147.914 130.381 148.748 127.811 148.762C125.241 148.748 123.655 147.914 123.669 146.451C123.655 144.988 125.241 144.141 127.811 144.141ZM127.811 145.152C126.02 145.152 124.954 145.617 124.954 146.451C124.954 147.271 126.02 147.75 127.811 147.736C129.602 147.75 130.669 147.271 130.669 146.451C130.669 145.617 129.602 145.152 127.811 145.152ZM126.088 138.672C126.088 140.23 127.196 141.734 129.042 142.363L128.372 143.389C126.998 142.91 125.986 141.933 125.46 140.723C124.919 142.097 123.846 143.197 122.383 143.73L121.7 142.691C123.6 142.035 124.762 140.381 124.762 138.686V138.412H122.11V137.359H128.713V138.412H126.088V138.672Z" fill="#1A1A1A"/>
<mask id="path-51-inside-2_486_1558" fill="white">
<path d="M204.5 120.6H381.5V165.6H204.5V120.6Z"/>
</mask>
<path d="M204.5 120.6V123.6H381.5V120.6V117.6H204.5V120.6Z" fill="#333333" mask="url(#path-51-inside-2_486_1558)"/>
<path d="M273.626 144.209C276.279 144.209 277.954 145.05 277.96 146.479C277.954 147.9 276.279 148.741 273.626 148.734C271.001 148.741 269.32 147.9 269.32 146.479C269.32 145.05 271.001 144.209 273.626 144.209ZM268.117 143.197V142.145H272.587V139.848H273.859V142.145H279.259V143.197H268.117ZM269.415 138.152V137.113H277.865V138.139C277.872 139.116 277.872 140.128 277.523 141.393L276.251 141.256C276.58 140.005 276.58 139.103 276.58 138.152H269.415ZM270.619 146.479C270.605 147.271 271.774 147.729 273.626 147.736C275.499 147.729 276.662 147.271 276.675 146.479C276.662 145.672 275.499 145.2 273.626 145.193C271.774 145.2 270.605 145.672 270.619 146.479ZM289.548 136.512V140.135H291.325V141.215H289.548V145.412H288.235V136.512H289.548ZM279.909 143.033C282.78 142.172 284.557 140.538 284.81 138.521H280.428V137.441H286.225C286.225 140.654 284.038 142.985 280.456 144.072L279.909 143.033ZM281.768 148.502V144.496H283.081V147.449H290.053V148.502H281.768ZM305.093 136.512V142.814H303.794V139.67H301.21V138.617H303.794V136.512H305.093ZM294.839 141.83C296.753 141.222 297.895 139.697 297.902 137.975V136.908H299.187V137.975C299.187 139.533 300.308 140.982 302.154 141.57L301.47 142.582C300.123 142.117 299.105 141.194 298.565 140.025C298.032 141.345 296.986 142.37 295.536 142.869L294.839 141.83ZM297.081 144.414V143.389H305.093V146.438H298.38V147.572H305.517V148.611H297.109V145.453H303.808V144.414H297.081ZM316.913 136.512V143.799H315.614V140.695H313.331V139.629H315.614V136.512H316.913ZM306.7 142.691C308.6 142.028 309.769 140.374 309.762 138.686V138.412H307.11V137.359H313.713V138.412H311.088V138.672C311.082 140.224 312.189 141.734 314.042 142.363L313.372 143.389C311.998 142.917 310.986 141.933 310.453 140.723C309.919 142.09 308.846 143.19 307.383 143.73L306.7 142.691ZM308.669 146.451C308.662 144.995 310.234 144.147 312.811 144.141C315.375 144.147 316.947 144.995 316.954 146.451C316.947 147.907 315.375 148.755 312.811 148.762C310.234 148.755 308.662 147.907 308.669 146.451ZM309.954 146.451C309.947 147.278 311.013 147.75 312.811 147.736C314.595 147.75 315.662 147.278 315.669 146.451C315.662 145.617 314.595 145.146 312.811 145.152C311.013 145.146 309.947 145.617 309.954 146.451Z" fill="#333333"/>
</g>
<defs>
<filter id="filter0_d_486_1558" x="15" y="730.386" width="377" height="135" filterUnits="userSpaceOnUse" color-interpolation-filters="sRGB">
<feFlood flood-opacity="0" result="BackgroundImageFix"/>
<feColorMatrix in="SourceAlpha" type="matrix" values="0 0 0 0 0 0 0 0 0 0 0 0 0 0 0 0 0 0 127 0" result="hardAlpha"/>
<feOffset dy="4"/>
<feGaussianBlur stdDeviation="4"/>
<feComposite in2="hardAlpha" operator="out"/>
<feColorMatrix type="matrix" values="0 0 0 0 0 0 0 0 0 0 0 0 0 0 0 0 0 0 0.04 0"/>
<feBlend mode="normal" in2="BackgroundImageFix" result="effect1_dropShadow_486_1558"/>
<feBlend mode="normal" in="SourceGraphic" in2="effect1_dropShadow_486_1558" result="shape"/>
</filter>
<clipPath id="clip0_486_1558">
<rect width="402" height="1098" fill="white"/>
</clipPath>
</defs>
</svg>
