<svg width="402" height="804" viewBox="0 0 402 804" fill="none" xmlns="http://www.w3.org/2000/svg">
<g clip-path="url(#clip0_486_1279)">
<rect width="402" height="804" fill="#F6F6F6"/>
<path d="M58.7666 26.1594C59.4085 26.1594 60.0173 26.2784 60.5928 26.5164C61.1683 26.7488 61.6774 27.114 62.1201 27.6121C62.5684 28.1046 62.9198 28.7382 63.1743 29.5129C63.4289 30.2821 63.5562 31.2091 63.5562 32.2937V32.3103C63.5562 33.655 63.3625 34.8061 62.9751 35.7634C62.5877 36.7208 62.0316 37.4568 61.3066 37.9714C60.5872 38.4806 59.7267 38.7351 58.7251 38.7351C57.9891 38.7351 57.325 38.6023 56.7329 38.3367C56.1463 38.0655 55.6593 37.6947 55.272 37.2244C54.8901 36.7485 54.6328 36.2061 54.5 35.5974L54.4834 35.5061H56.5835L56.6167 35.5891C56.7218 35.8658 56.8713 36.1093 57.0649 36.3196C57.2642 36.5299 57.5021 36.6931 57.7788 36.8093C58.061 36.92 58.3765 36.9753 58.7251 36.9753C59.356 36.9753 59.8706 36.79 60.269 36.4192C60.673 36.0429 60.9746 35.5421 61.1738 34.9167C61.3786 34.2859 61.4948 33.5886 61.5225 32.825C61.528 32.7419 61.5308 32.6617 61.5308 32.5842C61.5308 32.5012 61.5308 32.421 61.5308 32.3435L61.1572 30.343C61.1572 29.8892 61.0521 29.477 60.8418 29.1062C60.6315 28.7354 60.3465 28.4421 59.9868 28.2263C59.6326 28.0105 59.2314 27.9026 58.7832 27.9026C58.3516 27.9026 57.9559 28.0077 57.5962 28.218C57.2365 28.4283 56.9487 28.7161 56.7329 29.0813C56.5171 29.441 56.4092 29.845 56.4092 30.2932V30.3098C56.4092 30.7747 56.5116 31.1869 56.7163 31.5466C56.9211 31.9008 57.2005 32.1803 57.5547 32.385C57.9089 32.5898 58.3128 32.6921 58.7666 32.6921C59.2204 32.6921 59.6271 32.5925 59.9868 32.3933C60.3465 32.1941 60.6315 31.9174 60.8418 31.5632C61.0521 31.2091 61.1572 30.8079 61.1572 30.3596V30.343H61.6553V32.551H61.3647C61.2209 32.8665 61.0078 33.1597 60.7256 33.4309C60.4434 33.7021 60.0947 33.9207 59.6797 34.0867C59.2702 34.2527 58.7887 34.3357 58.2354 34.3357C57.4717 34.3357 56.7965 34.1641 56.21 33.821C55.6234 33.4779 55.1613 33.0076 54.8237 32.4099C54.4917 31.8123 54.3257 31.1371 54.3257 30.3845V30.3679C54.3257 29.5544 54.5138 28.8323 54.8901 28.2014C55.272 27.565 55.7977 27.067 56.4673 26.7073C57.1424 26.342 57.9089 26.1594 58.7666 26.1594ZM67.3247 36.8259C66.9484 36.8259 66.633 36.7014 66.3784 36.4524C66.1294 36.1978 66.0049 35.8879 66.0049 35.5227C66.0049 35.1519 66.1294 34.842 66.3784 34.593C66.633 34.3385 66.9484 34.2112 67.3247 34.2112C67.7065 34.2112 68.022 34.3385 68.271 34.593C68.52 34.842 68.6445 35.1519 68.6445 35.5227C68.6445 35.8879 68.52 36.1978 68.271 36.4524C68.022 36.7014 67.7065 36.8259 67.3247 36.8259ZM67.3247 30.6667C66.9484 30.6667 66.633 30.5422 66.3784 30.2932C66.1294 30.0387 66.0049 29.7288 66.0049 29.3635C66.0049 28.9928 66.1294 28.6829 66.3784 28.4338C66.633 28.1793 66.9484 28.052 67.3247 28.052C67.7065 28.052 68.022 28.1793 68.271 28.4338C68.52 28.6829 68.6445 28.9928 68.6445 29.3635C68.6445 29.7288 68.52 30.0387 68.271 30.2932C68.022 30.5422 67.7065 30.6667 67.3247 30.6667ZM76.9038 38.4363V36.137H71.0435V34.3855C71.3589 33.8487 71.6743 33.3092 71.9897 32.7668C72.3107 32.2245 72.6344 31.685 72.9609 31.1482C73.293 30.6059 73.6222 30.0719 73.9487 29.5461C74.2808 29.0149 74.61 28.4919 74.9365 27.9773C75.2686 27.4571 75.6006 26.9508 75.9326 26.4583H78.9458V34.3689H80.5645V36.137H78.9458V38.4363H76.9038ZM73.0356 34.4187H76.937V28.1682H76.8125C76.569 28.5445 76.3172 28.9319 76.0571 29.3303C75.8026 29.7288 75.5452 30.1355 75.2852 30.5505C75.0251 30.9656 74.7677 31.3834 74.5132 31.804C74.2586 32.219 74.0068 32.6368 73.7578 33.0574C73.5088 33.4724 73.2681 33.8847 73.0356 34.2942V34.4187ZM85.52 38.4363V28.5667H85.3706L82.3906 30.6667V28.658L85.52 26.4583H87.6533V38.4363H85.52Z" fill="#171717"/>
<path fill-rule="evenodd" clip-rule="evenodd" d="M309.865 27.4692C309.865 26.8362 309.387 26.323 308.798 26.323H307.732C307.143 26.323 306.665 26.8362 306.665 27.4692V37.4032C306.665 38.0362 307.143 38.5494 307.732 38.5494H308.798C309.387 38.5494 309.865 38.0362 309.865 37.4032V27.4692ZM302.431 28.7683H303.498C304.087 28.7683 304.564 29.2938 304.564 29.942V37.3757C304.564 38.0239 304.087 38.5494 303.498 38.5494H302.431C301.842 38.5494 301.364 38.0239 301.364 37.3757V29.942C301.364 29.2938 301.842 28.7683 302.431 28.7683ZM298.099 31.4173H297.032C296.443 31.4173 295.966 31.9495 295.966 32.606V37.3607C295.966 38.0172 296.443 38.5494 297.032 38.5494H298.099C298.688 38.5494 299.166 38.0172 299.166 37.3607V32.606C299.166 31.9495 298.688 31.4173 298.099 31.4173ZM292.798 33.8626H291.732C291.143 33.8626 290.665 34.3872 290.665 35.0343V37.3777C290.665 38.0248 291.143 38.5494 291.732 38.5494H292.798C293.387 38.5494 293.865 38.0248 293.865 37.3777V35.0343C293.865 34.3872 293.387 33.8626 292.798 33.8626Z" fill="#171717"/>
<path fill-rule="evenodd" clip-rule="evenodd" d="M325.437 28.7385C327.924 28.7386 330.316 29.6607 332.118 31.3142C332.254 31.4418 332.471 31.4402 332.605 31.3106L333.902 30.0471C333.97 29.9813 334.007 29.8923 334.007 29.7996C334.006 29.7069 333.968 29.6182 333.899 29.5533C329.168 25.1785 321.704 25.1785 316.973 29.5533C316.905 29.6182 316.866 29.7068 316.865 29.7995C316.865 29.8922 316.902 29.9813 316.97 30.0471L318.268 31.3106C318.401 31.4404 318.619 31.442 318.754 31.3142C320.557 29.6606 322.949 28.7385 325.437 28.7385ZM325.433 32.9588C326.791 32.9587 328.099 33.4704 329.106 34.3946C329.242 34.5257 329.456 34.5229 329.589 34.3882L330.876 33.0688C330.944 32.9996 330.981 32.9058 330.98 32.8082C330.979 32.7107 330.94 32.6176 330.871 32.5498C327.807 29.6589 323.062 29.6589 319.998 32.5498C319.929 32.6176 319.89 32.7107 319.889 32.8083C319.888 32.9059 319.926 32.9997 319.993 33.0688L321.28 34.3882C321.413 34.5229 321.627 34.5257 321.763 34.3946C322.769 33.471 324.077 32.9593 325.433 32.9588ZM327.958 35.7523C327.96 35.8577 327.922 35.9592 327.855 36.0331L325.679 38.4878C325.615 38.5599 325.528 38.6005 325.437 38.6005C325.346 38.6005 325.259 38.5599 325.195 38.4878L323.018 36.0331C322.951 35.9592 322.914 35.8576 322.916 35.7522C322.918 35.6469 322.959 35.5471 323.029 35.4765C324.419 34.1626 326.455 34.1626 327.845 35.4765C327.915 35.5472 327.956 35.647 327.958 35.7523Z" fill="#171717"/>
<rect opacity="0.35" x="341.507" y="26.4363" width="24" height="12" rx="3.8" stroke="#171717"/>
<path opacity="0.4" d="M367.007 30.7173V34.7928C367.812 34.4476 368.335 33.6446 368.335 32.755C368.335 31.8654 367.812 31.0625 367.007 30.7173Z" fill="#171717"/>
<rect x="343.007" y="27.9363" width="21" height="9" rx="2.5" fill="#171717"/>
<path d="M31.9219 237.363V241.598H23.9688V242.785H32.25V244.379H21.9531V240.098H29.875V238.973H21.9062V237.363H31.9219ZM33.4219 245.441V247.035H27.8906V251.176H25.8906V247.035H20.4062V245.441H33.4219ZM46.1562 236.941V247.457H44.1562V236.941H46.1562ZM46.5312 249.301V250.895H36.625V246.52H38.6406V249.301H46.5312ZM41.9219 238.004V239.598H37.0312V240.941H41.5V242.473H37.0312V243.832C39.5312 243.832 41.1172 243.801 42.9219 243.504L43.125 245.035C41.0938 245.395 39.2969 245.426 36.25 245.426H35.0312V238.004H41.9219ZM60.0625 236.926V245.254H58.0781V243.441H55.4219V244.473H48.6719V237.973H55.4219V239.004H58.0781V236.926H60.0625ZM50.6562 239.551V242.895H53.4688V239.551H50.6562ZM55.2031 245.629C58.2344 245.629 60.0938 246.645 60.1094 248.395C60.0938 250.145 58.2344 251.145 55.2031 251.145C52.1719 251.145 50.3125 250.145 50.3125 248.395C50.3125 246.645 52.1719 245.629 55.2031 245.629ZM55.2031 247.145C53.3125 247.145 52.2969 247.551 52.2969 248.395C52.2969 249.207 53.3125 249.629 55.2031 249.629C57.0938 249.629 58.125 249.207 58.125 248.395C58.125 247.551 57.0938 247.145 55.2031 247.145ZM55.4219 241.832H58.0781V240.582H55.4219V241.832Z" fill="black"/>
<g opacity="0.8">
<rect x="21.5" y="268.771" width="359" height="43" rx="7.5" fill="white"/>
<rect x="21.5" y="268.771" width="359" height="43" rx="7.5" stroke="#C9C9C9"/>
<path d="M49.7562 284.068C51.8812 284.068 53.4125 286.005 53.4281 289.052C53.4125 292.123 51.8812 294.052 49.7562 294.052C47.6078 294.052 46.0766 292.123 46.0844 289.052C46.0766 286.005 47.6078 284.068 49.7562 284.068ZM47.7562 289.052C47.7484 291.224 48.5687 292.482 49.7562 292.49C50.9516 292.482 51.7484 291.224 51.7562 289.052C51.7484 286.896 50.9516 285.63 49.7562 285.63C48.5687 285.63 47.7484 286.896 47.7562 289.052ZM55.2875 297.162V283.037H57.0219V288.458H59.1937V289.927H57.0219V297.162H55.2875ZM67.8425 284.537V285.912H64.8269C64.8347 287.482 66.0691 289.013 68.3269 289.615L67.5144 290.974C65.8581 290.521 64.6628 289.552 63.9987 288.302C63.3581 289.669 62.155 290.74 60.4675 291.24L59.655 289.912C61.8816 289.232 63.0847 287.599 63.0925 285.912H60.0769V284.537H63.0925V282.99H64.8425V284.537H67.8425ZM61.8581 296.99V291.99H71.2331V296.99H61.8581ZM63.5769 295.583H69.53V293.38H63.5769V295.583ZM69.4831 291.349V283.052H71.2331V291.349H69.4831ZM83.7494 284.974C83.7494 287.154 85.8822 289.349 88.8431 289.865L88.0619 291.318C85.6947 290.826 83.7572 289.388 82.8353 287.49C81.9056 289.373 79.9681 290.818 77.6087 291.318L76.8431 289.865C79.7572 289.333 81.8978 287.146 81.9056 284.974V283.927H83.7494V284.974ZM76.4525 295.365V293.927H89.3587V295.365H76.4525ZM101.445 290.443V291.818H91.5387V284.146H101.32V285.552H93.3044V287.255H100.992V288.615H93.3044V290.443H101.445ZM89.9606 295.443V294.021H102.867V295.443H89.9606ZM108.906 284.505V289.693H105.562V292.341C107.016 292.326 108.398 292.263 110 291.974L110.141 293.396C108.242 293.748 106.648 293.779 104.875 293.787H103.891V288.318H107.234V285.896H103.875V284.505H108.906ZM109.531 289.365V287.943H111.078V283.333H112.719V296.443H111.078V289.365H109.531ZM113.969 297.162V283.037H115.625V297.162H113.969ZM125.352 284.615V285.99H122.336C122.344 287.56 123.578 289.091 125.836 289.693L125.024 291.037C123.375 290.607 122.18 289.638 121.516 288.396C120.883 289.779 119.68 290.873 117.993 291.365L117.149 290.021C119.391 289.365 120.594 287.693 120.602 285.99H117.586V284.615H120.602V283.052H122.352V284.615H125.352ZM119.133 294.505C119.133 292.833 120.969 291.857 123.961 291.865C126.938 291.857 128.774 292.833 128.774 294.505C128.774 296.177 126.938 297.146 123.961 297.146C120.969 297.146 119.133 296.177 119.133 294.505ZM120.883 294.505C120.883 295.349 121.969 295.802 123.961 295.802C125.946 295.802 127.063 295.349 127.071 294.505C127.063 293.669 125.946 293.208 123.961 293.208C121.969 293.208 120.883 293.669 120.883 294.505ZM126.993 291.615V283.052H128.743V291.615H126.993ZM145.353 283.521V287.537H137.243V288.943H145.665V290.333H135.493V286.224H143.571V284.927H135.462V283.521H145.353ZM133.946 292.927V291.537H146.853V292.927H141.243V297.177H139.509V292.927H133.946ZM159.236 283.052V293.505H157.486V283.052H159.236ZM148.251 291.396V284.13H155.079V285.521H150.017V287.068H154.673V288.412H150.017V289.99C152.658 289.99 154.267 289.951 156.126 289.646L156.298 290.99C154.275 291.349 152.501 291.388 149.454 291.396H148.251ZM149.892 296.88V292.583H151.642V295.474H159.626V296.88H149.892Z" fill="#4A4A4A"/>
</g>
<path d="M34.1758 552.531V553.775H29.2812V557.48H27.7773V553.775H22.9102V552.531H34.1758ZM33.123 546.57V547.773H29.3086C29.4521 548.997 31.0586 550.275 33.5332 550.576L32.9727 551.779C30.9287 551.519 29.3428 550.617 28.543 549.427C27.7295 550.63 26.1299 551.519 24.0723 551.779L23.5254 550.576C25.9932 550.275 27.6133 549.017 27.7637 547.773H23.9492V546.57H27.7773V545.121H29.2812V546.57H33.123ZM44.6145 545.859V546.966C44.6145 548.122 44.6145 549.386 44.2864 551.136H45.9954V552.367H41.0872V557.48H39.5559V552.367H34.7298V551.136H42.7415C43.0833 549.455 43.097 548.197 43.097 547.089H36.0559V545.859H44.6145ZM56.2291 545.107V550.029H58.1295V551.287H56.2291V557.466H54.7252V545.107H56.2291ZM53.7681 547.007V548.224H46.481V547.007H49.4068V545.285H50.9244V547.007H53.7681ZM50.1724 549.031C51.9498 549.031 53.2759 550.234 53.2759 551.943C53.2759 553.652 51.9498 554.841 50.1724 554.841C48.3677 554.841 47.0416 553.652 47.0552 551.943C47.0416 550.234 48.3677 549.031 50.1724 549.031ZM50.1724 550.275C49.2017 550.275 48.5045 550.931 48.5045 551.943C48.5045 552.955 49.2017 553.597 50.1724 553.583C51.1158 553.597 51.813 552.955 51.8267 551.943C51.813 550.931 51.1158 550.275 50.1724 550.275ZM68.3768 548.607V549.81H59.8182V545.558H61.3221V548.607H68.3768ZM69.6483 551.246V552.449H58.3553V551.246H69.6483ZM68.4588 555.949V557.179H59.7088V553.542H61.2264V555.949H68.4588ZM83.0199 545.107V549.25H84.6879V550.507H83.0199V554.759H81.5023V545.107H83.0199ZM83.4574 555.99V557.22H74.8988V554.117H76.4164V555.99H83.4574ZM73.1215 552.285C74.0443 552.285 75.1176 552.278 76.2387 552.23V551.451C74.8646 551.287 73.9965 550.61 73.9965 549.619C73.9965 548.402 75.1859 547.691 76.977 547.705C78.7816 547.691 79.9574 548.402 79.9574 549.619C79.9574 550.603 79.1098 551.273 77.7562 551.451V552.162C78.809 552.107 79.8686 552.011 80.8598 551.861L80.9828 552.927C78.3715 553.419 75.4184 553.447 73.2855 553.474L73.1215 552.285ZM80.5316 546.187V547.294H73.4359V546.187H76.2387V545.066H77.7562V546.187H80.5316ZM76.977 548.73C76.0199 548.73 75.4457 549.044 75.4594 549.619C75.4457 550.152 76.0199 550.466 76.977 550.466C77.934 550.466 78.5082 550.152 78.5082 549.619C78.5082 549.044 77.934 548.73 76.977 548.73ZM95.4001 545.121V552.339H93.8825V550.972H90.943V549.742H93.8825V548.416H91.0661C90.28 550.384 88.4821 551.758 85.7887 552.503L85.1735 551.3C88.0651 550.514 89.6032 549.051 89.8493 547.212H85.8298V545.982H91.5036C91.5036 546.413 91.4694 546.823 91.3942 547.212H93.8825V545.121H95.4001ZM91.3122 552.476C93.8141 552.476 95.4821 553.419 95.4821 554.937C95.4821 556.455 93.8141 557.398 91.3122 557.398C88.7829 557.398 87.1149 556.455 87.1149 554.937C87.1149 553.419 88.7829 552.476 91.3122 552.476ZM91.3122 553.666C89.6442 553.666 88.6325 554.117 88.6325 554.937C88.6325 555.744 89.6442 556.195 91.3122 556.195C92.9391 556.195 93.9645 555.744 93.9645 554.937C93.9645 554.117 92.9391 553.666 91.3122 553.666ZM103.774 546.392V547.267C103.774 548.375 103.774 549.919 103.433 552.052L101.929 551.929C102.223 550.056 102.257 548.675 102.27 547.609H97.417V546.392H103.774ZM100.657 549.919V553.57C101.915 553.522 103.207 553.433 104.39 553.283L104.472 554.417C101.915 554.828 99.0849 554.882 96.9111 554.869L96.7607 553.652C97.4921 553.645 98.3056 553.638 99.1533 553.611V549.919H100.657ZM106.563 545.107V550.138H108.354V551.423H106.563V557.466H105.032V545.107H106.563ZM121.521 545.107V548.115H123.189V549.386H121.521V552.38H120.003V545.107H121.521ZM121.521 552.873V555.539H114.808V556.332H121.959V557.357H113.291V554.595H120.003V553.898H113.263V552.873H121.521ZM111.623 551.136C112.552 551.136 113.619 551.136 114.74 551.095V550.48C113.352 550.343 112.498 549.783 112.498 548.867C112.498 547.869 113.66 547.281 115.478 547.281C117.296 547.281 118.459 547.869 118.459 548.867C118.459 549.769 117.625 550.33 116.257 550.48V551.041C117.31 551 118.37 550.911 119.361 550.781L119.484 551.738C116.845 552.189 113.947 552.203 111.787 552.203L111.623 551.136ZM119.033 545.941V546.98H111.937V545.941H114.74V545.011H116.257V545.941H119.033ZM115.478 548.238C114.521 548.251 113.947 548.457 113.96 548.867C113.947 549.304 114.521 549.55 115.478 549.55C116.435 549.55 117.009 549.304 117.009 548.867C117.009 548.457 116.435 548.251 115.478 548.238ZM134.831 551.027V552.244H123.552V551.027H128.446V549.851H124.932V545.667H133.464V546.857H126.45V548.648H133.532V549.851H129.936V551.027H134.831ZM129.171 552.955C131.837 552.955 133.436 553.761 133.45 555.21C133.436 556.646 131.837 557.466 129.171 557.466C126.477 557.466 124.864 556.646 124.864 555.21C124.864 553.761 126.477 552.955 129.171 552.955ZM129.171 554.117C127.366 554.117 126.395 554.5 126.409 555.21C126.395 555.921 127.366 556.291 129.171 556.291C130.934 556.291 131.919 555.921 131.932 555.21C131.919 554.5 130.934 554.117 129.171 554.117Z" fill="#363636"/>
<g opacity="0.8">
<rect x="23.5" y="574.894" width="356" height="114" rx="7.5" fill="white"/>
<rect x="23.5" y="574.894" width="356" height="114" rx="7.5" stroke="#C9C9C9"/>
<path d="M50.0234 604.394V594.495H56.2304V595.794H51.5273V598.788H55.9023V600.073H51.5273V603.095H56.2851V604.394H50.0234ZM58.8488 594.495L61.2004 598.351H61.2824L63.6477 594.495H65.384L62.2941 599.444L65.4113 604.394H63.6477L61.2824 600.579H61.2004L58.8215 604.394H57.0715L60.2297 599.444L57.0852 594.495H58.8488ZM69.2329 600.62C69.2192 603.204 68.4878 605.344 67.2095 607.183H65.8696C66.813 605.822 67.7153 603.067 67.7153 600.62C67.7153 598.18 66.813 595.425 65.8696 594.071H67.2095C68.4878 595.903 69.2192 598.043 69.2329 600.62ZM83.9444 593.306V602.397H82.6455V599.021H80.7315V597.927H82.6455V596.642H80.7315V595.575H82.6455V593.306H83.9444ZM73.7452 599.567C74.2032 599.567 74.709 599.561 75.2354 599.561V595.315H74.087V594.263H80.5948V595.315H79.419V599.417C79.9385 599.376 80.4375 599.335 80.9229 599.28L80.9776 600.237C78.6329 600.606 75.8711 600.654 73.9092 600.661L73.7452 599.567ZM75.96 605.296V601.659H77.2725V604.243H84.2588V605.296H75.96ZM76.4932 599.54C77.0469 599.526 77.6075 599.506 78.1748 599.485V595.315H76.4932V599.54ZM95.1761 593.292V596.956H96.9534V598.05H95.1761V602.302H93.8773V593.292H95.1761ZM85.7425 597.188C85.7288 595.404 87.1507 594.146 88.9964 594.14C90.8489 594.146 92.2503 595.404 92.264 597.188C92.2503 598.973 90.8489 600.244 88.9964 600.237C87.1507 600.244 85.7288 598.973 85.7425 597.188ZM87.014 597.188C87.0003 598.33 87.8753 599.103 88.9964 599.103C90.1312 599.103 90.9857 598.33 90.9925 597.188C90.9857 596.047 90.1312 595.274 88.9964 595.274C87.8753 595.274 87.0003 596.047 87.014 597.188ZM87.4105 605.296V601.358H88.7093V604.243H95.6956V605.296H87.4105ZM110.134 593.319V597.257H111.911V598.337H110.134V602.479H108.835V593.319H110.134ZM100.522 595.794V594.741H103.53V593.306H104.829V594.741H107.823V595.794H100.522ZM101.192 598.692C101.185 597.291 102.395 596.375 104.173 596.382C105.93 596.375 107.14 597.291 107.14 598.692C107.14 600.08 105.93 600.982 104.173 600.989C102.395 600.982 101.185 600.08 101.192 598.692ZM102.368 605.296V601.755H103.667V604.243H110.653V605.296H102.368ZM102.45 598.692C102.436 599.492 103.134 599.984 104.173 599.978C105.212 599.984 105.909 599.492 105.923 598.692C105.909 597.886 105.212 597.387 104.173 597.38C103.134 597.387 102.436 597.886 102.45 598.692ZM126.664 599.718V600.757H121.796V603.013H120.511V600.757H115.453V599.718H126.664ZM116.847 605.296V601.946H118.132V604.243H125.419V605.296H116.847ZM116.929 598.638V593.688H118.214V595.179H123.888V593.688H125.187V598.638H116.929ZM118.214 597.599H123.888V596.149H118.214V597.599ZM131.305 593.866C133.151 593.859 134.484 594.892 134.491 596.409C134.484 597.913 133.151 598.952 131.305 598.938C129.467 598.952 128.14 597.913 128.147 596.409C128.14 594.892 129.467 593.859 131.305 593.866ZM127.272 599.896C129.535 599.896 132.659 599.848 135.339 599.444L135.434 600.415C134.313 600.627 133.158 600.757 132.03 600.832V605.173H130.731V600.907C129.542 600.962 128.421 600.969 127.45 600.976L127.272 599.896ZM129.405 596.409C129.391 597.298 130.191 597.886 131.305 597.872C132.447 597.886 133.247 597.298 133.247 596.409C133.247 595.514 132.447 594.912 131.305 594.919C130.191 594.912 129.391 595.514 129.405 596.409ZM136.186 605.556V593.319H137.471V605.556H136.186ZM149.291 593.306V605.556H147.979V593.306H149.291ZM139.229 602.274C142.482 600.723 144.075 598.515 144.328 595.657H139.816V594.618H145.641C145.641 598.207 144.116 601.311 139.912 603.327L139.229 602.274ZM161.466 593.306V605.556H160.222V593.306H161.466ZM151.062 598.597C151.062 595.944 152.101 594.283 153.7 594.29C155.191 594.283 156.196 595.698 156.346 597.995H157.734V593.538H158.978V604.954H157.734V599.048H156.353C156.237 601.44 155.218 602.924 153.7 602.917C152.101 602.924 151.062 601.256 151.062 598.597ZM152.265 598.597C152.265 600.545 152.819 601.693 153.7 601.687C154.603 601.693 155.163 600.545 155.163 598.597C155.163 596.642 154.603 595.5 153.7 595.507C152.819 595.5 152.265 596.642 152.265 598.597ZM167.161 596.423C167.161 598.665 168.419 600.9 170.292 601.741L169.499 602.78C168.111 602.083 167.058 600.702 166.518 599.027C165.978 600.791 164.912 602.281 163.497 603.013L162.676 601.96C164.577 601.051 165.841 598.692 165.848 596.423V594.331H167.161V596.423ZM168.938 598.433V597.38H171.672V593.306H172.958V605.583H171.672V598.433H168.938ZM184.107 593.306V598.187H186.008V599.267H184.107V605.542H182.808V593.306H184.107ZM174.578 602.274C177.647 600.743 179.315 598.528 179.582 595.671H175.193V594.591H180.908C180.894 598.132 179.336 601.297 175.303 603.286L174.578 602.274ZM196.597 593.306V605.583H195.312V600.688H192.605V602.548H186.862V594.249H188.175V597.38H191.333V594.249H192.605V596.313H195.312V593.306H196.597ZM188.175 601.481H191.333V598.405H188.175V601.481ZM192.605 599.608H195.312V597.366H192.605V599.608ZM209.401 599.444V600.497H204.547V602.876H203.235V600.497H198.19V599.444H209.401ZM199.42 596.081C199.413 594.55 201.15 593.6 203.782 593.593C206.413 593.6 208.136 594.55 208.129 596.081C208.136 597.605 206.413 598.556 203.782 598.556C201.15 598.556 199.413 597.605 199.42 596.081ZM199.598 605.296V601.7H200.897V604.229H208.157V605.296H199.598ZM200.815 596.081C200.801 596.963 201.991 597.503 203.782 597.503C205.579 597.503 206.755 596.963 206.762 596.081C206.755 595.172 205.579 594.639 203.782 594.632C201.991 594.639 200.801 595.172 200.815 596.081ZM219.382 595.042C219.382 597.038 221.508 598.925 223.866 599.349L223.265 600.429C221.303 600.005 219.505 598.72 218.712 596.997C217.905 598.713 216.107 599.991 214.145 600.429L213.571 599.349C215.895 598.911 218.008 597.038 218.015 595.042V594.112H219.382V595.042ZM213.161 603.942V602.862H224.372V603.942H213.161ZM234.92 599.827V600.866H226.389V594.317H234.797V595.37H227.701V597.024H234.537V598.05H227.701V599.827H234.92ZM224.981 604.011V602.944H236.192V604.011H224.981ZM241.544 594.618V598.979H238.441V601.495C239.774 601.488 241.045 601.434 242.556 601.167L242.666 602.233C240.963 602.541 239.569 602.575 238.031 602.589H237.183V597.94H240.3V595.671H237.169V594.618H241.544ZM242.119 598.692V597.64H243.568V593.579H244.798V604.927H243.568V598.692H242.119ZM246.07 605.556V593.306H247.314V605.556H246.07ZM253.173 595.849C253.166 597.318 254.376 598.672 256.276 599.198L255.661 600.21C254.225 599.807 253.132 598.918 252.564 597.77C252.017 599.048 250.924 600.046 249.454 600.511L248.811 599.485C250.705 598.918 251.881 597.435 251.874 595.849V595.78H249.153V594.741H251.874V593.306H253.186V594.741H255.88V595.78H253.173V595.849ZM250.493 603.272C250.493 601.844 252.072 601.017 254.663 601.017C257.233 601.017 258.812 601.844 258.819 603.272C258.812 604.715 257.233 605.535 254.663 605.528C252.072 605.535 250.493 604.715 250.493 603.272ZM251.805 603.272C251.805 604.072 252.845 604.523 254.663 604.53C256.474 604.523 257.541 604.072 257.534 603.272C257.541 602.493 256.474 602.035 254.663 602.042C252.845 602.035 251.805 602.493 251.805 603.272ZM257.479 600.784V593.319H258.778V600.784H257.479Z" fill="#B1B1B1"/>
</g>
<rect x="20" y="84.2925" width="113.5" height="4.43646" fill="black"/>
<rect x="139.5" y="84.2925" width="113.5" height="4.43646" fill="#D9D9D9"/>
<rect x="265.118" y="84.2925" width="113.5" height="4.43646" fill="#D9D9D9"/>
<path d="M27.0312 136.046C29.9141 136.046 32.0586 138.425 32.4922 142.257H36.1953V134.546H39.1484V155.921H36.1953V144.648H32.5156C32.1992 148.75 30.0078 151.257 27.0312 151.257C23.7969 151.257 21.4766 148.328 21.5 143.64C21.4766 139 23.7969 136.046 27.0312 136.046ZM27.0312 138.742C25.4375 138.742 24.3359 140.476 24.3594 143.64C24.3359 146.828 25.4375 148.539 27.0312 148.539C28.6484 148.539 29.7031 146.828 29.7031 143.64C29.7031 140.476 28.6484 138.742 27.0312 138.742ZM60.6172 153.109V155.5H45.2188V148.679H48.2188V153.109H60.6172ZM60.0547 134.57V149.992H57.125V142.585H54.1719V140.195H57.125V134.57H60.0547ZM47.8203 136.14V138.554H45.1484V144.578C46.0977 144.519 46.9766 144.425 47.9609 144.203L48.1953 146.617C46.5078 146.992 45.1719 146.968 43.2734 146.968H42.2422V136.14H47.8203ZM54.8516 136.14V138.554H51.8281V144.578C53.3398 144.542 54.2773 144.437 55.3438 144.179L55.6016 146.593C54.0781 146.945 52.8125 146.968 50.0234 146.968H48.8516V136.14H54.8516ZM85.4141 135.203V141.554H73.4844V143.335H85.9062V145.726H70.4609V139.304H82.3438V137.617H70.3906V135.203H85.4141ZM87.6641 147.32V149.71H79.3672V155.921H76.3672V149.71H68.1406V147.32H87.6641ZM106.766 134.57V150.343H103.766V134.57H106.766ZM107.328 153.109V155.5H92.4688V148.937H95.4922V153.109H107.328ZM100.414 136.164V138.554H93.0781V140.57H99.7812V142.867H93.0781V144.906C96.8281 144.906 99.207 144.859 101.914 144.414L102.219 146.71C99.1719 147.25 96.4766 147.296 91.9062 147.296H90.0781V136.164H100.414ZM119.375 134.851C124.273 134.851 127.109 136.14 127.133 138.484C127.109 140.851 124.273 142.14 119.375 142.14C114.453 142.14 111.594 140.851 111.594 138.484C111.594 136.14 114.453 134.851 119.375 134.851ZM119.375 137.031C116.234 137.031 114.711 137.546 114.734 138.484C114.711 139.539 116.234 139.937 119.375 139.937C122.539 139.937 124.039 139.539 124.039 138.484C124.039 137.546 122.539 137.031 119.375 137.031ZM129.102 143.148V145.515H109.648V143.148H129.102ZM126.734 146.757V152.195H114.852V153.484H127.297V155.734H111.922V150.109H123.781V148.937H111.898V146.757H126.734ZM29.4688 172.765C29.4688 175.32 31.0391 177.921 34.5547 178.976L33.0312 181.32C30.6406 180.57 28.9531 179.035 27.9922 177.101C27.0195 179.199 25.2852 180.886 22.7891 181.718L21.2422 179.375C24.7812 178.226 26.4219 175.46 26.4219 172.765V172.46H22.0391V170.07H33.7578V172.46H29.4688V172.765ZM39.0078 168.57V183.992H36.0078V168.57H39.0078ZM39.5703 187.109V189.5H24.7109V182.585H27.7344V187.109H39.5703ZM60.2188 168.546V181.929H57.3828V176.257H55.6719V181.226H52.8828V168.945H55.6719V173.82H57.3828V168.546H60.2188ZM52.25 170.75V173.07H41.7734V170.75H45.5469V168.734H48.5234V170.75H52.25ZM47.0469 173.773C49.7656 173.773 51.6875 175.273 51.7109 177.5C51.6875 179.703 49.7656 181.203 47.0469 181.203C44.375 181.203 42.4297 179.703 42.4297 177.5C42.4297 175.273 44.375 173.773 47.0469 173.773ZM47.0469 175.929C45.875 175.929 45.1016 176.515 45.1016 177.5C45.1016 178.484 45.875 179.093 47.0469 179.07C48.2188 179.093 48.9922 178.484 49.0156 177.5C48.9922 176.515 48.2188 175.929 47.0469 175.929ZM52.9297 182.117C57.5469 182.117 60.3125 183.523 60.3359 186.007C60.3125 188.468 57.5469 189.875 52.9297 189.875C48.3359 189.875 45.5469 188.468 45.5469 186.007C45.5469 183.523 48.3359 182.117 52.9297 182.117ZM52.9297 184.367C50.0469 184.367 48.5234 184.882 48.5469 186.007C48.5234 187.085 50.0469 187.625 52.9297 187.625C55.8359 187.625 57.3125 187.085 57.3125 186.007C57.3125 184.882 55.8359 184.367 52.9297 184.367ZM79.5547 168.5V173.14H82.4375V175.531H79.5547V180.054H76.5547V168.5H79.5547ZM79.5547 180.921V186.312H68.375V187.531H80.1641V189.734H65.4453V184.273H76.5781V183.078H65.3984V180.921H79.5547ZM75.2891 170.14V172.414H62.6328V170.14H67.4844V168.406H70.4609V170.14H75.2891ZM68.9609 172.929C72.1484 172.929 74.2109 174.289 74.2109 176.421C74.2109 178.601 72.1484 179.914 68.9609 179.914C65.7734 179.914 63.6641 178.601 63.6641 176.421C63.6641 174.289 65.7734 172.929 68.9609 172.929ZM68.9609 175.039C67.4844 175.039 66.5703 175.531 66.5938 176.421C66.5703 177.335 67.4844 177.781 68.9609 177.781C70.4375 177.781 71.375 177.335 71.375 176.421C71.375 175.531 70.4375 175.039 68.9609 175.039ZM107.398 168.546V189.875H104.539V168.546H107.398ZM103.039 168.851V188.89H100.227V182.281H97.7188C96.9219 184.355 95.5273 185.539 93.7344 185.539C90.9219 185.539 89.0938 182.585 89.0938 177.781C89.0938 173 90.9219 170.07 93.7344 170.07C95.5156 170.07 96.9102 171.23 97.7188 173.281H100.227V168.851H103.039ZM93.7344 172.882C92.4922 172.882 91.7891 174.523 91.8125 177.781C91.7891 181.062 92.4922 182.679 93.7344 182.656C94.9766 182.679 95.7266 181.062 95.7266 177.781C95.7266 174.523 94.9531 172.882 93.7344 172.882ZM98.3047 175.671C98.3984 176.328 98.4453 177.031 98.4453 177.781C98.4453 178.519 98.3984 179.222 98.3047 179.867H100.227V175.671H98.3047ZM127.625 168.546V181.203H124.648V176.164H121.32V173.75H124.648V168.546H127.625ZM120.336 181.671C124.883 181.695 127.672 183.195 127.695 185.796C127.672 188.375 124.883 189.898 120.336 189.898C115.789 189.898 113 188.375 113 185.796C113 183.195 115.789 181.695 120.336 181.671ZM120.336 183.968C117.5 183.968 115.977 184.554 115.977 185.796C115.977 187.015 117.5 187.625 120.336 187.625C123.172 187.625 124.719 187.015 124.719 185.796C124.719 184.554 123.172 183.968 120.336 183.968ZM121.953 169.835V172.226H117.711C117.781 174.71 119.281 177.218 122.609 178.32L121.133 180.664C118.777 179.902 117.16 178.355 116.234 176.421C115.285 178.601 113.586 180.359 111.055 181.226L109.508 178.859C113.012 177.687 114.582 174.898 114.664 172.226H110.375V169.835H121.953ZM148.25 168.546V189.921H145.227V168.546H148.25ZM136.672 170.046C139.883 170.046 142.273 173 142.273 177.64C142.273 182.328 139.883 185.257 136.672 185.257C133.391 185.257 131 182.328 131.023 177.64C131 173 133.391 170.046 136.672 170.046ZM136.672 172.742C135.008 172.742 133.906 174.476 133.906 177.64C133.906 180.828 135.008 182.539 136.672 182.539C138.289 182.539 139.391 180.828 139.391 177.64C139.391 174.476 138.289 172.742 136.672 172.742ZM168.992 168.57V184.132H165.992V168.57H168.992ZM169.555 187.109V189.5H154.695V182.632H157.719V187.109H169.555ZM159.312 171.804C159.289 174.617 160.789 177.382 164.305 178.507L162.781 180.851C160.379 180.054 158.715 178.46 157.766 176.421C156.816 178.613 155.105 180.371 152.609 181.226L151.062 178.859C154.648 177.664 156.195 174.687 156.195 171.804V169.742H159.312V171.804ZM188.703 168.546V176.726H191.727V179.187H188.703V189.828H185.703V168.546H188.703ZM183.008 170.726C182.984 177.101 180.5 182.632 173.328 186.148L171.641 183.851C176.691 181.32 179.398 177.921 179.961 173.164H172.859V170.726H183.008ZM212.141 184.929V187.39H192.617V184.929H196.977V179.703C195.324 178.718 194.328 177.207 194.328 175.32C194.328 171.875 197.703 169.578 202.344 169.578C206.961 169.578 210.359 171.875 210.383 175.32C210.371 177.16 209.398 178.66 207.805 179.656V184.929H212.141ZM202.344 171.945C199.297 171.945 197.281 173.164 197.281 175.32C197.281 177.406 199.297 178.695 202.344 178.695C205.367 178.695 207.406 177.406 207.43 175.32C207.406 173.164 205.367 171.945 202.344 171.945ZM199.93 184.929H204.781V180.781C204.02 180.933 203.199 181.015 202.344 181.015C201.488 181.015 200.68 180.945 199.93 180.781V184.929ZM217.086 182.375C217.109 179.468 217.883 178.554 219.289 177.687C220.297 177.031 221.07 176.304 221.07 175.226C221.07 174.054 220.156 173.281 219.031 173.281C217.93 173.281 216.922 174.007 216.875 175.39H213.547C213.617 172.085 216.055 170.515 219.055 170.515C222.312 170.515 224.633 172.226 224.633 175.109C224.633 177.031 223.648 178.273 222.102 179.187C220.789 179.984 220.203 180.734 220.18 182.375V182.632H217.086V182.375ZM218.703 187.929C217.602 187.929 216.711 187.039 216.734 185.96C216.711 184.882 217.602 184.015 218.703 184.015C219.734 184.015 220.648 184.882 220.648 185.96C220.648 187.039 219.734 187.929 218.703 187.929Z" fill="black"/>
<path d="M33.2402 376.363V380.656H29.7949V381.955H34.6758V383.186H23.4102V381.955H28.2637V380.656H24.832V376.363H33.2402ZM26.3086 377.553V379.453H31.7363V377.553H26.3086ZM33.2949 384.225V388.217H31.7773V385.428H24.6543V384.225H33.2949ZM39.7688 377.977C39.7688 379.48 40.7669 380.998 42.6809 381.641L41.9153 382.816C40.5345 382.365 39.5569 381.429 39.0169 380.273C38.4768 381.565 37.4446 382.604 35.9817 383.09L35.2024 381.887C37.1712 381.244 38.2239 379.604 38.2239 377.99V377.826H35.6536V376.609H42.3255V377.826H39.7688V377.977ZM45.5794 383.814V388.217H44.0618V385.031H37.1575V383.814H45.5794ZM45.5794 375.857V383.227H44.0618V380.164H41.9563V378.92H44.0618V375.857H45.5794Z" fill="#363636"/>
<rect x="256.476" y="366.5" width="122.024" height="32" rx="9.5" fill="white"/>
<rect x="256.476" y="366.5" width="122.024" height="32" rx="9.5" stroke="#D3D3D3"/>
<path d="M317.177 381.969V383.186H312.406V385.455H310.861V383.186H305.885V381.969H317.177ZM315.933 386.727V387.971H307.265V384.307H308.797V386.727H315.933ZM311.517 376.131C314.183 376.131 315.947 377.102 315.947 378.66C315.947 380.219 314.183 381.176 311.517 381.176C308.851 381.176 307.088 380.219 307.088 378.66C307.088 377.102 308.851 376.131 311.517 376.131ZM311.517 377.334C309.822 377.334 308.715 377.812 308.728 378.66C308.715 379.48 309.822 379.959 311.517 379.959C313.226 379.959 314.32 379.48 314.32 378.66C314.32 377.812 313.226 377.334 311.517 377.334ZM328.997 381.777V382.994H317.718V381.777H322.612V380.602H319.099V376.418H327.63V377.607H320.616V379.398H327.698V380.602H324.103V381.777H328.997ZM323.337 383.705C326.003 383.705 327.603 384.512 327.616 385.961C327.603 387.396 326.003 388.217 323.337 388.217C320.644 388.217 319.03 387.396 319.03 385.961C319.03 384.512 320.644 383.705 323.337 383.705ZM323.337 384.867C321.532 384.867 320.562 385.25 320.575 385.961C320.562 386.672 321.532 387.041 323.337 387.041C325.101 387.041 326.085 386.672 326.099 385.961C326.085 385.25 325.101 384.867 323.337 384.867Z" fill="#3C3C3C"/>
<path d="M31.9219 338.656V342.891H23.9688V344.078H32.25V345.672H21.9531V341.391H29.875V340.266H21.9062V338.656H31.9219ZM33.4219 346.734V348.328H27.8906V352.469H25.8906V348.328H20.4062V346.734H33.4219ZM46.1562 338.234V348.75H44.1562V338.234H46.1562ZM46.5312 350.594V352.188H36.625V347.812H38.6406V350.594H46.5312ZM41.9219 339.297V340.891H37.0312V342.234H41.5V343.766H37.0312V345.125C39.5312 345.125 41.1172 345.094 42.9219 344.797L43.125 346.328C41.0938 346.688 39.2969 346.719 36.25 346.719H35.0312V339.297H41.9219ZM56.9531 340.453C56.9531 342.172 57.9531 343.828 60.2031 344.531L59.1406 346.078C57.6328 345.578 56.5781 344.609 55.9688 343.359C55.3516 344.797 54.25 345.922 52.625 346.469L51.5469 344.906C53.9219 344.109 54.9375 342.219 54.9531 340.266V338.969H56.9531V340.453ZM63.0469 338.219V341.547H64.9688V343.203H63.0469V346.656H61.0469V338.219H63.0469ZM58.3906 346.938C61.3281 346.938 63.1875 347.953 63.1875 349.688C63.1875 351.438 61.3281 352.438 58.3906 352.438C55.3906 352.438 53.5156 351.438 53.5156 349.688C53.5156 347.953 55.3906 346.938 58.3906 346.938ZM58.3906 348.5C56.5156 348.5 55.5 348.906 55.5156 349.688C55.5 350.5 56.5156 350.875 58.3906 350.875C60.2344 350.875 61.2188 350.5 61.2188 349.688C61.2188 348.906 60.2344 348.5 58.3906 348.5ZM70.1562 341.797C70.1562 344.094 70.7969 346.469 72.7344 347.719L71.6562 349.266C70.4297 348.523 69.6484 347.305 69.2031 345.844C68.6875 347.453 67.8359 348.797 66.5469 349.578L65.3281 348.109C67.4375 346.797 68.2188 344.297 68.2188 341.891V339.438H70.1562V341.797ZM77.9219 338.219V352.438H76.0156V338.219H77.9219ZM74.9375 338.422V351.781H73.0781V344.641H71.2344V343.016H73.0781V338.422H74.9375Z" fill="black"/>
<rect x="23" y="716.569" width="359" height="55.1804" fill="#D9D9D9"/>
<path d="M193.715 736.522V741.95H195.867V743.621H193.715V751.169H191.659V736.522H193.715ZM189.619 737.871V739.525H184.801V745.933C186.921 745.909 188.672 745.813 190.615 745.468L190.84 747.186C188.576 747.571 186.584 747.636 183.998 747.62H182.762V737.871H189.619ZM202.897 736.795C206.141 736.795 208.197 737.871 208.213 739.654C208.197 741.42 206.141 742.496 202.897 742.48C199.669 742.496 197.565 741.42 197.565 739.654C197.565 737.871 199.669 736.795 202.897 736.795ZM202.897 738.385C200.858 738.385 199.685 738.819 199.701 739.654C199.685 740.473 200.858 740.89 202.897 740.89C204.921 740.89 206.093 740.473 206.093 739.654C206.093 738.819 204.921 738.385 202.897 738.385ZM207.972 745.997V750.976H197.774V745.997H207.972ZM199.798 747.62V749.338H205.965V747.62H199.798ZM209.562 743.332V744.97H196.232V743.332H209.562Z" fill="black"/>
<path d="M32.9219 428.832V433.066H24.9688V434.253H33.25V435.847H22.9531V431.566H30.875V430.441H22.9062V428.832H32.9219ZM34.4219 436.91V438.503H28.8906V442.644H26.8906V438.503H21.4062V436.91H34.4219ZM47.1562 428.41V438.925H45.1562V428.41H47.1562ZM47.5312 440.769V442.363H37.625V437.988H39.6406V440.769H47.5312ZM42.9219 429.472V431.066H38.0312V432.41H42.5V433.941H38.0312V435.3C40.5312 435.3 42.1172 435.269 43.9219 434.972L44.125 436.503C42.0938 436.863 40.2969 436.894 37.25 436.894H36.0312V429.472H42.9219ZM58.3125 431.207C58.3125 432.91 59.3594 434.644 61.7031 435.347L60.6875 436.91C59.0938 436.41 57.9688 435.386 57.3281 434.097C56.6797 435.496 55.5234 436.621 53.8594 437.175L52.8281 435.613C55.1875 434.847 56.2812 433.003 56.2812 431.207V431.003H53.3594V429.41H61.1719V431.003H58.3125V431.207ZM64.6719 428.41V438.691H62.6719V428.41H64.6719ZM65.0469 440.769V442.363H55.1406V437.753H57.1562V440.769H65.0469ZM78.8125 428.394V437.316H76.9219V433.535H75.7812V436.847H73.9219V428.66H75.7812V431.91H76.9219V428.394H78.8125ZM73.5 429.863V431.41H66.5156V429.863H69.0312V428.519H71.0156V429.863H73.5ZM70.0312 431.878C71.8438 431.878 73.125 432.878 73.1406 434.363C73.125 435.832 71.8438 436.832 70.0312 436.832C68.25 436.832 66.9531 435.832 66.9531 434.363C66.9531 432.878 68.25 431.878 70.0312 431.878ZM70.0312 433.316C69.25 433.316 68.7344 433.707 68.7344 434.363C68.7344 435.019 69.25 435.425 70.0312 435.41C70.8125 435.425 71.3281 435.019 71.3438 434.363C71.3281 433.707 70.8125 433.316 70.0312 433.316ZM73.9531 437.441C77.0312 437.441 78.875 438.378 78.8906 440.035C78.875 441.675 77.0312 442.613 73.9531 442.613C70.8906 442.613 69.0312 441.675 69.0312 440.035C69.0312 438.378 70.8906 437.441 73.9531 437.441ZM73.9531 438.941C72.0312 438.941 71.0156 439.285 71.0312 440.035C71.0156 440.753 72.0312 441.113 73.9531 441.113C75.8906 441.113 76.875 440.753 76.875 440.035C76.875 439.285 75.8906 438.941 73.9531 438.941ZM95.4844 428.394V433.066H97.2969V434.707H95.4844V439.488H93.4844V428.394H95.4844ZM95.9688 440.769V442.363H85.9531V438.753H87.9531V440.769H95.9688ZM83.9531 436.566C84.9766 436.566 86.1641 436.558 87.4062 436.519V435.691C85.8594 435.48 84.8906 434.707 84.9062 433.597C84.8906 432.191 86.2812 431.363 88.3906 431.378C90.4844 431.363 91.8594 432.191 91.875 433.597C91.8594 434.699 90.9141 435.472 89.3906 435.691V436.425C90.5625 436.355 91.7344 436.246 92.8281 436.082L92.9688 437.457C89.9688 438.035 86.6094 438.066 84.1562 438.097L83.9531 436.566ZM92.4688 429.55V430.972H84.3281V429.55H87.4062V428.347H89.3906V429.55H92.4688ZM88.3906 432.707C87.375 432.707 86.7969 432.988 86.8125 433.597C86.7969 434.128 87.375 434.425 88.3906 434.425C89.3906 434.425 89.9531 434.128 89.9688 433.597C89.9531 432.988 89.3906 432.707 88.3906 432.707ZM109.922 428.41V436.597H107.938V435.207H104.734V433.613H107.938V432.253H104.875C103.992 434.503 101.977 436.05 98.8438 436.91L98.0625 435.332C101.336 434.472 102.938 432.91 103.219 430.957H98.8281V429.363H105.391C105.391 429.824 105.359 430.269 105.297 430.691H107.938V428.41H109.922ZM105.188 436.769C108.078 436.769 110.016 437.878 110.031 439.644C110.016 441.425 108.078 442.55 105.188 442.55C102.266 442.55 100.312 441.425 100.328 439.644C100.312 437.878 102.266 436.769 105.188 436.769ZM105.188 438.332C103.391 438.316 102.312 438.769 102.312 439.644C102.312 440.519 103.391 440.972 105.188 440.972C106.953 440.972 108.031 440.519 108.031 439.644C108.031 438.769 106.953 438.316 105.188 438.332Z" fill="black"/>
<g filter="url(#filter0_d_486_1279)">
<rect x="21" y="457.324" width="362" height="73" rx="10" fill="white" shape-rendering="crispEdges"/>
<rect x="21.5" y="457.824" width="361" height="72" rx="9.5" stroke="#E5E5E5" shape-rendering="crispEdges"/>
<path d="M50.377 487.605V491.119H43.2812V492.35H50.6504V493.566H41.75V489.971H48.8184V488.836H41.7227V487.605H50.377ZM51.6895 494.619V495.836H46.7812V499.555H45.2637V495.836H40.3965V494.619H51.6895ZM62.5247 487.195V496.342H60.9934V487.195H62.5247ZM62.8665 498.064V499.295H54.3489V495.535H55.8802V498.064H62.8665ZM58.888 488.139V489.355H54.4583V490.709H58.5325V491.885H54.4583V493.266C56.7688 493.266 58.177 493.231 59.804 492.965L59.9544 494.141C58.177 494.455 56.6321 494.496 53.9661 494.496H52.9134V488.139H58.888ZM73.8384 487.182V491.324H75.5064V492.582H73.8384V496.834H72.3209V487.182H73.8384ZM74.2759 498.064V499.295H65.7173V496.191H67.2349V498.064H74.2759ZM63.94 494.359C64.8629 494.359 65.9361 494.353 67.0572 494.305V493.525C65.6832 493.361 64.815 492.685 64.815 491.693C64.815 490.477 66.0045 489.766 67.7955 489.779C69.6002 489.766 70.7759 490.477 70.7759 491.693C70.7759 492.678 69.9283 493.348 68.5748 493.525V494.236C69.6275 494.182 70.6871 494.086 71.6783 493.936L71.8013 495.002C69.19 495.494 66.2369 495.521 64.1041 495.549L63.94 494.359ZM71.3502 488.262V489.369H64.2545V488.262H67.0572V487.141H68.5748V488.262H71.3502ZM67.7955 490.805C66.8384 490.805 66.2642 491.119 66.2779 491.693C66.2642 492.227 66.8384 492.541 67.7955 492.541C68.7525 492.541 69.3267 492.227 69.3267 491.693C69.3267 491.119 68.7525 490.805 67.7955 490.805ZM86.2186 487.195V494.414H84.701V493.047H81.7616V491.816H84.701V490.49H81.8846C81.0985 492.459 79.3006 493.833 76.6073 494.578L75.992 493.375C78.8836 492.589 80.4217 491.126 80.6678 489.287H76.6483V488.057H82.3221C82.3221 488.487 82.2879 488.897 82.2127 489.287H84.701V487.195H86.2186ZM82.1307 494.551C84.6327 494.551 86.3006 495.494 86.3006 497.012C86.3006 498.529 84.6327 499.473 82.1307 499.473C79.6014 499.473 77.9334 498.529 77.9334 497.012C77.9334 495.494 79.6014 494.551 82.1307 494.551ZM82.1307 495.74C80.4627 495.74 79.451 496.191 79.451 497.012C79.451 497.818 80.4627 498.27 82.1307 498.27C83.7577 498.27 84.783 497.818 84.783 497.012C84.783 496.191 83.7577 495.74 82.1307 495.74Z" fill="black"/>
<path d="M231.701 495.191C234.543 495.191 236.33 496.085 236.345 497.623C236.33 499.146 234.543 500.055 231.701 500.04C228.889 500.055 227.087 499.146 227.087 497.623C227.087 496.085 228.889 495.191 231.701 495.191ZM231.701 496.246C229.709 496.246 228.464 496.759 228.479 497.623C228.464 498.473 229.709 498.971 231.701 498.971C233.708 498.971 234.953 498.473 234.968 497.623C234.953 496.759 233.708 496.246 231.701 496.246ZM236.242 487.589V488.688C236.242 489.742 236.242 490.826 235.876 492.174L234.514 492.027C234.865 490.687 234.865 489.72 234.865 488.702H227.189V487.589H236.242ZM237.736 492.979V494.107H225.798V492.979H230.588V490.519H231.95V492.979H237.736ZM248.76 486.944V490.826H250.664V491.983H248.76V496.48H247.353V486.944H248.76ZM245.2 487.94C245.2 491.383 242.856 493.888 239.018 495.045L238.432 493.932C241.501 493.009 243.413 491.266 243.691 489.098H238.989V487.94H245.2ZM249.302 498.663V499.791H240.425V495.499H241.831V498.663H249.302Z" fill="black"/>
<rect x="262.8" y="477.824" width="100.7" height="32" rx="9.5" fill="#F4F4F4"/>
<rect x="262.8" y="477.824" width="100.7" height="32" rx="9.5" stroke="#D3D3D3"/>
<path d="M278.466 494.756C281.05 494.756 282.663 495.645 282.663 497.162C282.663 498.707 281.05 499.596 278.466 499.596C275.827 499.596 274.2 498.707 274.2 497.162C274.2 495.645 275.827 494.756 278.466 494.756ZM278.466 496.109C276.825 496.109 275.937 496.451 275.95 497.162C275.937 497.873 276.825 498.242 278.466 498.242C280.079 498.242 280.94 497.873 280.94 497.162C280.94 496.451 280.079 496.109 278.466 496.109ZM282.54 487.141V490.025H284.222V491.488H282.54V494.482H280.79V487.141H282.54ZM274.774 487.92V489.492H277.317V487.92H279.067V493.771H273.038V487.92H274.774ZM274.774 492.391H277.317V490.846H274.774V492.391ZM292.391 488.426V498.324H290.326V490.381H290.272L288.002 491.803V489.984L290.449 488.426H292.391Z" fill="#3C3C3C"/>
<path d="M341 490.824L347.259 496.824L354 490.824" stroke="#B1B1B1" stroke-width="2"/>
</g>
</g>
<defs>
<filter id="filter0_d_486_1279" x="13" y="453.324" width="378" height="89" filterUnits="userSpaceOnUse" color-interpolation-filters="sRGB">
<feFlood flood-opacity="0" result="BackgroundImageFix"/>
<feColorMatrix in="SourceAlpha" type="matrix" values="0 0 0 0 0 0 0 0 0 0 0 0 0 0 0 0 0 0 127 0" result="hardAlpha"/>
<feOffset dy="4"/>
<feGaussianBlur stdDeviation="4"/>
<feComposite in2="hardAlpha" operator="out"/>
<feColorMatrix type="matrix" values="0 0 0 0 0 0 0 0 0 0 0 0 0 0 0 0 0 0 0.04 0"/>
<feBlend mode="normal" in2="BackgroundImageFix" result="effect1_dropShadow_486_1279"/>
<feBlend mode="normal" in="SourceGraphic" in2="effect1_dropShadow_486_1279" result="shape"/>
</filter>
<clipPath id="clip0_486_1279">
<rect width="402" height="804" fill="white"/>
</clipPath>
</defs>
</svg>
