<svg width="402" height="810" viewBox="0 0 402 810" fill="none" xmlns="http://www.w3.org/2000/svg">
<g clip-path="url(#clip0_486_1314)">
<rect width="402" height="810" fill="#F6F6F6"/>
<rect x="172.5" y="237.708" width="207" height="47.7121" rx="10" fill="#D9D9D9"/>
<path d="M58.2666 26.1594C58.9085 26.1594 59.5173 26.2784 60.0928 26.5164C60.6683 26.7488 61.1774 27.114 61.6201 27.6121C62.0684 28.1046 62.4198 28.7382 62.6743 29.5129C62.9289 30.2821 63.0562 31.2091 63.0562 32.2937V32.3103C63.0562 33.655 62.8625 34.8061 62.4751 35.7634C62.0877 36.7208 61.5316 37.4568 60.8066 37.9714C60.0872 38.4806 59.2267 38.7351 58.2251 38.7351C57.4891 38.7351 56.825 38.6023 56.2329 38.3367C55.6463 38.0655 55.1593 37.6947 54.772 37.2244C54.3901 36.7485 54.1328 36.2061 54 35.5974L53.9834 35.5061H56.0835L56.1167 35.5891C56.2218 35.8658 56.3713 36.1093 56.5649 36.3196C56.7642 36.5299 57.0021 36.6931 57.2788 36.8093C57.561 36.92 57.8765 36.9753 58.2251 36.9753C58.856 36.9753 59.3706 36.79 59.769 36.4192C60.173 36.0429 60.4746 35.5421 60.6738 34.9167C60.8786 34.2859 60.9948 33.5886 61.0225 32.825C61.028 32.7419 61.0308 32.6617 61.0308 32.5842C61.0308 32.5012 61.0308 32.421 61.0308 32.3435L60.6572 30.343C60.6572 29.8892 60.5521 29.477 60.3418 29.1062C60.1315 28.7354 59.8465 28.4421 59.4868 28.2263C59.1326 28.0105 58.7314 27.9026 58.2832 27.9026C57.8516 27.9026 57.4559 28.0077 57.0962 28.218C56.7365 28.4283 56.4487 28.7161 56.2329 29.0813C56.0171 29.441 55.9092 29.845 55.9092 30.2932V30.3098C55.9092 30.7747 56.0116 31.1869 56.2163 31.5466C56.4211 31.9008 56.7005 32.1803 57.0547 32.385C57.4089 32.5898 57.8128 32.6921 58.2666 32.6921C58.7204 32.6921 59.1271 32.5925 59.4868 32.3933C59.8465 32.1941 60.1315 31.9174 60.3418 31.5632C60.5521 31.2091 60.6572 30.8079 60.6572 30.3596V30.343H61.1553V32.551H60.8647C60.7209 32.8665 60.5078 33.1597 60.2256 33.4309C59.9434 33.7021 59.5947 33.9207 59.1797 34.0867C58.7702 34.2527 58.2887 34.3357 57.7354 34.3357C56.9717 34.3357 56.2965 34.1641 55.71 33.821C55.1234 33.4779 54.6613 33.0076 54.3237 32.4099C53.9917 31.8123 53.8257 31.1371 53.8257 30.3845V30.3679C53.8257 29.5544 54.0138 28.8323 54.3901 28.2014C54.772 27.565 55.2977 27.067 55.9673 26.7073C56.6424 26.342 57.4089 26.1594 58.2666 26.1594ZM66.8247 36.8259C66.4484 36.8259 66.133 36.7014 65.8784 36.4524C65.6294 36.1978 65.5049 35.8879 65.5049 35.5227C65.5049 35.1519 65.6294 34.842 65.8784 34.593C66.133 34.3385 66.4484 34.2112 66.8247 34.2112C67.2065 34.2112 67.522 34.3385 67.771 34.593C68.02 34.842 68.1445 35.1519 68.1445 35.5227C68.1445 35.8879 68.02 36.1978 67.771 36.4524C67.522 36.7014 67.2065 36.8259 66.8247 36.8259ZM66.8247 30.6667C66.4484 30.6667 66.133 30.5422 65.8784 30.2932C65.6294 30.0387 65.5049 29.7288 65.5049 29.3635C65.5049 28.9928 65.6294 28.6829 65.8784 28.4338C66.133 28.1793 66.4484 28.052 66.8247 28.052C67.2065 28.052 67.522 28.1793 67.771 28.4338C68.02 28.6829 68.1445 28.9928 68.1445 29.3635C68.1445 29.7288 68.02 30.0387 67.771 30.2932C67.522 30.5422 67.2065 30.6667 66.8247 30.6667ZM76.4038 38.4363V36.137H70.5435V34.3855C70.8589 33.8487 71.1743 33.3092 71.4897 32.7668C71.8107 32.2245 72.1344 31.685 72.4609 31.1482C72.793 30.6059 73.1222 30.0719 73.4487 29.5461C73.7808 29.0149 74.11 28.4919 74.4365 27.9773C74.7686 27.4571 75.1006 26.9508 75.4326 26.4583H78.4458V34.3689H80.0645V36.137H78.4458V38.4363H76.4038ZM72.5356 34.4187H76.437V28.1682H76.3125C76.069 28.5445 75.8172 28.9319 75.5571 29.3303C75.3026 29.7288 75.0452 30.1355 74.7852 30.5505C74.5251 30.9656 74.2677 31.3834 74.0132 31.804C73.7586 32.219 73.5068 32.6368 73.2578 33.0574C73.0088 33.4724 72.7681 33.8847 72.5356 34.2942V34.4187ZM85.02 38.4363V28.5667H84.8706L81.8906 30.6667V28.658L85.02 26.4583H87.1533V38.4363H85.02Z" fill="#171717"/>
<path fill-rule="evenodd" clip-rule="evenodd" d="M309.365 27.4692C309.365 26.8362 308.887 26.323 308.298 26.323H307.232C306.643 26.323 306.165 26.8362 306.165 27.4692V37.4032C306.165 38.0362 306.643 38.5494 307.232 38.5494H308.298C308.887 38.5494 309.365 38.0362 309.365 37.4032V27.4692ZM301.931 28.7683H302.998C303.587 28.7683 304.064 29.2938 304.064 29.942V37.3757C304.064 38.0239 303.587 38.5494 302.998 38.5494H301.931C301.342 38.5494 300.864 38.0239 300.864 37.3757V29.942C300.864 29.2938 301.342 28.7683 301.931 28.7683ZM297.599 31.4173H296.532C295.943 31.4173 295.466 31.9495 295.466 32.606V37.3607C295.466 38.0172 295.943 38.5494 296.532 38.5494H297.599C298.188 38.5494 298.666 38.0172 298.666 37.3607V32.606C298.666 31.9495 298.188 31.4173 297.599 31.4173ZM292.298 33.8626H291.232C290.643 33.8626 290.165 34.3872 290.165 35.0343V37.3777C290.165 38.0248 290.643 38.5494 291.232 38.5494H292.298C292.887 38.5494 293.365 38.0248 293.365 37.3777V35.0343C293.365 34.3872 292.887 33.8626 292.298 33.8626Z" fill="#171717"/>
<path fill-rule="evenodd" clip-rule="evenodd" d="M324.937 28.7385C327.424 28.7386 329.816 29.6607 331.618 31.3142C331.754 31.4418 331.971 31.4402 332.105 31.3106L333.402 30.0471C333.47 29.9813 333.507 29.8923 333.507 29.7996C333.506 29.7069 333.468 29.6182 333.399 29.5533C328.668 25.1785 321.204 25.1785 316.473 29.5533C316.405 29.6182 316.366 29.7068 316.365 29.7995C316.365 29.8922 316.402 29.9813 316.47 30.0471L317.768 31.3106C317.901 31.4404 318.119 31.442 318.254 31.3142C320.057 29.6606 322.449 28.7385 324.937 28.7385ZM324.933 32.9588C326.291 32.9587 327.599 33.4704 328.606 34.3946C328.742 34.5257 328.956 34.5229 329.089 34.3882L330.376 33.0688C330.444 32.9996 330.481 32.9058 330.48 32.8082C330.479 32.7107 330.44 32.6176 330.371 32.5498C327.307 29.6589 322.562 29.6589 319.498 32.5498C319.429 32.6176 319.39 32.7107 319.389 32.8083C319.388 32.9059 319.426 32.9997 319.493 33.0688L320.78 34.3882C320.913 34.5229 321.127 34.5257 321.263 34.3946C322.269 33.471 323.577 32.9593 324.933 32.9588ZM327.458 35.7523C327.46 35.8577 327.422 35.9592 327.355 36.0331L325.179 38.4878C325.115 38.5599 325.028 38.6005 324.937 38.6005C324.846 38.6005 324.759 38.5599 324.695 38.4878L322.518 36.0331C322.451 35.9592 322.414 35.8576 322.416 35.7522C322.418 35.6469 322.459 35.5471 322.529 35.4765C323.919 34.1626 325.955 34.1626 327.345 35.4765C327.415 35.5472 327.456 35.647 327.458 35.7523Z" fill="#171717"/>
<rect opacity="0.35" x="341.007" y="26.4363" width="24" height="12" rx="3.8" stroke="#171717"/>
<path opacity="0.4" d="M366.507 30.7173V34.7928C367.312 34.4476 367.835 33.6446 367.835 32.755C367.835 31.8654 367.312 31.0625 366.507 30.7173Z" fill="#171717"/>
<rect x="342.507" y="27.9363" width="21" height="9" rx="2.5" fill="#171717"/>
<path d="M31.4219 245.22V249.455H23.4688V250.642H31.75V252.236H21.4531V247.955H29.375V246.83H21.4062V245.22H31.4219ZM32.9219 253.298V254.892H27.3906V259.033H25.3906V254.892H19.9062V253.298H32.9219ZM45.6562 244.798V255.314H43.6562V244.798H45.6562ZM46.0312 257.158V258.751H36.125V254.376H38.1406V257.158H46.0312ZM41.4219 245.861V247.455H36.5312V248.798H41V250.33H36.5312V251.689C39.0312 251.689 40.6172 251.658 42.4219 251.361L42.625 252.892C40.5938 253.251 38.7969 253.283 35.75 253.283H34.5312V245.861H41.4219ZM56.6406 246.72C56.625 248.626 57.6094 250.376 59.8906 251.08L58.8438 252.642C57.3125 252.111 56.2734 251.126 55.6875 249.845C55.0469 251.33 53.8984 252.501 52.1875 253.08L51.1406 251.486C53.5781 250.705 54.6094 248.798 54.625 246.814V245.517H56.6406V246.72ZM63.25 244.783V253.111H61.2656V249.017H58.5938V247.392H61.2656V244.783H63.25ZM58.3906 253.486C61.4219 253.486 63.2812 254.501 63.2969 256.251C63.2812 258.001 61.4219 259.001 58.3906 259.001C55.3594 259.001 53.5 258.001 53.5 256.251C53.5 254.501 55.3594 253.486 58.3906 253.486ZM58.3906 255.033C56.5 255.033 55.4844 255.439 55.4844 256.251C55.4844 257.033 56.5 257.455 58.3906 257.455C60.2812 257.455 61.3125 257.033 61.3125 256.251C61.3125 255.439 60.2812 255.033 58.3906 255.033ZM72.7031 245.673C72.7031 246.166 72.6641 246.642 72.5938 247.095H75.0938V244.798H77.0781V253.236H75.0938V251.689H71.8594V250.095H75.0938V248.658H72.125C71.1641 250.861 69.0625 252.408 66 253.22L65.25 251.626C68.4531 250.806 70.25 249.212 70.5625 247.283H66.0625V245.673H72.7031ZM77.0781 253.814V258.97H75.0938V255.376H67.3125V253.814H77.0781Z" fill="black"/>
<rect x="178.951" y="244.064" width="98.7841" height="35" rx="9.5" fill="#F4F4F4"/>
<rect x="178.951" y="244.064" width="98.7841" height="35" rx="9.5" stroke="#D3D3D3"/>
<path d="M213.25 254.298V264.783H211.265V261.314H208.64V262.533H201.875V255.22H203.875V257.408H206.671V255.22H208.64V256.673H211.265V254.298H213.25ZM213.546 266.658V268.251H203.781V263.736H205.796V266.658H213.546ZM203.875 260.97H206.671V258.923H203.875V260.97ZM208.64 259.72H211.265V258.283H208.64V259.72ZM227.933 261.001V262.564H214.933V261.001H220.465V259.783H216.511V254.908H226.371V256.455H218.496V258.22H226.449V259.783H222.418V261.001H227.933ZM221.402 263.283C224.48 263.283 226.34 264.22 226.355 265.908C226.34 267.564 224.48 268.517 221.402 268.517C218.293 268.517 216.418 267.564 216.418 265.908C216.418 264.22 218.293 263.283 221.402 263.283ZM221.402 264.798C219.433 264.798 218.433 265.173 218.449 265.908C218.433 266.658 219.433 267.001 221.402 267.001C223.324 267.001 224.34 266.658 224.355 265.908C224.34 265.173 223.324 264.798 221.402 264.798ZM239.82 254.283V259.736H241.836V261.376H239.82V268.47H237.82V254.283H239.82ZM236.023 255.736C236.008 259.986 234.351 263.673 229.57 266.017L228.445 264.486C231.812 262.798 233.617 260.533 233.992 257.361H229.258V255.736H236.023ZM253.801 257.845V259.439H243.91V254.501H245.895V257.845H253.801ZM255.27 260.658V262.283H242.27V260.658H255.27ZM248.738 263.173C251.816 263.189 253.676 264.142 253.691 265.814C253.676 267.501 251.816 268.455 248.738 268.455C245.629 268.455 243.754 267.501 243.754 265.814C243.754 264.142 245.629 263.189 248.738 263.173ZM248.738 264.72C246.77 264.736 245.77 265.064 245.785 265.814C245.77 266.548 246.77 266.939 248.738 266.939C250.66 266.939 251.676 266.548 251.691 265.814C251.676 265.064 250.66 264.736 248.738 264.72Z" fill="#3C3C3C"/>
<path opacity="0.5" d="M309.547 254.501V255.486H315.25V254.501H317.234V259.267H307.578V254.501H309.547ZM309.547 257.783H315.25V256.923H309.547V257.783ZM318.891 260.001V261.611H313.391V262.501H317.312V266.095H309.391V266.908H317.688V268.408H307.438V264.72H315.344V263.955H307.422V262.501H311.391V261.611H305.922V260.001H318.891ZM330.809 254.283V259.736H332.824V261.376H330.809V268.47H328.809V254.283H330.809ZM327.012 255.736C326.996 259.986 325.34 263.673 320.559 266.017L319.434 264.486C322.801 262.798 324.606 260.533 324.981 257.361H320.246V255.736H327.012ZM344.789 257.845V259.439H334.899V254.501H336.883V257.845H344.789ZM346.258 260.658V262.283H333.258V260.658H346.258ZM339.727 263.173C342.805 263.189 344.664 264.142 344.68 265.814C344.664 267.501 342.805 268.455 339.727 268.455C336.618 268.455 334.743 267.501 334.743 265.814C334.743 264.142 336.618 263.189 339.727 263.173ZM339.727 264.72C337.758 264.736 336.758 265.064 336.774 265.814C336.758 266.548 337.758 266.939 339.727 266.939C341.649 266.939 342.664 266.548 342.68 265.814C342.664 265.064 341.649 264.736 339.727 264.72Z" fill="#3C3C3C"/>
<path d="M31.4219 307.507V311.742H23.4688V312.929H31.75V314.523H21.4531V310.242H29.375V309.117H21.4062V307.507H31.4219ZM32.9219 315.585V317.179H27.3906V321.32H25.3906V317.179H19.9062V315.585H32.9219ZM45.6562 307.085V317.601H43.6562V307.085H45.6562ZM46.0312 319.445V321.039H36.125V316.664H38.1406V319.445H46.0312ZM41.4219 308.148V309.742H36.5312V311.085H41V312.617H36.5312V313.976C39.0312 313.976 40.6172 313.945 42.4219 313.648L42.625 315.179C40.5938 315.539 38.7969 315.57 35.75 315.57H34.5312V308.148H41.4219ZM56.7812 310.945C56.7812 313.242 57.9531 315.695 60.3438 316.695L59.2656 318.257C57.5859 317.546 56.4297 316.132 55.7969 314.398C55.1484 316.281 53.9688 317.843 52.2969 318.617L51.1562 317.039C53.5156 315.992 54.7344 313.351 54.7344 310.945V310.07H51.7188V308.445H59.75V310.07H56.7812V310.945ZM63.1719 307.07V321.289H61.1562V307.07H63.1719ZM78.0625 313.992V315.585H65.0938V313.992H70.5781V312.101H72.5469V313.992H78.0625ZM72.5781 307.773C72.5781 309.429 74.1719 311.007 77.375 311.398L76.6094 312.945C74.2109 312.585 72.4453 311.578 71.5469 310.148C70.6328 311.578 68.8672 312.593 66.4688 312.945L65.7656 311.398C68.9062 311.007 70.5469 309.382 70.5469 307.773V307.304H72.5781V307.773ZM76.4844 316.585V321.289H74.5V318.132H66.5312V316.585H76.4844ZM88.1406 310.289C88.1406 312.898 89.3281 315.523 91.7344 316.539L90.5625 318.132C88.9375 317.398 87.8125 315.984 87.1719 314.226C86.5234 316.14 85.3594 317.687 83.625 318.476L82.4219 316.82C84.9062 315.773 86.1094 313.054 86.125 310.289V308.164H88.1406V310.289ZM94.5156 307.07V321.32H92.5V307.07H94.5156ZM107.719 307.07V311.054H109.641V312.695H107.719V317.257H105.703V307.07H107.719ZM103.844 308.132C103.844 311.976 101.438 314.664 97.1719 315.867L96.3438 314.289C99.5234 313.398 101.328 311.75 101.656 309.757H96.9688V308.132H103.844ZM108.203 319.445V321.039H98.4688V316.21H100.484V319.445H108.203Z" fill="black"/>
<g filter="url(#filter0_d_486_1314)">
<rect x="19.5" y="336" width="361" height="119" rx="10" fill="white" shape-rendering="crispEdges"/>
<rect x="20" y="336.5" width="360" height="118" rx="9.5" stroke="#E5E5E5" shape-rendering="crispEdges"/>
<path d="M45.877 371.281V374.795H38.7812V376.025H46.1504V377.242H37.25V373.646H44.3184V372.512H37.2227V371.281H45.877ZM47.1895 378.295V379.512H42.2812V383.23H40.7637V379.512H35.8965V378.295H47.1895ZM58.0247 370.871V380.018H56.4934V370.871H58.0247ZM58.3665 381.74V382.971H49.8489V379.211H51.3802V381.74H58.3665ZM54.388 371.814V373.031H49.9583V374.385H54.0325V375.561H49.9583V376.941C52.2688 376.941 53.677 376.907 55.304 376.641L55.4544 377.816C53.677 378.131 52.1321 378.172 49.4661 378.172H48.4134V371.814H54.388ZM67.2537 374.371C67.2537 376.395 68.4432 378.527 70.4393 379.361L69.6053 380.564C68.1424 379.936 67.076 378.637 66.5155 377.064C65.9412 378.76 64.8612 380.182 63.412 380.865L62.537 379.676C64.492 378.773 65.7088 376.477 65.7088 374.371V373.332H62.9881V372.074H69.9608V373.332H67.2537V374.371ZM72.8729 370.857V383.217H71.3416V370.857H72.8729ZM85.6769 376.928V378.158H74.4113V376.928H79.2784V375.205H80.7823V376.928H85.6769ZM80.796 371.527C80.796 373.031 82.4503 374.398 85.0343 374.727L84.4464 375.916C82.4161 375.602 80.8029 374.686 80.0167 373.387C79.2238 374.686 77.6105 375.602 75.5734 375.916L75.0265 374.727C77.5695 374.398 79.2511 373.004 79.2511 371.527V371.062H80.796V371.527ZM84.296 379.143V383.217H82.7784V380.332H75.6554V379.143H84.296ZM93.9489 373.824C93.9352 376.094 95.1247 378.363 97.1345 379.225L96.2321 380.441C94.8102 379.785 93.7643 378.473 93.197 376.859C92.6296 378.603 91.57 380.024 90.0661 380.729L89.1364 379.457C91.2009 378.568 92.404 376.203 92.404 373.824V371.855H93.9489V373.824ZM99.5544 370.857V383.23H98.0231V370.857H99.5544ZM110.841 370.857V374.412H112.563V375.684H110.841V379.771H109.296V370.857H110.841ZM107.478 371.801C107.478 375.082 105.345 377.42 101.681 378.486L101.052 377.283C103.875 376.47 105.557 374.932 105.823 373.045H101.571V371.801H107.478ZM111.306 381.74V382.971H102.897V378.855H104.442V381.74H111.306Z" fill="black"/>
<rect x="143.5" y="359" width="90" height="37" rx="4" fill="#F1F1F1"/>
<path d="M160.84 372.102V382H159.049V373.838H158.994L156.684 375.314V373.688L159.131 372.102H160.84ZM162.966 382V380.715L166.466 377.338C167.464 376.34 167.984 375.752 167.984 374.918C167.984 374.002 167.259 373.414 166.288 373.414C165.263 373.414 164.607 374.057 164.62 375.055H162.925C162.911 373.182 164.32 371.965 166.302 371.965C168.325 371.965 169.693 373.168 169.693 374.836C169.693 375.957 169.146 376.859 167.204 378.691L165.441 380.441V380.51H169.843V382H162.966ZM175.258 380.77C174.67 380.77 174.191 380.291 174.191 379.703C174.191 379.129 174.67 378.65 175.258 378.65C175.818 378.65 176.31 379.129 176.31 379.703C176.31 380.291 175.818 380.77 175.258 380.77ZM175.258 375.465C174.67 375.465 174.191 374.986 174.191 374.398C174.191 373.824 174.67 373.346 175.258 373.346C175.818 373.346 176.31 373.824 176.31 374.398C176.31 374.986 175.818 375.465 175.258 375.465ZM184.391 382.137C182.012 382.137 180.59 380.291 180.59 377.051C180.59 373.824 182.012 371.965 184.391 371.965C186.756 371.965 188.192 373.824 188.192 377.051C188.192 380.291 186.77 382.137 184.391 382.137ZM184.391 380.646C185.635 380.646 186.401 379.43 186.401 377.051C186.401 374.686 185.621 373.441 184.391 373.441C183.161 373.441 182.381 374.686 182.381 377.051C182.381 379.43 183.147 380.646 184.391 380.646ZM193.052 382.137C190.674 382.137 189.252 380.291 189.252 377.051C189.252 373.824 190.674 371.965 193.052 371.965C195.418 371.965 196.853 373.824 196.853 377.051C196.853 380.291 195.431 382.137 193.052 382.137ZM193.052 380.646C194.297 380.646 195.062 379.43 195.062 377.051C195.062 374.686 194.283 373.441 193.052 373.441C191.822 373.441 191.043 374.686 191.043 377.051C191.043 379.43 191.808 380.646 193.052 380.646ZM201.201 382V372.102H204.92C207.19 372.102 208.406 373.482 208.406 375.383C208.406 377.283 207.176 378.65 204.893 378.65H202.979V382H201.201ZM202.979 377.188H204.647C205.987 377.188 206.588 376.436 206.588 375.383C206.588 374.316 205.987 373.592 204.647 373.592H202.979V377.188ZM209.562 372.102H211.75L214.689 379.293H214.812L217.751 372.102H219.939V382H218.23V375.191H218.134L215.386 381.973H214.115L211.367 375.164H211.285V382H209.562V372.102Z" fill="black"/>
<path d="M249.812 377.721C250.264 377.229 250.838 376.969 251.467 376.969C252.561 376.969 253.504 377.734 254.598 377.734C255.227 377.734 255.773 377.475 256.211 376.955V378.445C255.76 378.951 255.186 379.197 254.557 379.197C253.463 379.197 252.506 378.432 251.426 378.432C250.797 378.432 250.25 378.691 249.812 379.211V377.721Z" fill="black"/>
<rect x="273.5" y="359" width="90" height="37" rx="4" fill="#F1F1F1"/>
<path d="M290.34 372.102V382H288.549V373.838H288.494L286.184 375.314V373.688L288.631 372.102H290.34ZM296.062 382.137C293.861 382.137 292.302 380.961 292.302 379.348C292.302 378.09 293.232 377.064 294.421 376.873V376.818C293.382 376.6 292.671 375.697 292.671 374.617C292.671 373.086 294.107 371.965 296.062 371.965C298.003 371.965 299.439 373.086 299.439 374.617C299.439 375.697 298.714 376.6 297.689 376.818V376.873C298.878 377.064 299.822 378.09 299.822 379.348C299.822 380.961 298.249 382.137 296.062 382.137ZM296.062 380.729C297.224 380.729 297.99 380.1 297.99 379.184C297.99 378.254 297.169 377.57 296.062 377.57C294.941 377.57 294.12 378.254 294.134 379.184C294.12 380.1 294.886 380.729 296.062 380.729ZM296.062 376.244C297.019 376.244 297.702 375.643 297.702 374.781C297.702 373.947 297.032 373.359 296.062 373.359C295.077 373.359 294.407 373.934 294.407 374.781C294.407 375.643 295.091 376.244 296.062 376.244ZM305.154 380.77C304.566 380.77 304.088 380.291 304.088 379.703C304.088 379.129 304.566 378.65 305.154 378.65C305.715 378.65 306.207 379.129 306.207 379.703C306.207 380.291 305.715 380.77 305.154 380.77ZM305.154 375.465C304.566 375.465 304.088 374.986 304.088 374.398C304.088 373.824 304.566 373.346 305.154 373.346C305.715 373.346 306.207 373.824 306.207 374.398C306.207 374.986 305.715 375.465 305.154 375.465ZM314.288 382.137C311.909 382.137 310.487 380.291 310.487 377.051C310.487 373.824 311.909 371.965 314.288 371.965C316.653 371.965 318.088 373.824 318.088 377.051C318.088 380.291 316.666 382.137 314.288 382.137ZM314.288 380.646C315.532 380.646 316.297 379.43 316.297 377.051C316.297 374.686 315.518 373.441 314.288 373.441C313.057 373.441 312.278 374.686 312.278 377.051C312.278 379.43 313.043 380.646 314.288 380.646ZM322.949 382.137C320.57 382.137 319.148 380.291 319.148 377.051C319.148 373.824 320.57 371.965 322.949 371.965C325.314 371.965 326.75 373.824 326.75 377.051C326.75 380.291 325.328 382.137 322.949 382.137ZM322.949 380.646C324.193 380.646 324.959 379.43 324.959 377.051C324.959 374.686 324.179 373.441 322.949 373.441C321.718 373.441 320.939 374.686 320.939 377.051C320.939 379.43 321.705 380.646 322.949 380.646ZM331.098 382V372.102H334.817C337.086 372.102 338.303 373.482 338.303 375.383C338.303 377.283 337.072 378.65 334.789 378.65H332.875V382H331.098ZM332.875 377.188H334.543C335.883 377.188 336.485 376.436 336.485 375.383C336.485 374.316 335.883 373.592 334.543 373.592H332.875V377.188ZM339.459 372.102H341.646L344.585 379.293H344.709L347.648 372.102H349.835V382H348.126V375.191H348.031L345.283 381.973H344.011L341.263 375.164H341.181V382H339.459V372.102Z" fill="black"/>
<path d="M45.7402 411.83V415.33H47.4219V416.766H45.7402V420.99H43.9902V411.83H45.7402ZM46.1914 422.645V424.039H37.6738V420.047H39.4102V422.645H46.1914ZM37.9746 412.705V414.51H40.5176V412.705H42.2676V419.008H36.2383V412.705H37.9746ZM37.9746 417.641H40.5176V415.85H37.9746V417.641ZM59.3164 417.982V419.391H47.9688V417.982H52.7539V416.93H49.418V412.117H51.1406V413.252H56.1309V412.117H57.8672V416.93H54.5039V417.982H59.3164ZM57.9355 420.238V424.258H56.1992V421.619H49.2266V420.238H57.9355ZM51.1406 415.562H56.1309V414.537H51.1406V415.562Z" fill="black"/>
<path d="M299.146 411.83V419.035H297.396V418.639H295.14V417.586H297.396V411.83H299.146ZM288.604 416.205C291.011 416.219 293.991 416.191 296.657 415.945L296.739 417.025C295.639 417.176 294.511 417.271 293.403 417.326V419.062H291.681V417.395C290.662 417.422 289.685 417.422 288.782 417.408L288.604 416.205ZM299.146 419.404V422.316H292.146V422.959H299.433V424.176H290.437V421.195H297.409V420.58H290.382V419.404H299.146ZM292.61 411.994C294.456 411.994 295.728 412.746 295.741 413.867C295.728 415.029 294.456 415.727 292.61 415.727C290.71 415.727 289.452 415.029 289.452 413.867C289.452 412.746 290.71 411.994 292.61 411.994ZM292.61 413.143C291.667 413.129 291.093 413.416 291.106 413.867C291.093 414.332 291.667 414.592 292.61 414.592C293.526 414.592 294.114 414.332 294.114 413.867C294.114 413.416 293.526 413.129 292.61 413.143ZM303.189 421.988L302.013 425.885H300.564L301.248 421.988H303.189ZM317.032 411.816V416.875H318.659V418.324H317.032V424.258H315.268V411.816H317.032ZM306.929 420.744C307.838 420.744 308.897 420.744 310.005 420.717V419.65C308.679 419.391 307.817 418.55 307.831 417.395C307.817 416 309.075 415.057 310.893 415.057C312.671 415.057 313.942 416 313.956 417.395C313.942 418.55 313.067 419.397 311.755 419.65V420.648C312.739 420.601 313.73 420.519 314.653 420.389L314.763 421.66C312.11 422.152 309.267 422.166 307.161 422.166L306.929 420.744ZM314.558 413.197V414.564H307.175V413.197H310.005V411.885H311.755V413.197H314.558ZM310.893 416.383C310.046 416.383 309.472 416.752 309.485 417.395C309.472 418.051 310.046 418.406 310.893 418.406C311.714 418.406 312.274 418.051 312.274 417.395C312.274 416.752 311.714 416.383 310.893 416.383ZM321.664 421.988L320.488 425.885H319.039L319.722 421.988H321.664ZM332.157 412.787C332.157 414.25 333.647 415.877 336.505 416.232L335.821 417.641C333.647 417.326 332.055 416.321 331.241 414.975C330.421 416.321 328.842 417.326 326.688 417.641L325.991 416.232C328.821 415.877 330.325 414.25 330.325 412.787V412.186H332.157V412.787ZM336.901 418.584V420.006H332.061V424.258H330.339V420.006H325.554V418.584H336.901Z" fill="#3C3C3C"/>
<path d="M348.235 412.006L354.5 418.798L348.235 424.994" stroke="#B2B2B2" stroke-width="2"/>
</g>
<rect x="20" y="84.2925" width="113.5" height="4.43646" fill="#D9D9D9"/>
<rect x="139.5" y="84.2925" width="113.5" height="4.43646" fill="black"/>
<rect x="265.118" y="84.2925" width="113.5" height="4.43646" fill="#D9D9D9"/>
<path d="M38.6094 134.57V150.156H35.6328V142.585H32.0586C31.4609 145.046 29.2578 146.722 26.5859 146.734C23.3516 146.722 20.8906 144.425 20.9141 141.273C20.8906 138.097 23.3516 135.847 26.5859 135.859C29.3398 135.847 31.5898 137.593 32.1055 140.171H35.6328V134.57H38.6094ZM23.75 141.273C23.7383 143.042 24.9688 144.132 26.5859 144.132C28.1562 144.132 29.3633 143.042 29.375 141.273C29.3633 139.492 28.1562 138.46 26.5859 138.46C24.9688 138.46 23.7383 139.492 23.75 141.273ZM24.4531 155.5V148.585H27.4531V153.109H39.125V155.5H24.4531ZM59.8203 134.546V155.875H56.9844V134.546H59.8203ZM40.9297 149.64C44.0703 147.707 45.2422 143.886 45.2422 140.265V139.117H41.75V136.726H51.3594V139.117H48.125V140.265C48.1133 143.804 49.2266 147.39 52.3438 149.171L50.5859 151.375C48.6758 150.25 47.4336 148.351 46.707 146.054C45.9805 148.539 44.6914 150.648 42.7344 151.843L40.9297 149.64ZM49.8359 144.273V141.859H52.6484V134.898H55.4609V154.89H52.6484V144.273H49.8359ZM75.9688 138.765C75.957 141.308 77.5508 143.91 81.0547 144.976L79.5312 147.32C77.1406 146.558 75.4648 145.023 74.5039 143.101C73.5312 145.21 71.7969 146.886 69.2891 147.718L67.7422 145.375C71.293 144.238 72.9219 141.46 72.9219 138.765V138.46H68.5391V136.07H80.2578V138.46H75.9688V138.765ZM71.2109 155.5V148.585H74.2344V153.109H86.0703V155.5H71.2109ZM82.5078 149.992V134.57H85.5078V149.992H82.5078ZM106.719 134.546V147.929H103.883V142.257H102.172V147.226H99.3828V134.945H102.172V139.82H103.883V134.546H106.719ZM88.2734 139.07V136.75H92.0469V134.734H95.0234V136.75H98.75V139.07H88.2734ZM88.9297 143.5C88.918 141.261 90.875 139.773 93.5469 139.773C96.2539 139.773 98.1992 141.261 98.2109 143.5C98.1992 145.714 96.2539 147.191 93.5469 147.203C90.875 147.191 88.918 145.714 88.9297 143.5ZM91.6016 143.5C91.5898 144.484 92.375 145.082 93.5469 145.07C94.707 145.082 95.5039 144.484 95.5156 143.5C95.5039 142.503 94.707 141.917 93.5469 141.929C92.3867 141.917 91.5898 142.503 91.6016 143.5ZM92.0469 152.007C92.0352 149.535 94.8359 148.128 99.4297 148.117C104.035 148.128 106.812 149.535 106.836 152.007C106.812 154.468 104.035 155.886 99.4297 155.875C94.8359 155.886 92.0352 154.468 92.0469 152.007ZM95.0469 152.007C95.0234 153.085 96.5352 153.625 99.4297 153.625C102.336 153.625 103.812 153.085 103.812 152.007C103.812 150.882 102.336 150.355 99.4297 150.367C96.5352 150.355 95.0234 150.882 95.0469 152.007ZM126.055 134.5V139.14H128.938V141.531H126.055V146.054H123.055V134.5H126.055ZM109.133 138.414V136.14H113.984V134.406H116.961V136.14H121.789V138.414H109.133ZM110.164 142.421C110.164 140.289 112.285 138.941 115.461 138.929C118.66 138.941 120.711 140.289 120.711 142.421C120.711 144.601 118.66 145.902 115.461 145.914C112.285 145.902 110.164 144.601 110.164 142.421ZM111.898 149.078V146.921H126.055V152.312H114.875V153.531H126.664V155.734H111.945V150.273H123.078V149.078H111.898ZM113.094 142.421C113.082 143.335 113.984 143.769 115.461 143.781C116.949 143.769 117.875 143.335 117.875 142.421C117.875 141.519 116.949 141.027 115.461 141.039C113.984 141.027 113.082 141.519 113.094 142.421ZM39.125 168.546V189.875H36.2656V168.546H39.125ZM20.8203 177.781C20.8203 173.011 22.6367 170.058 25.4609 170.07C27.2422 170.058 28.6484 171.23 29.4336 173.281H31.9531V168.851H34.7656V188.89H31.9531V182.281H29.4453C28.6484 184.355 27.2539 185.539 25.4609 185.539C22.6367 185.539 20.8203 182.574 20.8203 177.781ZM23.5391 177.781C23.5156 181.062 24.207 182.679 25.4609 182.656C26.6914 182.679 27.4414 181.062 27.4531 177.781C27.4414 174.511 26.6914 172.882 25.4609 172.882C24.207 172.882 23.5156 174.511 23.5391 177.781ZM30.0312 175.671C30.125 176.328 30.1719 177.031 30.1719 177.781C30.1719 178.519 30.125 179.222 30.043 179.867H31.9531V175.671H30.0312ZM59.3516 168.546V181.203H56.375V176.164H53.0469V173.75H56.375V168.546H59.3516ZM41.2344 178.859C44.7266 177.687 46.3203 174.898 46.3906 172.226H42.1016V169.835H53.6797V172.226H49.4375C49.4961 174.71 51.0195 177.218 54.3359 178.32L52.8594 180.664C50.5156 179.902 48.8867 178.355 47.9609 176.445C47.0234 178.613 45.3125 180.359 42.7812 181.226L41.2344 178.859ZM44.7266 185.796C44.7266 183.207 47.5156 181.683 52.0625 181.671C56.6211 181.683 59.4102 183.207 59.4219 185.796C59.4102 188.386 56.6211 189.898 52.0625 189.898C47.5156 189.898 44.7266 188.386 44.7266 185.796ZM47.7031 185.796C47.7031 187.015 49.2383 187.625 52.0625 187.625C54.8984 187.625 56.4336 187.015 56.4453 185.796C56.4336 184.566 54.8984 183.957 52.0625 183.968C49.2383 183.957 47.7031 184.566 47.7031 185.796ZM79.9766 168.546V189.921H76.9531V168.546H79.9766ZM62.75 177.64C62.7383 172.988 65.1172 170.046 68.3984 170.046C71.6094 170.046 74 172.988 74 177.64C74 182.328 71.6094 185.257 68.3984 185.257C65.1172 185.257 62.7383 182.328 62.75 177.64ZM65.6328 177.64C65.6211 180.816 66.7344 182.55 68.3984 182.539C70.0156 182.55 71.1055 180.816 71.1172 177.64C71.1055 174.476 70.0156 172.742 68.3984 172.742C66.7344 172.742 65.6211 174.476 65.6328 177.64ZM100.719 168.57V184.132H97.7188V168.57H100.719ZM82.7891 178.859C86.3633 177.664 87.9219 174.699 87.9219 171.804V169.742H91.0391V171.804C91.0156 174.628 92.5273 177.382 96.0312 178.507L94.5078 180.851C92.0938 180.054 90.4414 178.46 89.4922 176.433C88.5312 178.613 86.832 180.371 84.3359 181.226L82.7891 178.859ZM86.4219 189.5V182.632H89.4453V187.109H101.281V189.5H86.4219ZM120.43 168.546V176.726H123.453V179.187H120.43V189.828H117.43V168.546H120.43ZM103.367 183.851C108.418 181.32 111.137 177.921 111.699 173.164H104.586V170.726H114.734C114.711 177.101 112.227 182.621 105.055 186.148L103.367 183.851ZM143.867 184.929V187.39H124.344V184.929H128.703V179.703C127.051 178.707 126.055 177.195 126.055 175.32C126.055 171.863 129.43 169.589 134.07 169.578C138.688 169.589 142.098 171.863 142.109 175.32C142.098 177.16 141.137 178.648 139.531 179.644V184.929H143.867ZM129.008 175.32C129.008 177.406 131.012 178.695 134.07 178.695C137.082 178.695 139.145 177.406 139.156 175.32C139.145 173.175 137.082 171.933 134.07 171.945C131.012 171.933 129.008 173.175 129.008 175.32ZM131.656 184.929H136.508V180.781C135.746 180.933 134.926 181.015 134.07 181.015C133.215 181.015 132.406 180.933 131.656 180.792V184.929ZM148.812 182.375C148.824 179.457 149.609 178.566 151.016 177.687C152.023 177.031 152.809 176.304 152.797 175.226C152.809 174.054 151.895 173.292 150.758 173.281C149.668 173.292 148.648 174.019 148.602 175.39H145.273C145.332 172.097 147.781 170.515 150.781 170.515C154.051 170.515 156.359 172.214 156.359 175.109C156.359 177.042 155.363 178.261 153.828 179.187C152.504 179.972 151.918 180.734 151.906 182.375V182.632H148.812V182.375ZM148.461 185.96C148.438 184.882 149.328 184.003 150.43 184.015C151.473 184.003 152.375 184.882 152.375 185.96C152.375 187.05 151.473 187.929 150.43 187.929C149.328 187.929 148.438 187.05 148.461 185.96Z" fill="black"/>
<path d="M32.7031 498.409V502.487H34.625V504.143H32.7031V508.768H30.7031V498.409H32.7031ZM33.2188 510.784V512.377H23.4844V507.674H25.4688V510.784H33.2188ZM25.4219 499.331C27.5938 499.331 29.2969 500.831 29.2969 502.94C29.2969 505.018 27.5938 506.549 25.4219 506.549C23.2344 506.549 21.5156 505.018 21.5156 502.94C21.5156 500.831 23.2344 499.331 25.4219 499.331ZM25.4219 501.065C24.3438 501.049 23.4688 501.752 23.4844 502.94C23.4688 504.096 24.3438 504.815 25.4219 504.815C26.5156 504.815 27.3438 504.096 27.3594 502.94C27.3438 501.752 26.5156 501.049 25.4219 501.065ZM47.5156 498.409V512.627H45.5938V505.518H44.2656V511.94H42.3906V498.643H44.2656V503.909H45.5938V498.409H47.5156ZM37.8281 499.987V507.409C38.9688 507.385 40.2188 507.284 41.5938 507.018L41.7969 508.737C39.8906 509.065 38.2656 509.159 36.7969 509.159H35.8281V499.987H37.8281ZM58.2969 501.627C58.2969 504.237 59.4844 506.862 61.8906 507.877L60.7188 509.471C59.0938 508.737 57.9688 507.323 57.3281 505.565C56.6797 507.479 55.5156 509.026 53.7812 509.815L52.5781 508.159C55.0625 507.112 56.2656 504.393 56.2812 501.627V499.502H58.2969V501.627ZM64.6719 498.409V512.659H62.6562V498.409H64.6719ZM77.875 498.409V502.393H79.7969V504.034H77.875V508.596H75.8594V498.409H77.875ZM74 499.471C74 503.315 71.5938 506.002 67.3281 507.206L66.5 505.627C69.6797 504.737 71.4844 503.088 71.8125 501.096H67.125V499.471H74ZM78.3594 510.784V512.377H68.625V507.549H70.6406V510.784H78.3594Z" fill="black"/>
<rect x="225.498" y="488.19" width="156.002" height="35" rx="9.5" fill="#F4F4F4"/>
<rect x="225.498" y="488.19" width="156.002" height="35" rx="9.5" stroke="#D3D3D3"/>
<path d="M240.764 499.877V511.19H238.404V502.112H238.342L235.748 503.737V501.659L238.545 499.877H240.764ZM247.619 511.346C244.791 511.346 243.072 509.237 243.072 505.534C243.072 501.831 244.791 499.721 247.619 499.721C250.447 499.721 252.166 501.846 252.166 505.534C252.166 509.252 250.447 511.346 247.619 511.346ZM247.619 509.409C248.932 509.409 249.776 508.143 249.76 505.534C249.76 502.956 248.932 501.643 247.619 501.643C246.307 501.643 245.479 502.956 245.479 505.534C245.463 508.143 246.307 509.409 247.619 509.409ZM266.162 505.706V507.268H260.803V509.565H258.834V507.268H253.147V505.706H266.162ZM264.725 510.784V512.377H254.678V508.44H256.647V510.784H264.725ZM256.787 498.862V500.346H262.491V498.862H264.475V504.706H254.819V498.862H256.787ZM256.787 503.127H262.491V501.831H256.787V503.127ZM282.342 498.424V508.799H280.358V503.706H278.03V502.096H280.358V498.424H282.342ZM282.686 510.784V512.377H272.905V507.893H274.905V510.784H282.686ZM275.733 501.206C275.733 502.846 276.733 504.612 278.999 505.346L278.014 506.924C276.436 506.417 275.358 505.377 274.733 504.081C274.108 505.518 272.975 506.659 271.296 507.221L270.28 505.596C272.624 504.862 273.686 503.002 273.702 501.19V500.971H270.842V499.377H278.561V500.971H275.733V501.206Z" fill="#3C3C3C"/>
<path d="M359 502.69L365.259 508.69L372 502.69" stroke="#B1B1B1" stroke-width="2"/>
<path d="M60.8318 541.003V547.741H59.6746V544.357H56.7742V543.405H59.6746V541.003H60.8318ZM60.8318 548.4V551.506H53.5515V552.927H61.3152V553.85H52.4236V550.627H59.6892V549.323H52.3943V548.4H60.8318ZM54.4744 542.658C54.4597 544.372 55.8074 545.925 57.7117 546.555L57.0964 547.448C55.6536 546.936 54.5037 545.91 53.9324 544.592C53.3757 546.079 52.1965 547.214 50.6511 547.771L50.0212 546.848C51.9841 546.203 53.3318 544.562 53.3464 542.658V541.428H54.4744V542.658ZM73.6457 541.003V548.767H72.4884V545.354H69.8664V544.401H72.4884V541.003H73.6457ZM69.3244 549.177C72.0343 549.177 73.6896 550.056 73.6896 551.594C73.6896 553.132 72.0343 554.011 69.3244 554.025C66.6144 554.011 64.9591 553.132 64.9591 551.594C64.9591 550.056 66.6144 549.177 69.3244 549.177ZM69.3244 550.07C67.3322 550.07 66.0871 550.642 66.1017 551.594C66.0871 552.531 67.3322 553.103 69.3244 553.103C71.3166 553.103 72.547 552.531 72.547 551.594C72.547 550.642 71.3166 550.07 69.3244 550.07ZM67.3761 543.391C67.3761 545.09 68.6798 546.701 70.5841 547.36L69.9835 548.283C68.5187 547.756 67.3834 546.665 66.8341 545.31C66.2628 546.84 65.0543 548.063 63.5089 548.649L62.9083 547.727C64.8419 547.023 66.2189 545.266 66.2189 543.405V542.922H63.2746V541.955H70.2912V542.922H67.3761V543.391ZM83.2369 545.28V546.218H80.6001V548.034C81.816 547.983 83.0318 547.895 84.1597 547.771L84.2476 548.62C81.4498 549.001 78.3443 549.089 75.898 549.089L75.7222 548.151C76.8648 548.144 78.1465 548.129 79.4576 548.078V546.218H76.9087V541.853H83.1343V542.805H78.066V545.28H83.2369ZM86.4009 541.018V550.759H85.2437V541.018H86.4009ZM86.8257 552.78V553.747H77.9488V550.085H79.0914V552.78H86.8257ZM96.721 544.504C96.7064 546.877 98.3324 549.279 100.251 550.144L99.5482 551.052C98.0687 550.327 96.787 548.796 96.1644 546.936C95.5565 548.906 94.2748 550.546 92.7513 551.315L92.0189 550.349C93.9525 549.455 95.5638 546.979 95.5785 544.504V542.131H96.721V544.504ZM102.829 541.003V554.055H101.672V541.003H102.829ZM115.087 541.003V544.973H117.05V545.939H115.087V550.539H113.929V541.003H115.087ZM111.571 542.014C111.571 545.368 109.169 547.858 105.419 549.03L104.921 548.107C108.041 547.133 110.077 545.273 110.326 542.98H105.463V542.014H111.571ZM115.687 552.78V553.747H106.927V549.572H108.07V552.78H115.687ZM128.882 541.003V554.025H127.769V541.003H128.882ZM126.26 541.281V553.366H125.161V547.038H123.491C123.367 549.572 122.29 551.154 120.679 551.154C118.98 551.154 117.881 549.396 117.881 546.628C117.881 543.859 118.98 542.102 120.679 542.102C122.261 542.102 123.33 543.632 123.477 546.086H125.161V541.281H126.26ZM120.679 543.186C119.624 543.186 118.95 544.504 118.965 546.628C118.95 548.737 119.624 550.07 120.679 550.056C121.734 550.07 122.407 548.737 122.407 546.628C122.407 544.504 121.734 543.186 120.679 543.186ZM144.446 540.988V546.13H146.351V547.111H144.446V554.025H143.304V540.988H144.446ZM137.854 542.38V543.332H135.686V549.631C136.331 549.616 137.122 549.558 137.986 549.367L138.103 550.334C136.873 550.598 135.892 550.612 135.115 550.612H134.544V542.38H137.854ZM142.073 542.38V543.332H139.744V549.646C140.762 549.631 141.575 549.565 142.498 549.338L142.615 550.305C141.473 550.583 140.55 550.612 139.231 550.612H138.602V542.38H142.073ZM157.04 541.003V546.188H159.223V547.155H157.04V554.055H155.898V541.003H157.04ZM153.393 542.219V546.877H148.647V549.924C151.064 549.924 152.748 549.843 154.726 549.47L154.843 550.422C152.792 550.803 151.049 550.891 148.544 550.905H147.504V545.925H152.25V543.171H147.475V542.219H153.393ZM172.458 542.233V552.839H171.198L165.456 544.577H165.354V552.839H164.035V542.233H165.31L171.052 550.51H171.154V542.233H172.458ZM185.917 547.902V548.84H180.614V551.389H179.471V548.84H173.993V547.902H185.917ZM184.584 552.78V553.747H175.516V550.188H176.659V552.78H184.584ZM176.732 541.428V543.098H183.177V541.428H184.32V546.628H175.589V541.428H176.732ZM176.732 545.69H183.177V543.977H176.732V545.69ZM201.232 541.018V550.568H200.075V545.573H197.394V544.621H200.075V541.018H201.232ZM201.598 552.78V553.747H192.868V549.704H194.025V552.78H201.598ZM194.962 543.698C194.962 545.383 196.266 547.023 198.17 547.668L197.57 548.591C196.098 548.063 194.962 546.965 194.406 545.617C193.842 547.119 192.64 548.32 191.095 548.898L190.494 547.961C192.413 547.287 193.805 545.573 193.805 543.698V543.024H190.861V542.072H197.877V543.024H194.962V543.698ZM215.159 548.737V549.675H209.724V554.025H208.596V549.675H203.235V548.737H215.159ZM205.901 541.545V543.347H212.464V541.545H213.621V547.155H204.759V541.545H205.901ZM205.901 546.218H212.464V544.284H205.901V546.218ZM226.86 541.003V554.055H225.717V546.877H222.963V545.925H225.717V541.003H226.86ZM222.743 542.204V543.156H217.821V545.866H222.172V546.804H217.821V549.953C220.216 549.953 221.74 549.873 223.534 549.558L223.666 550.51C221.777 550.817 220.18 550.905 217.66 550.905H216.664V542.204H222.743ZM234.455 542.233V552.839H233.137V542.233H234.455ZM245.614 547.536C245.614 550.891 243.636 552.985 240.926 552.985C238.202 552.985 236.239 550.891 236.239 547.536C236.239 544.182 238.202 542.087 240.926 542.087C243.636 542.087 245.614 544.182 245.614 547.536ZM244.339 547.536C244.339 544.797 242.845 543.317 240.926 543.317C239.007 543.317 237.513 544.797 237.513 547.536C237.513 550.275 239.007 551.755 240.926 551.755C242.845 551.755 244.339 550.275 244.339 547.536ZM246.372 543.405V542.233H254.37V543.405H251.045V552.839H249.712V543.405H246.372ZM259.698 544.504C259.698 546.804 261.222 549.162 263.068 550.07L262.364 550.993C260.929 550.239 259.728 548.701 259.156 546.892C258.57 548.818 257.34 550.458 255.875 551.242L255.143 550.319C257.047 549.382 258.556 546.877 258.57 544.504V542.131H259.698V544.504ZM265.411 541.003V546.291H267.594V547.287H265.411V554.025H264.269V541.003H265.411ZM280.012 546.511V547.448H274.636V548.737H278.489V551.652H270.754V552.971H278.884V553.879H269.612V550.788H277.361V549.631H269.583V548.737H273.494V547.448H268.147V546.511H280.012ZM278.474 541.442V545.412H269.685V541.442H278.474ZM270.828 542.365V544.489H277.332V542.365H270.828ZM291.698 541.003V554.055H290.541V541.003H291.698ZM284.769 542.014C286.703 542.028 288.095 543.786 288.095 546.555C288.095 549.323 286.703 551.081 284.769 551.081C282.821 551.081 281.444 549.323 281.444 546.555C281.444 543.786 282.821 542.028 284.769 542.014ZM284.769 543.039C283.466 543.054 282.558 544.431 282.558 546.555C282.558 548.679 283.466 550.056 284.769 550.056C286.073 550.056 286.981 548.679 286.981 546.555C286.981 544.431 286.073 543.054 284.769 543.039ZM308.185 541.018V550.642H307.028V547.126H303.659C303.058 547.895 302.092 548.356 300.978 548.356C299.03 548.356 297.594 547.009 297.594 545.104C297.594 543.2 299.03 541.853 300.978 541.838C302.084 541.845 303.029 542.299 303.644 543.054H307.028V541.018H308.185ZM308.552 552.78V553.747H299.821V549.631H300.978V552.78H308.552ZM300.978 542.863C299.645 542.878 298.693 543.801 298.693 545.104C298.693 546.408 299.645 547.331 300.978 547.331C302.253 547.331 303.234 546.408 303.234 545.104C303.234 543.801 302.253 542.878 300.978 542.863ZM304.172 544.006C304.281 544.343 304.347 544.709 304.347 545.104C304.347 545.485 304.281 545.844 304.172 546.174H307.028V544.006H304.172ZM322.083 547.448V548.371H310.203V547.448H315.579V545.925H311.712V541.618H320.604V542.541H312.84V544.987H320.692V545.925H316.693V547.448H322.083ZM316.136 549.323C318.934 549.323 320.604 550.173 320.618 551.667C320.604 553.176 318.934 554.011 316.136 554.025C313.323 554.011 311.639 553.176 311.639 551.667C311.639 550.173 313.323 549.323 316.136 549.323ZM316.136 550.231C314.041 550.231 312.796 550.773 312.811 551.667C312.796 552.575 314.041 553.103 316.136 553.103C318.201 553.103 319.461 552.575 319.461 551.667C319.461 550.773 318.201 550.231 316.136 550.231ZM333.769 541.018V548.503H332.612V541.018H333.769ZM323.061 547.229C324.167 547.229 325.456 547.221 326.796 547.17V545.778H324.248V541.662H330.429V542.614H325.405V544.855H330.546V545.778H327.954V547.126C329.162 547.075 330.385 546.972 331.528 546.818L331.601 547.653C328.745 548.137 325.581 548.181 323.237 548.181L323.061 547.229ZM326.328 549.089V550.48H332.641V549.089H333.769V553.85H325.185V549.089H326.328ZM326.328 552.912H332.641V551.374H326.328V552.912ZM346.568 541.003V554.025H345.426V541.003H346.568ZM337.809 542.292V549.675C339.793 549.667 341.852 549.506 344.034 549.045L344.195 550.026C341.881 550.51 339.815 550.671 337.735 550.671H336.681V542.292H337.809ZM358.723 541.003V546.159H360.906V547.126H358.723V554.055H357.58V541.003H358.723ZM355.295 542.277V543.229H350.359V549.821C352.717 549.821 354.387 549.711 356.321 549.353L356.467 550.349C354.431 550.715 352.717 550.788 350.242 550.788H349.216V542.277H355.295ZM362.836 552.927C362.323 552.927 361.884 552.502 361.898 551.975C361.884 551.462 362.323 551.037 362.836 551.037C363.348 551.037 363.773 551.462 363.773 551.975C363.773 552.502 363.348 552.927 362.836 552.927Z" fill="black" fill-opacity="0.8"/>
<circle cx="30.6115" cy="548.068" r="7.61151" stroke="black"/>
<rect x="23" y="722.678" width="355.618" height="55.1804" fill="#D9D9D9"/>
<path d="M193.715 742.631V748.059H195.867V749.73H193.715V757.278H191.659V742.631H193.715ZM189.619 743.98V745.634H184.801V752.042C186.921 752.018 188.672 751.922 190.615 751.576L190.84 753.295C188.576 753.68 186.584 753.745 183.998 753.728H182.762V743.98H189.619ZM202.897 742.904C206.141 742.904 208.197 743.98 208.213 745.763C208.197 747.529 206.141 748.605 202.897 748.589C199.669 748.605 197.565 747.529 197.565 745.763C197.565 743.98 199.669 742.904 202.897 742.904ZM202.897 744.494C200.858 744.494 199.685 744.928 199.701 745.763C199.685 746.582 200.858 746.999 202.897 746.999C204.921 746.999 206.093 746.582 206.093 745.763C206.093 744.928 204.921 744.494 202.897 744.494ZM207.972 752.106V757.085H197.774V752.106H207.972ZM199.798 753.728V755.447H205.965V753.728H199.798ZM209.562 749.44V751.079H196.232V749.44H209.562Z" fill="black"/>
</g>
<defs>
<filter id="filter0_d_486_1314" x="11.5" y="332" width="377" height="135" filterUnits="userSpaceOnUse" color-interpolation-filters="sRGB">
<feFlood flood-opacity="0" result="BackgroundImageFix"/>
<feColorMatrix in="SourceAlpha" type="matrix" values="0 0 0 0 0 0 0 0 0 0 0 0 0 0 0 0 0 0 127 0" result="hardAlpha"/>
<feOffset dy="4"/>
<feGaussianBlur stdDeviation="4"/>
<feComposite in2="hardAlpha" operator="out"/>
<feColorMatrix type="matrix" values="0 0 0 0 0 0 0 0 0 0 0 0 0 0 0 0 0 0 0.04 0"/>
<feBlend mode="normal" in2="BackgroundImageFix" result="effect1_dropShadow_486_1314"/>
<feBlend mode="normal" in="SourceGraphic" in2="effect1_dropShadow_486_1314" result="shape"/>
</filter>
<clipPath id="clip0_486_1314">
<rect width="402" height="810" fill="white"/>
</clipPath>
</defs>
</svg>
