<svg width="402" height="874" viewBox="0 0 402 874" fill="none" xmlns="http://www.w3.org/2000/svg">
<g clip-path="url(#clip0_487_2499)">
<rect width="402" height="874" fill="#E9E8E7"/>
<rect width="402" height="874" fill="#FFFDFB" fill-opacity="0.24"/>
<rect width="360.744" height="407.668" rx="48" transform="matrix(-1 0 0 1 382 302.487)" fill="#D9D9D9"/>
<rect width="360.744" height="407.668" rx="48" transform="matrix(-1 0 0 1 382 302.487)" fill="black" fill-opacity="0.2"/>
<rect width="360.744" height="407.668" rx="48" transform="matrix(-1 0 0 1 382 302.487)" fill="url(#paint0_linear_487_2499)" fill-opacity="0.2"/>
<rect width="360.744" height="148.786" rx="40" transform="matrix(-1 0 0 1 382 138.863)" fill="#D9D9D9"/>
<rect width="360.744" height="414.964" rx="48" transform="matrix(-1 0 0 1 382 728.803)" fill="#D9D9D9"/>
<path d="M59.2275 25.7231C59.8695 25.7231 60.4782 25.8421 61.0537 26.0801C61.6292 26.3125 62.1383 26.6777 62.5811 27.1758C63.0293 27.6683 63.3807 28.3019 63.6353 29.0767C63.8898 29.8459 64.0171 30.7728 64.0171 31.8574V31.874C64.0171 33.2188 63.8234 34.3698 63.436 35.3271C63.0487 36.2845 62.4925 37.0205 61.7676 37.5352C61.0482 38.0443 60.1877 38.2988 59.186 38.2988C58.45 38.2988 57.786 38.166 57.1938 37.9004C56.6073 37.6292 56.1203 37.2585 55.7329 36.7881C55.3511 36.3122 55.0938 35.7699 54.9609 35.1611L54.9443 35.0698H57.0444L57.0776 35.1528C57.1828 35.4295 57.3322 35.673 57.5259 35.8833C57.7251 36.0936 57.9631 36.2568 58.2397 36.373C58.522 36.4837 58.8374 36.5391 59.186 36.5391C59.8169 36.5391 60.3315 36.3537 60.73 35.9829C61.134 35.6066 61.4355 35.1058 61.6348 34.4805C61.8395 33.8496 61.9557 33.1523 61.9834 32.3887C61.9889 32.3057 61.9917 32.2254 61.9917 32.1479C61.9917 32.0649 61.9917 31.9847 61.9917 31.9072L61.6182 29.9067C61.6182 29.453 61.513 29.0407 61.3027 28.6699C61.0924 28.2992 60.8075 28.0059 60.4478 27.79C60.0936 27.5742 59.6924 27.4663 59.2441 27.4663C58.8125 27.4663 58.4168 27.5715 58.0571 27.7817C57.6974 27.992 57.4097 28.2798 57.1938 28.645C56.978 29.0047 56.8701 29.4087 56.8701 29.8569V29.8735C56.8701 30.3384 56.9725 30.7507 57.1772 31.1104C57.382 31.4645 57.6615 31.744 58.0156 31.9487C58.3698 32.1535 58.7738 32.2559 59.2275 32.2559C59.6813 32.2559 60.0881 32.1562 60.4478 31.957C60.8075 31.7578 61.0924 31.4811 61.3027 31.127C61.513 30.7728 61.6182 30.3716 61.6182 29.9233V29.9067H62.1162V32.1147H61.8257C61.6818 32.4302 61.4688 32.7235 61.1865 32.9946C60.9043 33.2658 60.5557 33.4844 60.1406 33.6504C59.7311 33.8164 59.2497 33.8994 58.6963 33.8994C57.9326 33.8994 57.2575 33.7279 56.6709 33.3848C56.0843 33.0417 55.6222 32.5713 55.2847 31.9736C54.9526 31.376 54.7866 30.7008 54.7866 29.9482V29.9316C54.7866 29.1182 54.9748 28.396 55.3511 27.7651C55.7329 27.1287 56.2586 26.6307 56.9282 26.271C57.6034 25.9058 58.3698 25.7231 59.2275 25.7231ZM67.7856 36.3896C67.4093 36.3896 67.0939 36.2651 66.8394 36.0161C66.5903 35.7616 66.4658 35.4517 66.4658 35.0864C66.4658 34.7157 66.5903 34.4058 66.8394 34.1567C67.0939 33.9022 67.4093 33.7749 67.7856 33.7749C68.1675 33.7749 68.4829 33.9022 68.7319 34.1567C68.981 34.4058 69.1055 34.7157 69.1055 35.0864C69.1055 35.4517 68.981 35.7616 68.7319 36.0161C68.4829 36.2651 68.1675 36.3896 67.7856 36.3896ZM67.7856 30.2305C67.4093 30.2305 67.0939 30.106 66.8394 29.8569C66.5903 29.6024 66.4658 29.2925 66.4658 28.9272C66.4658 28.5565 66.5903 28.2466 66.8394 27.9976C67.0939 27.743 67.4093 27.6157 67.7856 27.6157C68.1675 27.6157 68.4829 27.743 68.7319 27.9976C68.981 28.2466 69.1055 28.5565 69.1055 28.9272C69.1055 29.2925 68.981 29.6024 68.7319 29.8569C68.4829 30.106 68.1675 30.2305 67.7856 30.2305ZM77.3647 38V35.7007H71.5044V33.9492C71.8198 33.4124 72.1353 32.8729 72.4507 32.3306C72.7716 31.7882 73.0954 31.2487 73.4219 30.7119C73.7539 30.1696 74.0832 29.6356 74.4097 29.1099C74.7417 28.5786 75.071 28.0557 75.3975 27.541C75.7295 27.0208 76.0615 26.5145 76.3936 26.022H79.4067V33.9326H81.0254V35.7007H79.4067V38H77.3647ZM73.4966 33.9824H77.3979V27.7319H77.2734C77.0299 28.1082 76.7782 28.4956 76.5181 28.894C76.2635 29.2925 76.0062 29.6992 75.7461 30.1143C75.486 30.5293 75.2287 30.9471 74.9741 31.3677C74.7196 31.7827 74.4678 32.2005 74.2188 32.6211C73.9697 33.0361 73.729 33.4484 73.4966 33.8579V33.9824ZM85.981 38V28.1304H85.8315L82.8516 30.2305V28.2217L85.981 26.022H88.1143V38H85.981Z" fill="#171717"/>
<path fill-rule="evenodd" clip-rule="evenodd" d="M310.326 27.0329C310.326 26.3999 309.849 25.8867 309.259 25.8867H308.193C307.604 25.8867 307.126 26.3999 307.126 27.0329V36.9669C307.126 37.5999 307.604 38.1131 308.193 38.1131H309.259C309.849 38.1131 310.326 37.5999 310.326 36.9669V27.0329ZM302.892 28.332H303.959C304.548 28.332 305.025 28.8575 305.025 29.5057V36.9394C305.025 37.5876 304.548 38.1131 303.959 38.1131H302.892C302.303 38.1131 301.825 37.5876 301.825 36.9394V29.5057C301.825 28.8575 302.303 28.332 302.892 28.332ZM298.56 30.981H297.494C296.904 30.981 296.427 31.5132 296.427 32.1697V36.9244C296.427 37.5809 296.904 38.1131 297.494 38.1131H298.56C299.149 38.1131 299.627 37.5809 299.627 36.9244V32.1697C299.627 31.5132 299.149 30.981 298.56 30.981ZM293.259 33.4263H292.193C291.604 33.4263 291.126 33.9509 291.126 34.598V36.9414C291.126 37.5885 291.604 38.1131 292.193 38.1131H293.259C293.849 38.1131 294.326 37.5885 294.326 36.9414V34.598C294.326 33.9509 293.849 33.4263 293.259 33.4263Z" fill="#171717"/>
<path fill-rule="evenodd" clip-rule="evenodd" d="M325.897 28.3022C328.384 28.3023 330.776 29.2244 332.579 30.8779C332.715 31.0055 332.932 31.0039 333.065 30.8743L334.363 29.6108C334.431 29.545 334.468 29.456 334.468 29.3633C334.467 29.2706 334.428 29.182 334.36 29.117C329.629 24.7423 322.165 24.7423 317.434 29.117C317.366 29.1819 317.327 29.2705 317.326 29.3632C317.325 29.4559 317.363 29.545 317.431 29.6108L318.729 30.8743C318.862 31.0041 319.079 31.0057 319.215 30.8779C321.018 29.2243 323.41 28.3022 325.897 28.3022ZM325.894 32.5225C327.251 32.5224 328.56 33.0342 329.566 33.9583C329.702 34.0894 329.917 34.0866 330.049 33.9519L331.337 32.6326C331.404 32.5634 331.442 32.4695 331.441 32.3719C331.44 32.2744 331.401 32.1813 331.331 32.1135C328.268 29.2227 323.523 29.2227 320.459 32.1135C320.39 32.1813 320.35 32.2744 320.349 32.372C320.349 32.4696 320.386 32.5635 320.454 32.6326L321.741 33.9519C321.874 34.0866 322.088 34.0894 322.224 33.9583C323.23 33.0348 324.538 32.5231 325.894 32.5225ZM328.418 35.316C328.42 35.4214 328.383 35.523 328.316 35.5968L326.139 38.0515C326.076 38.1236 325.989 38.1642 325.898 38.1642C325.807 38.1642 325.72 38.1236 325.656 38.0515L323.479 35.5968C323.412 35.5229 323.375 35.4213 323.377 35.316C323.379 35.2106 323.42 35.1108 323.49 35.0402C324.88 33.7263 326.916 33.7263 328.306 35.0402C328.376 35.1109 328.416 35.2107 328.418 35.316Z" fill="#171717"/>
<rect opacity="0.35" x="341.968" y="26" width="24" height="12" rx="3.8" stroke="#171717"/>
<path opacity="0.4" d="M367.468 30.2812V34.3567C368.273 34.0116 368.796 33.2086 368.796 32.319C368.796 31.4294 368.273 30.6264 367.468 30.2812Z" fill="#171717"/>
<rect x="343.468" y="27.5" width="21" height="9" rx="2.5" fill="#171717"/>
<path d="M25.0159 115V87H45.4559V91.36H30.2159V115H25.0159ZM29.7759 104.28V99.88H43.7359V104.28H29.7759ZM58.6587 115.28C56.2853 115.28 54.2053 114.813 52.4187 113.88C50.6587 112.92 49.2853 111.613 48.2987 109.96C47.3387 108.307 46.8587 106.427 46.8587 104.32C46.8587 102.187 47.3253 100.307 48.2587 98.68C49.2187 97.0267 50.5253 95.7333 52.1787 94.8C53.8587 93.8667 55.7653 93.4 57.8987 93.4C59.9787 93.4 61.832 93.8533 63.4587 94.76C65.0853 95.6667 66.3653 96.9467 67.2987 98.6C68.232 100.253 68.6987 102.2 68.6987 104.44C68.6987 104.653 68.6853 104.893 68.6587 105.16C68.6587 105.427 68.6453 105.68 68.6187 105.92H50.8187V102.6H65.9787L64.0187 103.64C64.0453 102.413 63.792 101.333 63.2587 100.4C62.7253 99.4667 61.992 98.7333 61.0587 98.2C60.152 97.6667 59.0987 97.4 57.8987 97.4C56.672 97.4 55.592 97.6667 54.6587 98.2C53.752 98.7333 53.032 99.48 52.4987 100.44C51.992 101.373 51.7387 102.48 51.7387 103.76V104.56C51.7387 105.84 52.032 106.973 52.6187 107.96C53.2053 108.947 54.032 109.707 55.0987 110.24C56.1653 110.773 57.392 111.04 58.7787 111.04C59.9787 111.04 61.0587 110.853 62.0187 110.48C62.9787 110.107 63.832 109.52 64.5787 108.72L67.2587 111.8C66.2987 112.92 65.0853 113.787 63.6187 114.4C62.1787 114.987 60.5253 115.28 58.6587 115.28ZM82.7415 115.28C80.3682 115.28 78.2882 114.813 76.5015 113.88C74.7415 112.92 73.3682 111.613 72.3815 109.96C71.4215 108.307 70.9415 106.427 70.9415 104.32C70.9415 102.187 71.4082 100.307 72.3415 98.68C73.3015 97.0267 74.6082 95.7333 76.2615 94.8C77.9415 93.8667 79.8482 93.4 81.9815 93.4C84.0615 93.4 85.9148 93.8533 87.5415 94.76C89.1682 95.6667 90.4482 96.9467 91.3815 98.6C92.3148 100.253 92.7815 102.2 92.7815 104.44C92.7815 104.653 92.7682 104.893 92.7415 105.16C92.7415 105.427 92.7282 105.68 92.7015 105.92H74.9015V102.6H90.0615L88.1015 103.64C88.1282 102.413 87.8748 101.333 87.3415 100.4C86.8082 99.4667 86.0748 98.7333 85.1415 98.2C84.2348 97.6667 83.1815 97.4 81.9815 97.4C80.7548 97.4 79.6748 97.6667 78.7415 98.2C77.8348 98.7333 77.1148 99.48 76.5815 100.44C76.0748 101.373 75.8215 102.48 75.8215 103.76V104.56C75.8215 105.84 76.1148 106.973 76.7015 107.96C77.2882 108.947 78.1148 109.707 79.1815 110.24C80.2482 110.773 81.4748 111.04 82.8615 111.04C84.0615 111.04 85.1415 110.853 86.1015 110.48C87.0615 110.107 87.9148 109.52 88.6615 108.72L91.3415 111.8C90.3815 112.92 89.1682 113.787 87.7015 114.4C86.2615 114.987 84.6082 115.28 82.7415 115.28ZM105.824 115.28C103.771 115.28 101.918 114.827 100.264 113.92C98.6376 112.987 97.3576 111.707 96.4243 110.08C95.491 108.453 95.0243 106.533 95.0243 104.32C95.0243 102.107 95.491 100.187 96.4243 98.56C97.3576 96.9333 98.6376 95.6667 100.264 94.76C101.918 93.8533 103.771 93.4 105.824 93.4C107.611 93.4 109.211 93.8 110.624 94.6C112.038 95.3733 113.158 96.56 113.984 98.16C114.811 99.76 115.224 101.813 115.224 104.32C115.224 106.8 114.824 108.853 114.024 110.48C113.224 112.08 112.118 113.28 110.704 114.08C109.291 114.88 107.664 115.28 105.824 115.28ZM106.424 111C107.624 111 108.691 110.733 109.624 110.2C110.584 109.667 111.344 108.893 111.904 107.88C112.491 106.867 112.784 105.68 112.784 104.32C112.784 102.933 112.491 101.747 111.904 100.76C111.344 99.7467 110.584 98.9733 109.624 98.44C108.691 97.9067 107.624 97.64 106.424 97.64C105.224 97.64 104.144 97.9067 103.184 98.44C102.251 98.9733 101.491 99.7467 100.904 100.76C100.344 101.747 100.064 102.933 100.064 104.32C100.064 105.68 100.344 106.867 100.904 107.88C101.491 108.893 102.251 109.667 103.184 110.2C104.144 110.733 105.224 111 106.424 111ZM112.904 115V109.96L113.104 104.28L112.704 98.6V85.32H117.664V115H112.904ZM135.285 115.28C133.472 115.28 131.859 114.88 130.445 114.08C129.032 113.28 127.912 112.08 127.085 110.48C126.285 108.853 125.885 106.8 125.885 104.32C125.885 101.813 126.299 99.76 127.125 98.16C127.979 96.56 129.112 95.3733 130.525 94.6C131.965 93.8 133.552 93.4 135.285 93.4C137.392 93.4 139.245 93.8533 140.845 94.76C142.472 95.6667 143.752 96.9333 144.685 98.56C145.645 100.187 146.125 102.107 146.125 104.32C146.125 106.533 145.645 108.453 144.685 110.08C143.752 111.707 142.472 112.987 140.845 113.92C139.245 114.827 137.392 115.28 135.285 115.28ZM123.445 115V85.32H128.445V98.6L128.045 104.28L128.205 109.96V115H123.445ZM134.725 111C135.925 111 136.992 110.733 137.925 110.2C138.885 109.667 139.645 108.893 140.205 107.88C140.765 106.867 141.045 105.68 141.045 104.32C141.045 102.933 140.765 101.747 140.205 100.76C139.645 99.7467 138.885 98.9733 137.925 98.44C136.992 97.9067 135.925 97.64 134.725 97.64C133.525 97.64 132.445 97.9067 131.485 98.44C130.525 98.9733 129.765 99.7467 129.205 100.76C128.645 101.747 128.365 102.933 128.365 104.32C128.365 105.68 128.645 106.867 129.205 107.88C129.765 108.893 130.525 109.667 131.485 110.2C132.445 110.733 133.525 111 134.725 111ZM162.954 115V110.68L162.674 109.76V102.2C162.674 100.733 162.234 99.6 161.354 98.8C160.474 97.9733 159.14 97.56 157.354 97.56C156.154 97.56 154.967 97.7467 153.794 98.12C152.647 98.4933 151.674 99.0133 150.874 99.68L148.914 96.04C150.06 95.16 151.42 94.5067 152.994 94.08C154.594 93.6267 156.247 93.4 157.954 93.4C161.047 93.4 163.434 94.1467 165.114 95.64C166.82 97.1067 167.674 99.3867 167.674 102.48V115H162.954ZM156.234 115.28C154.634 115.28 153.234 115.013 152.034 114.48C150.834 113.92 149.9 113.16 149.234 112.2C148.594 111.213 148.274 110.107 148.274 108.88C148.274 107.68 148.554 106.6 149.114 105.64C149.7 104.68 150.647 103.92 151.954 103.36C153.26 102.8 154.994 102.52 157.154 102.52H163.354V105.84H157.514C155.807 105.84 154.66 106.12 154.074 106.68C153.487 107.213 153.194 107.88 153.194 108.68C153.194 109.587 153.554 110.307 154.274 110.84C154.994 111.373 155.994 111.64 157.274 111.64C158.5 111.64 159.594 111.36 160.554 110.8C161.54 110.24 162.247 109.413 162.674 108.32L163.514 111.32C163.034 112.573 162.167 113.547 160.914 114.24C159.687 114.933 158.127 115.28 156.234 115.28ZM183.13 115.28C180.89 115.28 178.89 114.813 177.13 113.88C175.396 112.92 174.036 111.613 173.05 109.96C172.063 108.307 171.57 106.427 171.57 104.32C171.57 102.187 172.063 100.307 173.05 98.68C174.036 97.0267 175.396 95.7333 177.13 94.8C178.89 93.8667 180.89 93.4 183.13 93.4C185.21 93.4 187.036 93.8267 188.61 94.68C190.21 95.5067 191.423 96.7333 192.25 98.36L188.41 100.6C187.77 99.5867 186.983 98.84 186.05 98.36C185.143 97.88 184.156 97.64 183.09 97.64C181.863 97.64 180.756 97.9067 179.77 98.44C178.783 98.9733 178.01 99.7467 177.45 100.76C176.89 101.747 176.61 102.933 176.61 104.32C176.61 105.707 176.89 106.907 177.45 107.92C178.01 108.907 178.783 109.667 179.77 110.2C180.756 110.733 181.863 111 183.09 111C184.156 111 185.143 110.76 186.05 110.28C186.983 109.8 187.77 109.053 188.41 108.04L192.25 110.28C191.423 111.88 190.21 113.12 188.61 114C187.036 114.853 185.21 115.28 183.13 115.28ZM199.656 110.24L199.776 103.96L210.936 93.64H216.936L207.456 103.16L204.816 105.36L199.656 110.24ZM195.576 115V85.32H200.576V115H195.576ZM211.696 115L203.896 105.36L207.056 101.36L217.776 115H211.696Z" fill="#555151"/>
<path d="M54.3095 518.832V505.832L55.4495 507.012H51.3495V504.832H56.9095V518.832H54.3095ZM59.1066 518.832V517.092L64.6666 511.812C65.1333 511.372 65.48 510.985 65.7066 510.652C65.9333 510.318 66.08 510.012 66.1466 509.732C66.2266 509.438 66.2666 509.165 66.2666 508.912C66.2666 508.272 66.0466 507.778 65.6066 507.432C65.1666 507.072 64.52 506.892 63.6666 506.892C62.9866 506.892 62.3666 507.012 61.8066 507.252C61.26 507.492 60.7866 507.858 60.3866 508.352L58.5666 506.952C59.1133 506.218 59.8466 505.652 60.7666 505.252C61.7 504.838 62.74 504.632 63.8866 504.632C64.9 504.632 65.78 504.798 66.5266 505.132C67.2866 505.452 67.8666 505.912 68.2666 506.512C68.68 507.112 68.8866 507.825 68.8866 508.652C68.8866 509.105 68.8266 509.558 68.7066 510.012C68.5866 510.452 68.36 510.918 68.0266 511.412C67.6933 511.905 67.2066 512.458 66.5666 513.072L61.7866 517.612L61.2466 516.632H69.4266V518.832H59.1066ZM69.2426 520.832L75.8426 501.992H78.0826L71.4826 520.832H69.2426ZM83.1938 519.032C82.0872 519.032 81.0872 518.752 80.1938 518.192C79.3138 517.632 78.6205 516.818 78.1138 515.752C77.6072 514.672 77.3538 513.365 77.3538 511.832C77.3538 510.298 77.6072 508.998 78.1138 507.932C78.6205 506.852 79.3138 506.032 80.1938 505.472C81.0872 504.912 82.0872 504.632 83.1938 504.632C84.3138 504.632 85.3138 504.912 86.1938 505.472C87.0738 506.032 87.7672 506.852 88.2738 507.932C88.7938 508.998 89.0538 510.298 89.0538 511.832C89.0538 513.365 88.7938 514.672 88.2738 515.752C87.7672 516.818 87.0738 517.632 86.1938 518.192C85.3138 518.752 84.3138 519.032 83.1938 519.032ZM83.1938 516.772C83.8472 516.772 84.4138 516.598 84.8938 516.252C85.3738 515.892 85.7472 515.345 86.0138 514.612C86.2938 513.878 86.4338 512.952 86.4338 511.832C86.4338 510.698 86.2938 509.772 86.0138 509.052C85.7472 508.318 85.3738 507.778 84.8938 507.432C84.4138 507.072 83.8472 506.892 83.1938 506.892C82.5672 506.892 82.0072 507.072 81.5138 507.432C81.0338 507.778 80.6538 508.318 80.3738 509.052C80.1072 509.772 79.9738 510.698 79.9738 511.832C79.9738 512.952 80.1072 513.878 80.3738 514.612C80.6538 515.345 81.0338 515.892 81.5138 516.252C82.0072 516.598 82.5672 516.772 83.1938 516.772ZM90.2109 515.652V513.852L97.1109 504.832H99.8909L93.0909 513.852L91.7909 513.452H102.891V515.652H90.2109ZM97.8909 518.832V515.652L97.9709 513.452V510.632H100.411V518.832H97.8909ZM58.6375 535.624H61.6895V536.548C61.6895 538.06 61.4188 539.488 60.8775 540.832C60.3361 542.176 59.5241 543.342 58.4415 544.332C57.3588 545.321 55.9681 546.049 54.2695 546.516L52.5335 543.632C53.5975 543.333 54.5121 542.941 55.2775 542.456C56.0615 541.952 56.6961 541.382 57.1815 540.748C57.6855 540.113 58.0495 539.441 58.2735 538.732C58.5161 538.022 58.6375 537.294 58.6375 536.548V535.624ZM59.3375 535.624H62.3615V536.548C62.3615 537.238 62.4828 537.92 62.7255 538.592C62.9868 539.264 63.3601 539.898 63.8455 540.496C64.3495 541.074 64.9841 541.597 65.7495 542.064C66.5335 542.53 67.4575 542.904 68.5215 543.184L66.8135 546.096C65.1521 545.648 63.7615 544.957 62.6415 544.024C61.5401 543.072 60.7095 541.952 60.1495 540.664C59.6081 539.376 59.3375 538.004 59.3375 536.548V535.624ZM53.4295 533.944H67.5975V536.856H53.4295V533.944ZM58.6375 531.284H62.3895V535.26H58.6375V531.284ZM70.1455 531.396H73.8695V546.572H70.1455V531.396ZM56.6215 547.692H73.8695V557.044H56.6215V547.692ZM70.2295 550.604H60.2895V554.104H70.2295V550.604ZM96.2393 531.368H99.7953V557.296H96.2393V531.368ZM92.7953 541.364H97.1073V544.36H92.7953V541.364ZM90.4433 531.816H93.8873V556.092H90.4433V531.816ZM78.2633 548.392H80.0553C81.1379 548.392 82.1646 548.382 83.1353 548.364C84.1059 548.326 85.0673 548.261 86.0193 548.168C86.9899 548.056 87.9793 547.916 88.9873 547.748L89.2953 550.772C88.2499 550.958 87.2326 551.108 86.2433 551.22C85.2539 551.332 84.2553 551.406 83.2473 551.444C82.2393 551.462 81.1753 551.472 80.0553 551.472H78.2633V548.392ZM78.2633 534.392H87.8113V537.388H81.9313V549.876H78.2633V534.392ZM113.093 540.916H117.349V543.912H113.093V540.916ZM121.437 531.368H124.993V557.296H121.437V531.368ZM116.173 531.788H119.645V556.148H116.173V531.788ZM108.557 533.188C109.696 533.188 110.685 533.57 111.525 534.336C112.384 535.082 113.037 536.165 113.485 537.584C113.952 538.984 114.185 540.664 114.185 542.624C114.185 544.565 113.952 546.245 113.485 547.664C113.037 549.082 112.384 550.174 111.525 550.94C110.685 551.686 109.686 552.06 108.529 552.06C107.409 552.06 106.42 551.686 105.561 550.94C104.721 550.174 104.068 549.082 103.601 547.664C103.153 546.245 102.929 544.565 102.929 542.624C102.929 540.664 103.153 538.984 103.601 537.584C104.068 536.165 104.721 535.082 105.561 534.336C106.42 533.57 107.418 533.188 108.557 533.188ZM108.557 536.716C108.09 536.716 107.689 536.93 107.353 537.36C107.017 537.789 106.756 538.442 106.569 539.32C106.401 540.178 106.317 541.28 106.317 542.624C106.317 543.93 106.401 545.022 106.569 545.9C106.756 546.777 107.017 547.44 107.353 547.888C107.689 548.317 108.09 548.532 108.557 548.532C109.024 548.532 109.425 548.317 109.761 547.888C110.116 547.44 110.377 546.777 110.545 545.9C110.713 545.022 110.797 543.93 110.797 542.624C110.797 541.28 110.713 540.178 110.545 539.32C110.377 538.442 110.116 537.789 109.761 537.36C109.425 536.93 109.024 536.716 108.557 536.716ZM141.007 539.488H147.839V542.484H141.007V539.488ZM133.951 533.356H136.947V537.136C136.947 538.76 136.807 540.337 136.527 541.868C136.247 543.398 135.818 544.826 135.239 546.152C134.66 547.477 133.923 548.644 133.027 549.652C132.15 550.66 131.104 551.472 129.891 552.088L127.567 549.12C128.668 548.597 129.611 547.916 130.395 547.076C131.198 546.236 131.86 545.284 132.383 544.22C132.924 543.137 133.316 541.998 133.559 540.804C133.82 539.59 133.951 538.368 133.951 537.136V533.356ZM134.707 533.356H137.675V537.136C137.675 538.349 137.796 539.553 138.039 540.748C138.282 541.924 138.646 543.025 139.131 544.052C139.635 545.078 140.279 545.993 141.063 546.796C141.847 547.58 142.78 548.214 143.863 548.7L141.623 551.668C140.41 551.07 139.364 550.286 138.487 549.316C137.61 548.326 136.891 547.197 136.331 545.928C135.79 544.658 135.379 543.277 135.099 541.784C134.838 540.29 134.707 538.741 134.707 537.136V533.356ZM145.963 531.34H149.687V557.352H145.963V531.34ZM178.339 531.368H182.063V557.38H178.339V531.368ZM171.367 539.404H179.431V542.4H171.367V539.404ZM161.623 534.14H165.319V550.268H161.623V534.14ZM161.623 548.196H163.835C165.067 548.196 166.308 548.168 167.559 548.112C168.828 548.037 170.116 547.925 171.423 547.776C172.73 547.626 174.046 547.421 175.371 547.16L175.763 550.212C174.382 550.492 173.019 550.716 171.675 550.884C170.331 551.033 169.006 551.145 167.699 551.22C166.392 551.276 165.104 551.304 163.835 551.304H161.623V548.196ZM185.505 545.872H208.969V548.868H185.505V545.872ZM195.277 547.776H199.001V557.324H195.277V547.776ZM188.193 532.656H206.169V543.1H188.193V532.656ZM202.529 535.568H191.861V540.188H202.529V535.568ZM234.541 531.396H238.265V544.248H234.541V531.396ZM236.809 536.8H241.709V539.824H236.809V536.8ZM218.609 532.964H230.985V543.8H218.609V532.964ZM227.317 535.876H222.277V540.888H227.317V535.876ZM220.149 553.656H221.605C222.352 553.656 223.07 553.637 223.761 553.6C224.47 553.562 225.152 553.488 225.805 553.376C226.477 553.245 227.13 553.068 227.765 552.844L228.297 555.784C227.588 556.026 226.878 556.204 226.169 556.316C225.46 556.446 224.732 556.53 223.985 556.568C223.257 556.624 222.464 556.652 221.605 556.652H220.149V553.656ZM220.149 546.488H223.761V554.412H220.149V546.488ZM227.401 546.712H240.337V549.372H227.401V546.712ZM233.869 550.016C235.344 550.016 236.548 550.352 237.481 551.024C238.414 551.677 238.881 552.564 238.881 553.684C238.881 554.804 238.414 555.69 237.481 556.344C236.548 556.997 235.344 557.324 233.869 557.324C232.394 557.324 231.19 556.997 230.257 556.344C229.324 555.69 228.857 554.804 228.857 553.684C228.857 552.564 229.324 551.677 230.257 551.024C231.19 550.352 232.394 550.016 233.869 550.016ZM233.869 552.564C233.384 552.564 232.973 552.657 232.637 552.844C232.32 553.012 232.161 553.292 232.161 553.684C232.161 554.057 232.32 554.337 232.637 554.524C232.973 554.71 233.384 554.804 233.869 554.804C234.354 554.804 234.756 554.71 235.073 554.524C235.409 554.337 235.577 554.057 235.577 553.684C235.577 553.292 235.409 553.012 235.073 552.844C234.756 552.657 234.354 552.564 233.869 552.564ZM232.077 544.892H235.689V548.672H232.077V544.892ZM243.051 544.612H266.515V547.552H243.051V544.612ZM245.907 553.88H263.883V556.876H245.907V553.88ZM245.907 549.288H249.631V554.832H245.907V549.288ZM254.783 532.152C256.668 532.152 258.311 532.366 259.711 532.796C261.129 533.225 262.231 533.841 263.015 534.644C263.799 535.446 264.191 536.389 264.191 537.472C264.191 538.573 263.799 539.525 263.015 540.328C262.231 541.13 261.129 541.746 259.711 542.176C258.311 542.605 256.668 542.82 254.783 542.82C252.916 542.82 251.273 542.605 249.855 542.176C248.455 541.746 247.363 541.13 246.579 540.328C245.795 539.525 245.403 538.573 245.403 537.472C245.403 536.389 245.795 535.446 246.579 534.644C247.363 533.841 248.455 533.225 249.855 532.796C251.273 532.366 252.916 532.152 254.783 532.152ZM254.783 535.092C253.644 535.092 252.655 535.185 251.815 535.372C250.975 535.558 250.34 535.829 249.911 536.184C249.481 536.52 249.267 536.949 249.267 537.472C249.267 537.994 249.481 538.433 249.911 538.788C250.34 539.142 250.975 539.413 251.815 539.6C252.655 539.786 253.644 539.88 254.783 539.88C255.959 539.88 256.957 539.786 257.779 539.6C258.6 539.413 259.225 539.142 259.655 538.788C260.103 538.433 260.327 537.994 260.327 537.472C260.327 536.949 260.103 536.52 259.655 536.184C259.225 535.829 258.6 535.558 257.779 535.372C256.957 535.185 255.959 535.092 254.783 535.092ZM58.6375 569.384H61.6895V573.136C61.6895 574.816 61.5401 576.43 61.2415 577.98C60.9428 579.51 60.4855 580.948 59.8695 582.292C59.2721 583.617 58.4975 584.793 57.5455 585.82C56.6121 586.828 55.5015 587.63 54.2135 588.228L52.0015 585.148C53.1401 584.644 54.1201 583.981 54.9415 583.16C55.7815 582.32 56.4721 581.368 57.0135 580.304C57.5548 579.221 57.9561 578.073 58.2175 576.86C58.4975 575.646 58.6375 574.405 58.6375 573.136V569.384ZM59.3655 569.384H62.3895V573.136C62.3895 574.349 62.5201 575.534 62.7815 576.692C63.0428 577.849 63.4348 578.941 63.9575 579.968C64.4988 580.994 65.1708 581.909 65.9735 582.712C66.7948 583.496 67.7561 584.121 68.8575 584.588L66.7015 587.612C65.4508 587.033 64.3588 586.258 63.4255 585.288C62.5108 584.317 61.7548 583.197 61.1575 581.928C60.5601 580.64 60.1121 579.258 59.8135 577.784C59.5148 576.29 59.3655 574.741 59.3655 573.136V569.384ZM70.1175 567.34H73.8415V593.352H70.1175V567.34ZM94.1673 567.396H97.9193V585.932H94.1673V567.396ZM96.8833 574.62H101.363V577.672H96.8833V574.62ZM86.9713 569.328H90.9193C90.9193 571.68 90.4526 573.78 89.5193 575.628C88.5859 577.476 87.2233 579.053 85.4313 580.36C83.6579 581.666 81.4739 582.693 78.8793 583.44L77.3393 580.5C79.4486 579.902 81.2126 579.137 82.6313 578.204C84.0686 577.27 85.1513 576.206 85.8793 575.012C86.6073 573.817 86.9713 572.529 86.9713 571.148V569.328ZM78.4593 569.328H88.9593V572.296H78.4593V569.328ZM81.1753 589.88H98.8153V592.876H81.1753V589.88ZM81.1753 584.056H84.8993V591.224H81.1753V584.056ZM114.465 567.732C117.414 567.732 119.71 568.114 121.353 568.88C123.014 569.645 123.845 570.746 123.845 572.184C123.845 573.602 123.014 574.694 121.353 575.46C119.71 576.225 117.414 576.608 114.465 576.608C111.497 576.608 109.182 576.225 107.521 575.46C105.878 574.694 105.057 573.602 105.057 572.184C105.057 570.746 105.878 569.645 107.521 568.88C109.182 568.114 111.497 567.732 114.465 567.732ZM114.437 570.476C113.205 570.476 112.178 570.541 111.357 570.672C110.536 570.784 109.92 570.97 109.509 571.232C109.117 571.474 108.921 571.792 108.921 572.184C108.921 572.576 109.117 572.902 109.509 573.164C109.92 573.406 110.536 573.584 111.357 573.696C112.178 573.808 113.205 573.864 114.437 573.864C115.688 573.864 116.724 573.808 117.545 573.696C118.366 573.584 118.973 573.406 119.365 573.164C119.757 572.902 119.953 572.576 119.953 572.184C119.953 571.792 119.757 571.474 119.365 571.232C118.973 570.97 118.366 570.784 117.545 570.672C116.724 570.541 115.688 570.476 114.437 570.476ZM102.705 577.812H126.169V580.752H102.705V577.812ZM105.393 582.208H123.313V588.844H109.117V591.14H105.421V586.268H119.645V584.952H105.393V582.208ZM105.421 590.328H124.013V593.156H105.421V590.328ZM135.109 587.276H158.601V590.3H135.109V587.276ZM144.965 581.732H148.661V588.004H144.965V581.732ZM137.573 569.02H141.297V573.024H152.329V569.02H156.025V582.516H137.573V569.02ZM141.297 575.936V579.548H152.329V575.936H141.297ZM178.955 567.368H182.483V593.296H178.955V567.368ZM175.567 577.364H179.879V580.36H175.567V577.364ZM173.159 567.816H176.631V592.092H173.159V567.816ZM161.315 570.252H165.039V585.232H161.315V570.252ZM161.315 583.804H163.107C164.358 583.804 165.702 583.766 167.139 583.692C168.595 583.598 170.126 583.393 171.731 583.076L172.067 586.268C170.387 586.566 168.8 586.762 167.307 586.856C165.814 586.949 164.414 586.996 163.107 586.996H161.315V583.804ZM187.913 569.58H204.321V572.548H187.913V569.58ZM185.505 587.164H208.969V590.188H185.505V587.164ZM193.793 578.26H197.545V588.676H193.793V578.26ZM202.977 569.58H206.729V572.044C206.729 573.126 206.71 574.274 206.673 575.488C206.654 576.701 206.57 578.045 206.421 579.52C206.29 580.994 206.047 582.646 205.693 584.476L201.969 584.084C202.491 581.489 202.79 579.23 202.865 577.308C202.939 575.366 202.977 573.612 202.977 572.044V569.58ZM223.705 583.132H226.505V584C226.505 585.306 226.3 586.548 225.889 587.724C225.478 588.9 224.844 589.936 223.985 590.832C223.145 591.746 222.044 592.446 220.681 592.932L218.889 590.216C220.028 589.824 220.952 589.301 221.661 588.648C222.37 587.994 222.884 587.266 223.201 586.464C223.537 585.642 223.705 584.821 223.705 584V583.132ZM224.629 583.132H227.289V584C227.289 584.821 227.438 585.652 227.737 586.492C228.054 587.313 228.53 588.069 229.165 588.76C229.818 589.45 230.677 590.01 231.741 590.44L230.229 593.212C228.866 592.689 227.774 591.942 226.953 590.972C226.132 590.02 225.534 588.937 225.161 587.724C224.806 586.492 224.629 585.25 224.629 584V583.132ZM233.141 583.132H235.801V584C235.801 585.194 235.614 586.398 235.241 587.612C234.886 588.825 234.298 589.926 233.477 590.916C232.674 591.905 231.592 592.67 230.229 593.212L228.717 590.44C229.762 589.973 230.612 589.385 231.265 588.676C231.918 587.948 232.394 587.182 232.693 586.38C232.992 585.558 233.141 584.765 233.141 584V583.132ZM234.009 583.132H236.809V584C236.809 584.877 236.968 585.726 237.285 586.548C237.621 587.369 238.144 588.097 238.853 588.732C239.562 589.366 240.486 589.861 241.625 590.216L239.833 592.932C238.47 592.465 237.36 591.784 236.501 590.888C235.642 590.01 235.008 588.984 234.597 587.808C234.205 586.613 234.009 585.344 234.009 584V583.132ZM235.689 567.396H239.413V582.068H235.689V567.396ZM225.301 568.712C226.645 568.712 227.849 568.982 228.913 569.524C229.977 570.046 230.817 570.774 231.433 571.708C232.049 572.641 232.357 573.714 232.357 574.928C232.357 576.141 232.049 577.214 231.433 578.148C230.817 579.081 229.977 579.818 228.913 580.36C227.849 580.882 226.645 581.144 225.301 581.144C223.957 581.144 222.753 580.882 221.689 580.36C220.625 579.818 219.785 579.081 219.169 578.148C218.553 577.214 218.245 576.141 218.245 574.928C218.245 573.714 218.553 572.641 219.169 571.708C219.785 570.774 220.625 570.046 221.689 569.524C222.753 568.982 223.957 568.712 225.301 568.712ZM225.301 571.792C224.666 571.792 224.088 571.922 223.565 572.184C223.042 572.426 222.632 572.781 222.333 573.248C222.034 573.696 221.885 574.256 221.885 574.928C221.885 575.581 222.034 576.15 222.333 576.636C222.632 577.102 223.042 577.457 223.565 577.7C224.088 577.942 224.666 578.064 225.301 578.064C225.954 578.064 226.533 577.942 227.037 577.7C227.56 577.457 227.97 577.102 228.269 576.636C228.568 576.15 228.717 575.581 228.717 574.928C228.717 574.256 228.568 573.696 228.269 573.248C227.97 572.781 227.56 572.426 227.037 572.184C226.533 571.922 225.954 571.792 225.301 571.792ZM250.163 569.16C251.451 569.16 252.599 569.542 253.607 570.308C254.633 571.054 255.427 572.128 255.987 573.528C256.565 574.909 256.855 576.542 256.855 578.428C256.855 580.332 256.565 581.984 255.987 583.384C255.427 584.765 254.633 585.838 253.607 586.604C252.599 587.35 251.451 587.724 250.163 587.724C248.875 587.724 247.727 587.35 246.719 586.604C245.711 585.838 244.917 584.765 244.339 583.384C243.76 581.984 243.471 580.332 243.471 578.428C243.471 576.542 243.76 574.909 244.339 573.528C244.917 572.128 245.711 571.054 246.719 570.308C247.727 569.542 248.875 569.16 250.163 569.16ZM250.163 572.548C249.547 572.548 248.996 572.772 248.511 573.22C248.044 573.668 247.68 574.33 247.419 575.208C247.157 576.066 247.027 577.14 247.027 578.428C247.027 579.697 247.157 580.78 247.419 581.676C247.68 582.553 248.044 583.216 248.511 583.664C248.996 584.112 249.547 584.336 250.163 584.336C250.816 584.336 251.376 584.112 251.843 583.664C252.309 583.216 252.673 582.553 252.935 581.676C253.196 580.78 253.327 579.697 253.327 578.428C253.327 577.14 253.196 576.066 252.935 575.208C252.673 574.33 252.309 573.668 251.843 573.22C251.376 572.772 250.816 572.548 250.163 572.548ZM261.111 567.34H264.835V593.352H261.111V567.34ZM255.763 576.72H262.679V579.688H255.763V576.72ZM273.429 580.556H277.153V587.808H273.429V580.556ZM282.837 580.556H286.561V587.808H282.837V580.556ZM268.277 587.276H291.769V590.3H268.277V587.276ZM279.981 568.656C281.847 568.656 283.509 568.945 284.965 569.524C286.439 570.102 287.587 570.914 288.409 571.96C289.249 572.986 289.669 574.209 289.669 575.628C289.669 577.028 289.249 578.25 288.409 579.296C287.587 580.322 286.439 581.125 284.965 581.704C283.509 582.282 281.847 582.572 279.981 582.572C278.133 582.572 276.471 582.282 274.997 581.704C273.541 581.125 272.393 580.322 271.553 579.296C270.713 578.25 270.293 577.028 270.293 575.628C270.293 574.209 270.713 572.986 271.553 571.96C272.393 570.914 273.541 570.102 274.997 569.524C276.471 568.945 278.133 568.656 279.981 568.656ZM279.981 571.54C278.786 571.54 277.731 571.708 276.817 572.044C275.921 572.361 275.221 572.818 274.717 573.416C274.213 574.013 273.961 574.75 273.961 575.628C273.961 576.468 274.213 577.196 274.717 577.812C275.221 578.409 275.921 578.876 276.817 579.212C277.731 579.529 278.786 579.688 279.981 579.688C281.194 579.688 282.249 579.529 283.145 579.212C284.059 578.876 284.759 578.409 285.245 577.812C285.749 577.196 286.001 576.468 286.001 575.628C286.001 574.75 285.749 574.013 285.245 573.416C284.759 572.818 284.059 572.361 283.145 572.044C282.249 571.708 281.194 571.54 279.981 571.54Z" fill="white"/>
<path d="M62.9585 659.714H64.5545V670.826H62.9585V659.714ZM55.5665 660.734H61.8065V661.994H55.5665V660.734ZM55.4345 668.282L55.2785 666.986C55.9505 666.986 56.6785 666.982 57.4625 666.974C58.2465 666.958 59.0465 666.93 59.8625 666.89C60.6865 666.842 61.4785 666.77 62.2385 666.674L62.3345 667.826C61.5585 667.954 60.7625 668.054 59.9465 668.126C59.1385 668.19 58.3505 668.23 57.5825 668.246C56.8145 668.262 56.0985 668.274 55.4345 668.282ZM56.5265 661.73H58.0745V667.334H56.5265V661.73ZM59.2985 661.73H60.8465V667.334H59.2985V661.73ZM67.2776 664.838H75.0896V666.098H67.2776V664.838ZM66.1016 668.186H76.1696V669.482H66.1016V668.186ZM67.2776 660.614H75.0056V661.91H68.8616V665.366H67.2776V660.614ZM77.2847 660.41H78.7847V661.982H80.2007V660.41H81.6767V665.798H77.2847V660.41ZM78.7847 663.194V664.538H80.2007V663.194H78.7847ZM84.8447 659.714H86.3687V666.398H84.8447V659.714ZM83.5247 662.426H85.2887V663.71H83.5247V662.426ZM82.5047 659.906H83.9927V666.362H82.5047V659.906ZM78.7247 666.914H86.3687V670.826H84.7727V668.174H78.7247V666.914ZM91.3041 666.854H92.2041C92.8601 666.854 93.4481 666.846 93.9681 666.83C94.4961 666.814 94.9961 666.786 95.4681 666.746C95.9401 666.698 96.4161 666.63 96.8961 666.542L97.0521 667.838C96.5481 667.926 96.0521 667.994 95.5641 668.042C95.0841 668.09 94.5721 668.122 94.0281 668.138C93.4921 668.154 92.8841 668.162 92.2041 668.162H91.3041V666.854ZM91.3041 660.686H96.3321V661.958H92.9001V667.358H91.3041V660.686ZM98.5041 659.702H100.1V670.85H98.5041V659.702ZM95.7921 663.542H99.1881V664.838H95.7921V663.542ZM101.575 668.234H111.643V669.53H101.575V668.234ZM105.799 665.858H107.383V668.546H105.799V665.858ZM102.631 660.41H104.227V662.126H108.955V660.41H110.539V666.194H102.631V660.41ZM104.227 663.374V664.922H108.955V663.374H104.227ZM120.03 659.702H121.626V670.814H120.03V659.702ZM116.754 660.854H118.326C118.326 661.702 118.242 662.514 118.074 663.29C117.914 664.058 117.642 664.782 117.258 665.462C116.882 666.142 116.362 666.774 115.698 667.358C115.042 667.934 114.222 668.462 113.238 668.942L112.398 667.682C113.47 667.162 114.322 666.59 114.954 665.966C115.594 665.334 116.054 664.622 116.334 663.83C116.614 663.03 116.754 662.134 116.754 661.142V660.854ZM112.998 660.854H117.498V662.126H112.998V660.854ZM128.89 669.062L130.498 666.458L128.89 663.878H130.21L131.938 666.458L130.21 669.062H128.89ZM126.466 667.01V665.918H130.786V667.01H126.466Z" fill="white"/>
<path d="M51.5118 183.782V170.782L52.6518 171.962H48.5518V169.782H54.1118V183.782H51.5118ZM56.309 183.782V182.042L61.869 176.762C62.3357 176.322 62.6823 175.936 62.909 175.602C63.1357 175.269 63.2823 174.962 63.349 174.682C63.429 174.389 63.469 174.116 63.469 173.862C63.469 173.222 63.249 172.729 62.809 172.382C62.369 172.022 61.7223 171.842 60.869 171.842C60.189 171.842 59.569 171.962 59.009 172.202C58.4623 172.442 57.989 172.809 57.589 173.302L55.769 171.902C56.3157 171.169 57.049 170.602 57.969 170.202C58.9023 169.789 59.9423 169.582 61.089 169.582C62.1023 169.582 62.9823 169.749 63.729 170.082C64.489 170.402 65.069 170.862 65.469 171.462C65.8823 172.062 66.089 172.776 66.089 173.602C66.089 174.056 66.029 174.509 65.909 174.962C65.789 175.402 65.5623 175.869 65.229 176.362C64.8957 176.856 64.409 177.409 63.769 178.022L58.989 182.562L58.449 181.582H66.629V183.782H56.309ZM78.697 183.982C77.5903 183.982 76.5903 183.702 75.697 183.142C74.817 182.582 74.1236 181.769 73.617 180.702C73.1103 179.622 72.857 178.316 72.857 176.782C72.857 175.249 73.1103 173.949 73.617 172.882C74.1236 171.802 74.817 170.982 75.697 170.422C76.5903 169.862 77.5903 169.582 78.697 169.582C79.817 169.582 80.817 169.862 81.697 170.422C82.577 170.982 83.2703 171.802 83.777 172.882C84.297 173.949 84.557 175.249 84.557 176.782C84.557 178.316 84.297 179.622 83.777 180.702C83.2703 181.769 82.577 182.582 81.697 183.142C80.817 183.702 79.817 183.982 78.697 183.982ZM78.697 181.722C79.3503 181.722 79.917 181.549 80.397 181.202C80.877 180.842 81.2503 180.296 81.517 179.562C81.797 178.829 81.937 177.902 81.937 176.782C81.937 175.649 81.797 174.722 81.517 174.002C81.2503 173.269 80.877 172.729 80.397 172.382C79.917 172.022 79.3503 171.842 78.697 171.842C78.0703 171.842 77.5103 172.022 77.017 172.382C76.537 172.729 76.157 173.269 75.877 174.002C75.6103 174.722 75.477 175.649 75.477 176.782C75.477 177.902 75.6103 178.829 75.877 179.562C76.157 180.296 76.537 180.842 77.017 181.202C77.5103 181.549 78.0703 181.722 78.697 181.722ZM85.714 180.602V178.802L92.614 169.782H95.394L88.594 178.802L87.294 178.402H98.394V180.602H85.714ZM93.394 183.782V180.602L93.474 178.402V175.582H95.914V183.782H93.394Z" fill="#636363"/>
<path d="M54.216 209.282L48.648 192.482H51.888L56.856 207.674H55.248L60.408 192.482H63.288L68.304 207.674H66.744L71.832 192.482H74.808L69.24 209.282H65.928L61.344 195.578H62.208L57.552 209.282H54.216ZM81.6448 209.45C80.2208 209.45 78.9728 209.17 77.9008 208.61C76.8448 208.034 76.0208 207.25 75.4288 206.258C74.8528 205.266 74.5648 204.138 74.5648 202.874C74.5648 201.594 74.8448 200.466 75.4048 199.49C75.9808 198.498 76.7648 197.722 77.7568 197.162C78.7648 196.602 79.9088 196.322 81.1888 196.322C82.4368 196.322 83.5488 196.594 84.5248 197.138C85.5008 197.682 86.2688 198.45 86.8288 199.442C87.3888 200.434 87.6688 201.602 87.6688 202.946C87.6688 203.074 87.6608 203.218 87.6448 203.378C87.6448 203.538 87.6368 203.69 87.6208 203.834H76.9408V201.842H86.0368L84.8608 202.466C84.8768 201.73 84.7248 201.082 84.4048 200.522C84.0848 199.962 83.6448 199.522 83.0848 199.202C82.5408 198.882 81.9088 198.722 81.1888 198.722C80.4528 198.722 79.8048 198.882 79.2448 199.202C78.7008 199.522 78.2688 199.97 77.9488 200.546C77.6448 201.106 77.4928 201.77 77.4928 202.538V203.018C77.4928 203.786 77.6688 204.466 78.0208 205.058C78.3728 205.65 78.8688 206.106 79.5088 206.426C80.1488 206.746 80.8848 206.906 81.7168 206.906C82.4368 206.906 83.0848 206.794 83.6608 206.57C84.2368 206.346 84.7488 205.994 85.1968 205.514L86.8048 207.362C86.2288 208.034 85.5008 208.554 84.6208 208.922C83.7568 209.274 82.7648 209.45 81.6448 209.45ZM96.0945 209.45C94.6705 209.45 93.4225 209.17 92.3505 208.61C91.2945 208.034 90.4705 207.25 89.8785 206.258C89.3025 205.266 89.0145 204.138 89.0145 202.874C89.0145 201.594 89.2945 200.466 89.8545 199.49C90.4305 198.498 91.2145 197.722 92.2065 197.162C93.2145 196.602 94.3585 196.322 95.6385 196.322C96.8865 196.322 97.9985 196.594 98.9745 197.138C99.9505 197.682 100.719 198.45 101.279 199.442C101.839 200.434 102.119 201.602 102.119 202.946C102.119 203.074 102.111 203.218 102.095 203.378C102.095 203.538 102.087 203.69 102.071 203.834H91.3905V201.842H100.487L99.3105 202.466C99.3265 201.73 99.1745 201.082 98.8545 200.522C98.5345 199.962 98.0945 199.522 97.5345 199.202C96.9905 198.882 96.3585 198.722 95.6385 198.722C94.9025 198.722 94.2545 198.882 93.6945 199.202C93.1505 199.522 92.7185 199.97 92.3985 200.546C92.0945 201.106 91.9425 201.77 91.9425 202.538V203.018C91.9425 203.786 92.1185 204.466 92.4705 205.058C92.8225 205.65 93.3185 206.106 93.9585 206.426C94.5985 206.746 95.3345 206.906 96.1665 206.906C96.8865 206.906 97.5345 206.794 98.1105 206.57C98.6865 206.346 99.1985 205.994 99.6465 205.514L101.255 207.362C100.679 208.034 99.9505 208.554 99.0705 208.922C98.2065 209.274 97.2145 209.45 96.0945 209.45ZM106.968 206.426L107.04 202.658L113.736 196.466H117.336L111.648 202.178L110.064 203.498L106.968 206.426ZM104.52 209.282V191.474H107.52V209.282H104.52ZM114.192 209.282L109.512 203.498L111.408 201.098L117.84 209.282H114.192ZM119.275 209.282V191.474H122.275V209.282H119.275ZM126.788 214.106C126.164 214.106 125.54 214.002 124.916 213.794C124.292 213.586 123.772 213.298 123.356 212.93L124.556 210.722C124.86 210.994 125.204 211.21 125.588 211.37C125.972 211.53 126.364 211.61 126.764 211.61C127.308 211.61 127.748 211.474 128.084 211.202C128.42 210.93 128.732 210.474 129.02 209.834L129.764 208.154L130.004 207.794L134.852 196.466H137.732L131.732 210.314C131.332 211.274 130.884 212.034 130.388 212.594C129.908 213.154 129.364 213.546 128.756 213.77C128.164 213.994 127.508 214.106 126.788 214.106ZM129.428 209.738L123.644 196.466H126.764L131.468 207.53L129.428 209.738ZM145.688 209.282V195.746C145.688 194.402 146.08 193.33 146.864 192.53C147.664 191.714 148.8 191.306 150.272 191.306C150.8 191.306 151.296 191.362 151.76 191.474C152.24 191.586 152.64 191.762 152.96 192.002L152.144 194.258C151.92 194.082 151.664 193.954 151.376 193.874C151.088 193.778 150.792 193.73 150.488 193.73C149.864 193.73 149.392 193.906 149.072 194.258C148.752 194.594 148.592 195.106 148.592 195.794V197.234L148.688 198.578V209.282H145.688ZM143.576 198.962V196.562H152.12V198.962H143.576ZM159.496 209.45C158.072 209.45 156.824 209.17 155.752 208.61C154.696 208.034 153.872 207.25 153.28 206.258C152.704 205.266 152.416 204.138 152.416 202.874C152.416 201.594 152.696 200.466 153.256 199.49C153.832 198.498 154.616 197.722 155.608 197.162C156.616 196.602 157.76 196.322 159.04 196.322C160.288 196.322 161.4 196.594 162.376 197.138C163.352 197.682 164.12 198.45 164.68 199.442C165.24 200.434 165.52 201.602 165.52 202.946C165.52 203.074 165.512 203.218 165.496 203.378C165.496 203.538 165.488 203.69 165.472 203.834H154.792V201.842H163.888L162.712 202.466C162.728 201.73 162.576 201.082 162.256 200.522C161.936 199.962 161.496 199.522 160.936 199.202C160.392 198.882 159.76 198.722 159.04 198.722C158.304 198.722 157.656 198.882 157.096 199.202C156.552 199.522 156.12 199.97 155.8 200.546C155.496 201.106 155.344 201.77 155.344 202.538V203.018C155.344 203.786 155.52 204.466 155.872 205.058C156.224 205.65 156.72 206.106 157.36 206.426C158 206.746 158.736 206.906 159.568 206.906C160.288 206.906 160.936 206.794 161.512 206.57C162.088 206.346 162.6 205.994 163.048 205.514L164.656 207.362C164.08 208.034 163.352 208.554 162.472 208.922C161.608 209.274 160.616 209.45 159.496 209.45ZM173.945 209.45C172.521 209.45 171.273 209.17 170.201 208.61C169.145 208.034 168.321 207.25 167.729 206.258C167.153 205.266 166.865 204.138 166.865 202.874C166.865 201.594 167.145 200.466 167.705 199.49C168.281 198.498 169.065 197.722 170.057 197.162C171.065 196.602 172.209 196.322 173.489 196.322C174.737 196.322 175.849 196.594 176.825 197.138C177.801 197.682 178.569 198.45 179.129 199.442C179.689 200.434 179.969 201.602 179.969 202.946C179.969 203.074 179.961 203.218 179.945 203.378C179.945 203.538 179.937 203.69 179.921 203.834H169.241V201.842H178.337L177.161 202.466C177.177 201.73 177.025 201.082 176.705 200.522C176.385 199.962 175.945 199.522 175.385 199.202C174.841 198.882 174.209 198.722 173.489 198.722C172.753 198.722 172.105 198.882 171.545 199.202C171.001 199.522 170.569 199.97 170.249 200.546C169.945 201.106 169.793 201.77 169.793 202.538V203.018C169.793 203.786 169.969 204.466 170.321 205.058C170.673 205.65 171.169 206.106 171.809 206.426C172.449 206.746 173.185 206.906 174.017 206.906C174.737 206.906 175.385 206.794 175.961 206.57C176.537 206.346 177.049 205.994 177.497 205.514L179.105 207.362C178.529 208.034 177.801 208.554 176.921 208.922C176.057 209.274 175.065 209.45 173.945 209.45ZM187.795 209.45C186.563 209.45 185.451 209.178 184.459 208.634C183.483 208.074 182.715 207.306 182.155 206.33C181.595 205.354 181.315 204.202 181.315 202.874C181.315 201.546 181.595 200.394 182.155 199.418C182.715 198.442 183.483 197.682 184.459 197.138C185.451 196.594 186.563 196.322 187.795 196.322C188.867 196.322 189.827 196.562 190.675 197.042C191.523 197.506 192.195 198.218 192.691 199.178C193.187 200.138 193.435 201.37 193.435 202.874C193.435 204.362 193.195 205.594 192.715 206.57C192.235 207.53 191.571 208.25 190.723 208.73C189.875 209.21 188.899 209.45 187.795 209.45ZM188.155 206.882C188.875 206.882 189.515 206.722 190.075 206.402C190.651 206.082 191.107 205.618 191.443 205.01C191.795 204.402 191.971 203.69 191.971 202.874C191.971 202.042 191.795 201.33 191.443 200.738C191.107 200.13 190.651 199.666 190.075 199.346C189.515 199.026 188.875 198.866 188.155 198.866C187.435 198.866 186.787 199.026 186.211 199.346C185.651 199.666 185.195 200.13 184.843 200.738C184.507 201.33 184.339 202.042 184.339 202.874C184.339 203.69 184.507 204.402 184.843 205.01C185.195 205.618 185.651 206.082 186.211 206.402C186.787 206.722 187.435 206.882 188.155 206.882ZM192.043 209.282V206.258L192.163 202.85L191.923 199.442V191.474H194.899V209.282H192.043ZM205.472 209.45C204.384 209.45 203.416 209.21 202.568 208.73C201.72 208.25 201.048 207.53 200.552 206.57C200.072 205.594 199.832 204.362 199.832 202.874C199.832 201.37 200.08 200.138 200.576 199.178C201.088 198.218 201.768 197.506 202.616 197.042C203.48 196.562 204.432 196.322 205.472 196.322C206.736 196.322 207.848 196.594 208.808 197.138C209.784 197.682 210.552 198.442 211.112 199.418C211.688 200.394 211.976 201.546 211.976 202.874C211.976 204.202 211.688 205.354 211.112 206.33C210.552 207.306 209.784 208.074 208.808 208.634C207.848 209.178 206.736 209.45 205.472 209.45ZM198.368 209.282V191.474H201.368V199.442L201.128 202.85L201.224 206.258V209.282H198.368ZM205.136 206.882C205.856 206.882 206.496 206.722 207.056 206.402C207.632 206.082 208.088 205.618 208.424 205.01C208.76 204.402 208.928 203.69 208.928 202.874C208.928 202.042 208.76 201.33 208.424 200.738C208.088 200.13 207.632 199.666 207.056 199.346C206.496 199.026 205.856 198.866 205.136 198.866C204.416 198.866 203.768 199.026 203.192 199.346C202.616 199.666 202.16 200.13 201.824 200.738C201.488 201.33 201.32 202.042 201.32 202.874C201.32 203.69 201.488 204.402 201.824 205.01C202.16 205.618 202.616 206.082 203.192 206.402C203.768 206.722 204.416 206.882 205.136 206.882ZM222.073 209.282V206.69L221.905 206.138V201.602C221.905 200.722 221.641 200.042 221.113 199.562C220.585 199.066 219.785 198.818 218.713 198.818C217.993 198.818 217.281 198.93 216.577 199.154C215.889 199.378 215.305 199.69 214.825 200.09L213.649 197.906C214.337 197.378 215.153 196.986 216.097 196.73C217.057 196.458 218.049 196.322 219.073 196.322C220.929 196.322 222.361 196.77 223.369 197.666C224.393 198.546 224.905 199.914 224.905 201.77V209.282H222.073ZM218.041 209.45C217.081 209.45 216.241 209.29 215.521 208.97C214.801 208.634 214.241 208.178 213.841 207.602C213.457 207.01 213.265 206.346 213.265 205.61C213.265 204.89 213.433 204.242 213.769 203.666C214.121 203.09 214.689 202.634 215.473 202.298C216.257 201.962 217.297 201.794 218.593 201.794H222.313V203.786H218.809C217.785 203.786 217.097 203.954 216.745 204.29C216.393 204.61 216.217 205.01 216.217 205.49C216.217 206.034 216.433 206.466 216.865 206.786C217.297 207.106 217.897 207.266 218.665 207.266C219.401 207.266 220.057 207.098 220.633 206.762C221.225 206.426 221.649 205.93 221.905 205.274L222.409 207.074C222.121 207.826 221.601 208.41 220.849 208.826C220.113 209.242 219.177 209.45 218.041 209.45ZM234.178 209.45C232.834 209.45 231.634 209.17 230.578 208.61C229.538 208.034 228.722 207.25 228.13 206.258C227.538 205.266 227.242 204.138 227.242 202.874C227.242 201.594 227.538 200.466 228.13 199.49C228.722 198.498 229.538 197.722 230.578 197.162C231.634 196.602 232.834 196.322 234.178 196.322C235.426 196.322 236.522 196.578 237.466 197.09C238.426 197.586 239.154 198.322 239.65 199.298L237.346 200.642C236.962 200.034 236.49 199.586 235.93 199.298C235.386 199.01 234.794 198.866 234.154 198.866C233.418 198.866 232.754 199.026 232.162 199.346C231.57 199.666 231.106 200.13 230.77 200.738C230.434 201.33 230.266 202.042 230.266 202.874C230.266 203.706 230.434 204.426 230.77 205.034C231.106 205.626 231.57 206.082 232.162 206.402C232.754 206.722 233.418 206.882 234.154 206.882C234.794 206.882 235.386 206.738 235.93 206.45C236.49 206.162 236.962 205.714 237.346 205.106L239.65 206.45C239.154 207.41 238.426 208.154 237.466 208.682C236.522 209.194 235.426 209.45 234.178 209.45ZM244.094 206.426L244.166 202.658L250.862 196.466H254.462L248.774 202.178L247.19 203.498L244.094 206.426ZM241.646 209.282V191.474H244.646V209.282H241.646ZM251.318 209.282L246.638 203.498L248.534 201.098L254.966 209.282H251.318Z" fill="#636363"/>
<rect x="-0.220703" y="721.141" width="417.903" height="167.315" fill="url(#paint1_linear_487_2499)"/>
<path d="M60.9111 615.062V624.633H60.0625V615.062H60.9111ZM55.8301 615.803C57.248 615.814 58.2686 617.103 58.2686 619.133C58.2686 621.164 57.248 622.453 55.8301 622.453C54.4014 622.453 53.3916 621.164 53.3916 619.133C53.3916 617.103 54.4014 615.814 55.8301 615.803ZM55.8301 616.555C54.874 616.566 54.208 617.576 54.208 619.133C54.208 620.691 54.874 621.701 55.8301 621.701C56.7861 621.701 57.4521 620.691 57.4521 619.133C57.4521 617.576 56.7861 616.566 55.8301 616.555ZM70.2302 615.062V624.633H69.3923V619.445H67.5339V618.736H69.3923V615.062H70.2302ZM66.9538 615.954V619.294H63.5271V621.615C65.1706 621.615 66.363 621.566 67.7595 621.303L67.8239 622.012C66.3845 622.27 65.1491 622.324 63.4196 622.334H62.6892V618.596H66.1374V616.652H62.657V615.954H66.9538ZM79.4848 615.062V624.633H78.6362V615.062H79.4848ZM74.4037 615.803C75.8217 615.814 76.8422 617.103 76.8422 619.133C76.8422 621.164 75.8217 622.453 74.4037 622.453C72.975 622.453 71.9653 621.164 71.9653 619.133C71.9653 617.103 72.975 615.814 74.4037 615.803ZM74.4037 616.555C73.4477 616.566 72.7817 617.576 72.7817 619.133C72.7817 620.691 73.4477 621.701 74.4037 621.701C75.3598 621.701 76.0258 620.691 76.0258 619.133C76.0258 617.576 75.3598 616.566 74.4037 616.555ZM85.5382 615.739V618.532H82.1437V620.068C83.943 620.068 85.0387 620.02 86.3332 619.799L86.4084 620.508C85.0548 620.723 83.9269 620.766 82.0255 620.766H81.2951V617.844H84.7004V616.426H81.2736V615.739H85.5382ZM88.8146 615.073V622.087H87.966V618.295H86.1505V617.565H87.966V615.073H88.8146ZM89.1046 623.699V624.408H82.6164V621.55H83.4543V623.699H89.1046ZM97.6503 615.073V618.22H99.0897V618.929H97.6503V622.227H96.8124V615.073H97.6503ZM95.8993 616.244V616.931H90.2059V616.244H92.6337V615.073H93.4716V616.244H95.8993ZM93.0526 617.458C94.4169 617.458 95.3407 618.156 95.3514 619.241C95.3407 620.315 94.4169 621.002 93.0526 621.002C91.6776 621.002 90.743 620.315 90.7538 619.241C90.743 618.156 91.6776 617.458 93.0526 617.458ZM93.0526 618.124C92.1503 618.124 91.5487 618.564 91.5595 619.241C91.5487 619.917 92.1503 620.347 93.0526 620.336C93.9442 620.347 94.5458 619.917 94.5565 619.241C94.5458 618.564 93.9442 618.124 93.0526 618.124ZM98.0907 623.699V624.408H91.6776V621.658H92.5048V623.699H98.0907ZM109.682 615.449V617.93H103.924V619.166H109.886V619.864H103.076V617.264H108.823V616.136H103.054V615.449H109.682ZM110.745 620.874V621.55H106.771V624.633H105.933V621.55H102.001V620.874H110.745ZM119.184 615.073V622.173H118.346V615.073H119.184ZM119.484 623.699V624.408H113.018V621.54H113.856V623.699H119.484ZM116.434 615.814V616.512H112.706V617.844H116.165V618.51H112.706V619.896C114.742 619.896 115.87 619.858 117.218 619.627L117.304 620.304C115.907 620.551 114.736 620.594 112.631 620.594H111.857V615.814H116.434ZM124.936 615.234C127.063 615.234 128.309 615.814 128.309 616.877C128.309 617.962 127.063 618.542 124.936 618.553C122.809 618.542 121.552 617.962 121.552 616.877C121.552 615.814 122.809 615.234 124.936 615.234ZM124.936 615.868C123.346 615.868 122.423 616.254 122.433 616.877C122.423 617.543 123.346 617.909 124.936 617.909C126.515 617.909 127.45 617.543 127.45 616.877C127.45 616.254 126.515 615.868 124.936 615.868ZM129.287 619.198V619.885H120.586V619.198H129.287ZM128.17 620.712V622.85H122.498V623.838H128.46V624.504H121.66V622.227H127.343V621.357H121.638V620.712H128.17ZM141.114 620.841V621.55H137.172V624.633H136.345V621.55H132.413V620.841H141.114ZM137.183 616.953C137.183 618.145 138.848 619.187 140.556 619.423L140.244 620.1C138.767 619.875 137.376 619.133 136.775 618.091C136.162 619.144 134.75 619.875 133.273 620.1L132.961 619.423C134.658 619.187 136.345 618.156 136.345 616.953V616.942H133.262V616.254H136.345V615.062H137.172V616.254H140.277V616.942H137.183V616.953ZM149.091 615.062V618.951H150.638V619.66H149.091V624.612H148.253V615.062H149.091ZM146.62 616.093C146.62 618.8 145.352 621.26 142.237 622.796L141.765 622.13C144.235 620.9 145.578 619.063 145.771 616.802H142.205V616.093H146.62ZM155.756 616.716V617.404H150.965V616.716H152.953V615.352H153.791V616.716H155.756ZM153.361 618.048C154.564 618.048 155.423 618.951 155.434 620.218C155.423 621.497 154.564 622.41 153.361 622.41C152.169 622.41 151.309 621.497 151.309 620.218C151.309 618.951 152.169 618.048 153.361 618.048ZM153.361 618.757C152.609 618.768 152.061 619.38 152.061 620.218C152.061 621.067 152.609 621.679 153.361 621.668C154.124 621.679 154.682 621.067 154.682 620.218C154.682 619.38 154.124 618.768 153.361 618.757ZM159.119 615.062V624.612H158.313V619.789H157.046V624.139H156.251V615.298H157.046V619.09H158.313V615.062H159.119ZM171.559 622.689V623.387H162.815V622.689H166.746V620.626H163.846V615.739H164.694V617.468H169.657V615.739H170.484V620.626H167.573V622.689H171.559ZM164.694 619.939H169.657V618.156H164.694V619.939ZM179.825 617.962V618.639H173.283V615.417H174.121V617.962H179.825ZM180.835 619.939V620.626H172.091V619.939H180.835ZM179.879 623.677V624.375H173.229V621.604H174.067V623.677H179.879ZM189.305 615.073V621.54H188.457V618.467H186.362V617.758H188.457V615.073H189.305ZM186.319 615.825C186.308 618.274 184.675 620.036 181.925 620.917L181.549 620.24C183.832 619.536 185.239 618.209 185.417 616.512H182.022V615.825H186.319ZM186.62 621.142C186.62 622.539 188.145 623.581 189.832 623.881L189.477 624.558C188.07 624.284 186.775 623.548 186.211 622.431C185.626 623.554 184.315 624.3 182.892 624.58L182.548 623.914C184.235 623.624 185.782 622.549 185.792 621.142V620.702H186.62V621.142ZM198.549 615.062V624.633H197.7V615.062H198.549ZM193.468 615.803C194.886 615.814 195.906 617.103 195.906 619.133C195.906 621.164 194.886 622.453 193.468 622.453C192.039 622.453 191.03 621.164 191.03 619.133C191.03 617.103 192.039 615.814 193.468 615.803ZM193.468 616.555C192.512 616.566 191.846 617.576 191.846 619.133C191.846 620.691 192.512 621.701 193.468 621.701C194.424 621.701 195.09 620.691 195.09 619.133C195.09 617.576 194.424 616.566 193.468 616.555ZM205.07 615.803C206.37 615.814 207.304 616.926 207.444 618.714H209.582V615.062H210.42V624.633H209.582V619.413H207.455C207.353 621.282 206.402 622.453 205.07 622.453C203.663 622.453 202.674 621.164 202.674 619.133C202.674 617.103 203.663 615.814 205.07 615.803ZM205.07 616.555C204.125 616.566 203.48 617.576 203.48 619.133C203.48 620.691 204.125 621.701 205.07 621.701C206.005 621.701 206.66 620.691 206.66 619.133C206.66 617.576 206.005 616.566 205.07 616.555ZM220.05 623.699V624.408H213.401V621.443H214.239V623.699H220.05ZM219.792 615.073V622.012H218.965V618.403H217.204V617.705H218.965V615.073H219.792ZM214.475 615.857V616.555H212.885V619.778C213.374 619.767 213.949 619.713 214.582 619.574L214.668 620.272C213.777 620.465 213.079 620.465 212.466 620.465H212.058V615.857H214.475ZM217.665 615.857V616.555H215.85V619.789C216.666 619.778 217.3 619.729 218.031 619.552L218.117 620.25C217.225 620.444 216.527 620.465 215.485 620.465H215.001V615.857H217.665ZM228.467 615.062V618.951H230.014V619.66H228.467V624.612H227.629V615.062H228.467ZM225.996 616.093C225.996 618.8 224.729 621.26 221.613 622.796L221.141 622.13C223.611 620.9 224.954 619.063 225.148 616.802H221.581V616.093H225.996ZM239.107 622.678V623.387H230.363V622.678H232.533V620.1C231.717 619.676 231.223 618.988 231.223 618.124C231.223 616.641 232.673 615.674 234.714 615.664C236.755 615.674 238.205 616.641 238.205 618.124C238.205 618.972 237.727 619.654 236.937 620.079V622.678H239.107ZM234.714 616.362C233.145 616.351 232.039 617.06 232.039 618.124C232.039 619.187 233.145 619.907 234.714 619.907C236.271 619.907 237.389 619.187 237.389 618.124C237.389 617.06 236.271 616.351 234.714 616.362ZM233.36 622.678H236.089V620.401C235.675 620.514 235.213 620.573 234.714 620.573C234.225 620.573 233.768 620.519 233.36 620.412V622.678ZM241.175 621.497C241.186 620.057 241.627 619.617 242.368 619.166C242.808 618.897 243.152 618.467 243.152 617.866C243.152 617.135 242.583 616.673 241.874 616.673C241.261 616.673 240.649 617.039 240.585 617.919H239.607C239.661 616.62 240.649 615.857 241.874 615.857C243.216 615.857 244.097 616.727 244.097 617.909C244.097 618.747 243.7 619.337 243.034 619.746C242.368 620.154 242.121 620.562 242.099 621.497V621.55H241.175V621.497ZM241.669 623.806C241.294 623.806 240.971 623.495 240.982 623.108C240.971 622.732 241.294 622.42 241.669 622.42C242.045 622.42 242.357 622.732 242.357 623.108C242.357 623.495 242.045 623.806 241.669 623.806ZM252.578 615.062V624.633H251.73V615.062H252.578ZM247.497 615.803C248.915 615.814 249.936 617.103 249.936 619.133C249.936 621.164 248.915 622.453 247.497 622.453C246.069 622.453 245.059 621.164 245.059 619.133C245.059 617.103 246.069 615.814 247.497 615.803ZM247.497 616.555C246.541 616.566 245.875 617.576 245.875 619.133C245.875 620.691 246.541 621.701 247.497 621.701C248.453 621.701 249.119 620.691 249.119 619.133C249.119 617.576 248.453 616.566 247.497 616.555ZM261.897 615.062V624.633H261.06V619.445H259.201V618.736H261.06V615.062H261.897ZM258.621 615.954V619.294H255.194V621.615C256.838 621.615 258.03 621.566 259.427 621.303L259.491 622.012C258.052 622.27 256.816 622.324 255.087 622.334H254.356V618.596H257.805V616.652H254.324V615.954H258.621ZM271.152 615.062V624.633H270.303V615.062H271.152ZM266.071 615.803C267.489 615.814 268.509 617.103 268.509 619.133C268.509 621.164 267.489 622.453 266.071 622.453C264.642 622.453 263.633 621.164 263.633 619.133C263.633 617.103 264.642 615.814 266.071 615.803ZM266.071 616.555C265.115 616.566 264.449 617.576 264.449 619.133C264.449 620.691 265.115 621.701 266.071 621.701C267.027 621.701 267.693 620.691 267.693 619.133C267.693 617.576 267.027 616.566 266.071 616.555ZM277.206 615.739V618.532H273.811V620.068C275.61 620.068 276.706 620.02 278 619.799L278.076 620.508C276.722 620.723 275.594 620.766 273.693 620.766H272.962V617.844H276.368V616.426H272.941V615.739H277.206ZM280.482 615.073V622.087H279.633V618.295H277.818V617.565H279.633V615.073H280.482ZM280.772 623.699V624.408H274.284V621.55H275.122V623.699H280.772ZM289.318 615.073V618.22H290.757V618.929H289.318V622.227H288.48V615.073H289.318ZM287.567 616.244V616.931H281.873V616.244H284.301V615.073H285.139V616.244H287.567ZM284.72 617.458C286.084 617.458 287.008 618.156 287.019 619.241C287.008 620.315 286.084 621.002 284.72 621.002C283.345 621.002 282.41 620.315 282.421 619.241C282.41 618.156 283.345 617.458 284.72 617.458ZM284.72 618.124C283.818 618.124 283.216 618.564 283.227 619.241C283.216 619.917 283.818 620.347 284.72 620.336C285.611 620.347 286.213 619.917 286.224 619.241C286.213 618.564 285.611 618.124 284.72 618.124ZM289.758 623.699V624.408H283.345V621.658H284.172V623.699H289.758ZM301.349 615.449V617.93H295.591V619.166H301.553V619.864H294.743V617.264H300.49V616.136H294.721V615.449H301.349ZM302.413 620.874V621.55H298.438V624.633H297.6V621.55H293.669V620.874H302.413ZM310.851 615.073V622.173H310.013V615.073H310.851ZM311.152 623.699V624.408H304.685V621.54H305.523V623.699H311.152ZM308.101 615.814V616.512H304.373V617.844H307.832V618.51H304.373V619.896C306.409 619.896 307.537 619.858 308.885 619.627L308.971 620.304C307.575 620.551 306.404 620.594 304.298 620.594H303.525V615.814H308.101ZM316.604 615.234C318.73 615.234 319.977 615.814 319.977 616.877C319.977 617.962 318.73 618.542 316.604 618.553C314.477 618.542 313.22 617.962 313.22 616.877C313.22 615.814 314.477 615.234 316.604 615.234ZM316.604 615.868C315.014 615.868 314.09 616.254 314.101 616.877C314.09 617.543 315.014 617.909 316.604 617.909C318.183 617.909 319.117 617.543 319.117 616.877C319.117 616.254 318.183 615.868 316.604 615.868ZM320.954 619.198V619.885H312.253V619.198H320.954ZM319.837 620.712V622.85H314.165V623.838H320.127V624.504H313.327V622.227H319.01V621.357H313.306V620.712H319.837ZM61.7383 635.841V636.55H57.7959V639.633H56.9688V636.55H53.0371V635.841H61.7383ZM57.8066 631.953C57.8066 633.145 59.4717 634.187 61.1797 634.423L60.8682 635.1C59.3911 634.875 58 634.133 57.3984 633.091C56.7861 634.144 55.3735 634.875 53.8965 635.1L53.585 634.423C55.2822 634.187 56.9688 633.156 56.9688 631.953V631.942H53.8857V631.254H56.9688V630.062H57.7959V631.254H60.9004V631.942H57.8066V631.953ZM69.7146 630.062V633.951H71.2614V634.66H69.7146V639.612H68.8767V630.062H69.7146ZM67.2439 631.093C67.2439 633.8 65.9763 636.26 62.8611 637.796L62.3884 637.13C64.8591 635.9 66.2019 634.063 66.3952 631.802H62.8288V631.093H67.2439ZM76.3803 631.716V632.404H71.5893V631.716H73.5766V630.352H74.4145V631.716H76.3803ZM73.9848 633.048C75.1879 633.048 76.0473 633.951 76.058 635.218C76.0473 636.497 75.1879 637.41 73.9848 637.41C72.7924 637.41 71.933 636.497 71.933 635.218C71.933 633.951 72.7924 633.048 73.9848 633.048ZM73.9848 633.757C73.2329 633.768 72.685 634.38 72.685 635.218C72.685 636.067 73.2329 636.679 73.9848 636.668C74.7475 636.679 75.3061 636.067 75.3061 635.218C75.3061 634.38 74.7475 633.768 73.9848 633.757ZM79.7426 630.062V639.612H78.937V634.789H77.6694V639.139H76.8745V630.298H77.6694V634.09H78.937V630.062H79.7426ZM92.1825 637.689V638.387H83.4384V637.689H87.37V635.626H84.4696V630.739H85.3182V632.468H90.2811V630.739H91.1083V635.626H88.1971V637.689H92.1825ZM85.3182 634.939H90.2811V633.156H85.3182V634.939ZM100.449 632.962V633.639H93.9068V630.417H94.7447V632.962H100.449ZM101.459 634.939V635.626H92.7145V634.939H101.459ZM100.503 638.677V639.375H93.8531V636.604H94.691V638.677H100.503ZM109.929 630.073V636.54H109.08V633.467H106.986V632.758H109.08V630.073H109.929ZM106.943 630.825C106.932 633.274 105.299 635.036 102.549 635.917L102.173 635.24C104.456 634.536 105.863 633.209 106.04 631.512H102.646V630.825H106.943ZM107.243 636.142C107.243 637.539 108.769 638.581 110.455 638.881L110.101 639.558C108.694 639.284 107.399 638.548 106.835 637.431C106.25 638.554 104.939 639.3 103.516 639.58L103.172 638.914C104.859 638.624 106.406 637.549 106.416 636.142V635.702H107.243V636.142ZM119.173 630.062V639.633H118.324V630.062H119.173ZM114.092 630.803C115.51 630.814 116.53 632.103 116.53 634.133C116.53 636.164 115.51 637.453 114.092 637.453C112.663 637.453 111.653 636.164 111.653 634.133C111.653 632.103 112.663 630.814 114.092 630.803ZM114.092 631.555C113.136 631.566 112.47 632.576 112.47 634.133C112.47 635.691 113.136 636.701 114.092 636.701C115.048 636.701 115.714 635.691 115.714 634.133C115.714 632.576 115.048 631.566 114.092 631.555ZM125.694 630.803C126.994 630.814 127.928 631.926 128.068 633.714H130.206V630.062H131.043V639.633H130.206V634.413H128.079C127.977 636.282 127.026 637.453 125.694 637.453C124.287 637.453 123.298 636.164 123.298 634.133C123.298 632.103 124.287 630.814 125.694 630.803ZM125.694 631.555C124.749 631.566 124.104 632.576 124.104 634.133C124.104 635.691 124.749 636.701 125.694 636.701C126.628 636.701 127.284 635.691 127.284 634.133C127.284 632.576 126.628 631.566 125.694 631.555ZM140.674 638.699V639.408H134.025V636.443H134.863V638.699H140.674ZM140.416 630.073V637.012H139.589V633.403H137.827V632.705H139.589V630.073H140.416ZM135.099 630.857V631.555H133.509V634.778C133.998 634.767 134.572 634.713 135.206 634.574L135.292 635.272C134.401 635.465 133.702 635.465 133.09 635.465H132.682V630.857H135.099ZM138.289 630.857V631.555H136.474V634.789C137.29 634.778 137.924 634.729 138.654 634.552L138.74 635.25C137.849 635.444 137.151 635.465 136.109 635.465H135.625V630.857H138.289ZM149.091 630.062V633.951H150.638V634.66H149.091V639.612H148.253V630.062H149.091ZM146.62 631.093C146.62 633.8 145.352 636.26 142.237 637.796L141.765 637.13C144.235 635.9 145.578 634.063 145.771 631.802H142.205V631.093H146.62ZM159.731 637.678V638.387H150.987V637.678H153.157V635.1C152.34 634.676 151.846 633.988 151.846 633.124C151.846 631.641 153.297 630.674 155.338 630.664C157.379 630.674 158.829 631.641 158.829 633.124C158.829 633.972 158.351 634.654 157.561 635.079V637.678H159.731ZM155.338 631.362C153.769 631.351 152.663 632.06 152.663 633.124C152.663 634.187 153.769 634.907 155.338 634.907C156.895 634.907 158.012 634.187 158.012 633.124C158.012 632.06 156.895 631.351 155.338 631.362ZM153.984 637.678H156.713V635.401C156.299 635.514 155.837 635.573 155.338 635.573C154.849 635.573 154.392 635.519 153.984 635.412V637.678ZM161.799 636.497C161.81 635.057 162.25 634.617 162.992 634.166C163.432 633.897 163.776 633.467 163.776 632.866C163.776 632.135 163.206 631.673 162.497 631.673C161.885 631.673 161.273 632.039 161.208 632.919H160.231C160.285 631.62 161.273 630.857 162.497 630.857C163.84 630.857 164.721 631.727 164.721 632.909C164.721 633.747 164.324 634.337 163.658 634.746C162.992 635.154 162.744 635.562 162.723 636.497V636.55H161.799V636.497ZM162.293 638.806C161.917 638.806 161.595 638.495 161.606 638.108C161.595 637.732 161.917 637.42 162.293 637.42C162.669 637.42 162.981 637.732 162.981 638.108C162.981 638.495 162.669 638.806 162.293 638.806ZM173.202 630.062V639.633H172.354V630.062H173.202ZM168.121 630.803C169.539 630.814 170.56 632.103 170.56 634.133C170.56 636.164 169.539 637.453 168.121 637.453C166.692 637.453 165.683 636.164 165.683 634.133C165.683 632.103 166.692 630.814 168.121 630.803ZM168.121 631.555C167.165 631.566 166.499 632.576 166.499 634.133C166.499 635.691 167.165 636.701 168.121 636.701C169.077 636.701 169.743 635.691 169.743 634.133C169.743 632.576 169.077 631.566 168.121 631.555ZM182.521 630.062V639.633H181.683V634.445H179.825V633.736H181.683V630.062H182.521ZM179.245 630.954V634.294H175.818V636.615C177.462 636.615 178.654 636.566 180.051 636.303L180.115 637.012C178.676 637.27 177.44 637.324 175.711 637.334H174.98V633.596H178.429V631.652H174.948V630.954H179.245ZM191.776 630.062V639.633H190.927V630.062H191.776ZM186.695 630.803C188.113 630.814 189.133 632.103 189.133 634.133C189.133 636.164 188.113 637.453 186.695 637.453C185.266 637.453 184.256 636.164 184.256 634.133C184.256 632.103 185.266 630.814 186.695 630.803ZM186.695 631.555C185.739 631.566 185.073 632.576 185.073 634.133C185.073 635.691 185.739 636.701 186.695 636.701C187.651 636.701 188.317 635.691 188.317 634.133C188.317 632.576 187.651 631.566 186.695 631.555ZM197.829 630.739V633.532H194.435V635.068C196.234 635.068 197.33 635.02 198.624 634.799L198.699 635.508C197.346 635.723 196.218 635.766 194.317 635.766H193.586V632.844H196.991V631.426H193.565V630.739H197.829ZM201.106 630.073V637.087H200.257V633.295H198.442V632.565H200.257V630.073H201.106ZM201.396 638.699V639.408H194.907V636.55H195.745V638.699H201.396ZM209.941 630.073V633.22H211.381V633.929H209.941V637.227H209.103V630.073H209.941ZM208.19 631.244V631.931H202.497V631.244H204.925V630.073H205.763V631.244H208.19ZM205.344 632.458C206.708 632.458 207.632 633.156 207.643 634.241C207.632 635.315 206.708 636.002 205.344 636.002C203.969 636.002 203.034 635.315 203.045 634.241C203.034 633.156 203.969 632.458 205.344 632.458ZM205.344 633.124C204.441 633.124 203.84 633.564 203.851 634.241C203.84 634.917 204.441 635.347 205.344 635.336C206.235 635.347 206.837 634.917 206.848 634.241C206.837 633.564 206.235 633.124 205.344 633.124ZM210.382 638.699V639.408H203.969V636.658H204.796V638.699H210.382ZM221.973 630.449V632.93H216.215V634.166H222.177V634.864H215.367V632.264H221.114V631.136H215.345V630.449H221.973ZM223.037 635.874V636.55H219.062V639.633H218.224V636.55H214.292V635.874H223.037ZM231.475 630.073V637.173H230.637V630.073H231.475ZM231.776 638.699V639.408H225.309V636.54H226.147V638.699H231.776ZM228.725 630.814V631.512H224.997V632.844H228.456V633.51H224.997V634.896C227.033 634.896 228.161 634.858 229.509 634.627L229.595 635.304C228.198 635.551 227.027 635.594 224.922 635.594H224.149V630.814H228.725ZM237.227 630.234C239.354 630.234 240.6 630.814 240.6 631.877C240.6 632.962 239.354 633.542 237.227 633.553C235.1 633.542 233.844 632.962 233.844 631.877C233.844 630.814 235.1 630.234 237.227 630.234ZM237.227 630.868C235.638 630.868 234.714 631.254 234.724 631.877C234.714 632.543 235.638 632.909 237.227 632.909C238.806 632.909 239.741 632.543 239.741 631.877C239.741 631.254 238.806 630.868 237.227 630.868ZM241.578 634.198V634.885H232.877V634.198H241.578ZM240.461 635.712V637.85H234.789V638.838H240.751V639.504H233.951V637.227H239.634V636.357H233.93V635.712H240.461ZM253.406 635.841V636.55H249.463V639.633H248.636V636.55H244.704V635.841H253.406ZM249.474 631.953C249.474 633.145 251.139 634.187 252.847 634.423L252.535 635.1C251.058 634.875 249.667 634.133 249.066 633.091C248.453 634.144 247.041 634.875 245.564 635.1L245.252 634.423C246.949 634.187 248.636 633.156 248.636 631.953V631.942H245.553V631.254H248.636V630.062H249.463V631.254H252.568V631.942H249.474V631.953ZM261.382 630.062V633.951H262.929V634.66H261.382V639.612H260.544V630.062H261.382ZM258.911 631.093C258.911 633.8 257.644 636.26 254.528 637.796L254.056 637.13C256.526 635.9 257.869 634.063 258.062 631.802H254.496V631.093H258.911ZM268.048 631.716V632.404H263.257V631.716H265.244V630.352H266.082V631.716H268.048ZM265.652 633.048C266.855 633.048 267.715 633.951 267.725 635.218C267.715 636.497 266.855 637.41 265.652 637.41C264.46 637.41 263.6 636.497 263.6 635.218C263.6 633.951 264.46 633.048 265.652 633.048ZM265.652 633.757C264.9 633.768 264.352 634.38 264.352 635.218C264.352 636.067 264.9 636.679 265.652 636.668C266.415 636.679 266.973 636.067 266.973 635.218C266.973 634.38 266.415 633.768 265.652 633.757ZM271.41 630.062V639.612H270.604V634.789H269.337V639.139H268.542V630.298H269.337V634.09H270.604V630.062H271.41ZM283.85 637.689V638.387H275.106V637.689H279.037V635.626H276.137V630.739H276.986V632.468H281.948V630.739H282.776V635.626H279.864V637.689H283.85ZM276.986 634.939H281.948V633.156H276.986V634.939ZM292.116 632.962V633.639H285.574V630.417H286.412V632.962H292.116ZM293.126 634.939V635.626H284.382V634.939H293.126ZM292.17 638.677V639.375H285.52V636.604H286.358V638.677H292.17ZM301.596 630.073V636.54H300.748V633.467H298.653V632.758H300.748V630.073H301.596ZM298.61 630.825C298.599 633.274 296.966 635.036 294.216 635.917L293.84 635.24C296.123 634.536 297.53 633.209 297.708 631.512H294.313V630.825H298.61ZM298.911 636.142C298.911 637.539 300.436 638.581 302.123 638.881L301.768 639.558C300.361 639.284 299.066 638.548 298.503 637.431C297.917 638.554 296.607 639.3 295.183 639.58L294.839 638.914C296.526 638.624 298.073 637.549 298.084 636.142V635.702H298.911V636.142ZM310.84 630.062V639.633H309.992V630.062H310.84ZM305.759 630.803C307.177 630.814 308.198 632.103 308.198 634.133C308.198 636.164 307.177 637.453 305.759 637.453C304.33 637.453 303.321 636.164 303.321 634.133C303.321 632.103 304.33 630.814 305.759 630.803ZM305.759 631.555C304.803 631.566 304.137 632.576 304.137 634.133C304.137 635.691 304.803 636.701 305.759 636.701C306.715 636.701 307.381 635.691 307.381 634.133C307.381 632.576 306.715 631.566 305.759 631.555ZM313.263 638.806C312.887 638.806 312.564 638.495 312.575 638.108C312.564 637.732 312.887 637.42 313.263 637.42C313.639 637.42 313.95 637.732 313.95 638.108C313.95 638.495 313.639 638.806 313.263 638.806ZM316.056 638.806C315.68 638.806 315.357 638.495 315.368 638.108C315.357 637.732 315.68 637.42 316.056 637.42C316.432 637.42 316.743 637.732 316.743 638.108C316.743 638.495 316.432 638.806 316.056 638.806ZM318.849 638.806C318.473 638.806 318.15 638.495 318.161 638.108C318.15 637.732 318.473 637.42 318.849 637.42C319.225 637.42 319.536 637.732 319.536 638.108C319.536 638.495 319.225 638.806 318.849 638.806Z" fill="white"/>
<rect x="47.5117" y="222.962" width="308.656" height="45.3454" rx="22.6727" fill="#434343"/>
<rect x="51.1895" y="332.296" width="67.6074" height="34.2173" rx="17.1086" fill="#B9C292"/>
<path d="M168.88 253.507C167.813 253.507 166.82 253.334 165.9 252.987C164.993 252.627 164.2 252.127 163.52 251.487C162.853 250.834 162.333 250.067 161.96 249.187C161.586 248.307 161.4 247.347 161.4 246.307C161.4 245.267 161.586 244.307 161.96 243.427C162.333 242.547 162.86 241.787 163.54 241.147C164.22 240.494 165.013 239.994 165.92 239.647C166.826 239.287 167.82 239.107 168.9 239.107C170.046 239.107 171.093 239.307 172.04 239.707C172.986 240.094 173.786 240.674 174.44 241.447L172.76 243.027C172.253 242.48 171.686 242.074 171.06 241.807C170.433 241.527 169.753 241.387 169.02 241.387C168.286 241.387 167.613 241.507 167 241.747C166.4 241.987 165.873 242.327 165.42 242.767C164.98 243.207 164.633 243.727 164.38 244.327C164.14 244.927 164.02 245.587 164.02 246.307C164.02 247.027 164.14 247.687 164.38 248.287C164.633 248.887 164.98 249.407 165.42 249.847C165.873 250.287 166.4 250.627 167 250.867C167.613 251.107 168.286 251.227 169.02 251.227C169.753 251.227 170.433 251.094 171.06 250.827C171.686 250.547 172.253 250.127 172.76 249.567L174.44 251.167C173.786 251.927 172.986 252.507 172.04 252.907C171.093 253.307 170.04 253.507 168.88 253.507ZM176.115 253.307V238.467H178.615V245.507L178.075 244.627C178.448 243.947 178.988 243.427 179.695 243.067C180.415 242.694 181.242 242.507 182.175 242.507C183.028 242.507 183.788 242.674 184.455 243.007C185.135 243.34 185.668 243.854 186.055 244.547C186.442 245.227 186.635 246.107 186.635 247.187V253.307H184.135V247.507C184.135 246.56 183.908 245.854 183.455 245.387C183.015 244.92 182.395 244.687 181.595 244.687C181.008 244.687 180.488 244.807 180.035 245.047C179.582 245.287 179.228 245.647 178.975 246.127C178.735 246.594 178.615 247.187 178.615 247.907V253.307H176.115ZM194.446 253.447C193.259 253.447 192.219 253.214 191.326 252.747C190.446 252.267 189.759 251.614 189.266 250.787C188.786 249.96 188.546 249.02 188.546 247.967C188.546 246.9 188.779 245.96 189.246 245.147C189.726 244.32 190.379 243.674 191.206 243.207C192.046 242.74 192.999 242.507 194.066 242.507C195.106 242.507 196.033 242.734 196.846 243.187C197.659 243.64 198.299 244.28 198.766 245.107C199.233 245.934 199.466 246.907 199.466 248.027C199.466 248.134 199.459 248.254 199.446 248.387C199.446 248.52 199.439 248.647 199.426 248.767H190.526V247.107H198.106L197.126 247.627C197.139 247.014 197.013 246.474 196.746 246.007C196.479 245.54 196.113 245.174 195.646 244.907C195.193 244.64 194.666 244.507 194.066 244.507C193.453 244.507 192.913 244.64 192.446 244.907C191.993 245.174 191.633 245.547 191.366 246.027C191.113 246.494 190.986 247.047 190.986 247.687V248.087C190.986 248.727 191.133 249.294 191.426 249.787C191.719 250.28 192.133 250.66 192.666 250.927C193.199 251.194 193.813 251.327 194.506 251.327C195.106 251.327 195.646 251.234 196.126 251.047C196.606 250.86 197.033 250.567 197.406 250.167L198.746 251.707C198.266 252.267 197.659 252.7 196.926 253.007C196.206 253.3 195.379 253.447 194.446 253.447ZM206.367 253.447C205.247 253.447 204.247 253.214 203.367 252.747C202.501 252.267 201.821 251.614 201.327 250.787C200.834 249.96 200.587 249.02 200.587 247.967C200.587 246.9 200.834 245.96 201.327 245.147C201.821 244.32 202.501 243.674 203.367 243.207C204.247 242.74 205.247 242.507 206.367 242.507C207.407 242.507 208.321 242.72 209.107 243.147C209.907 243.56 210.514 244.174 210.927 244.987L209.007 246.107C208.687 245.6 208.294 245.227 207.827 244.987C207.374 244.747 206.881 244.627 206.347 244.627C205.734 244.627 205.181 244.76 204.687 245.027C204.194 245.294 203.807 245.68 203.527 246.187C203.247 246.68 203.107 247.274 203.107 247.967C203.107 248.66 203.247 249.26 203.527 249.767C203.807 250.26 204.194 250.64 204.687 250.907C205.181 251.174 205.734 251.307 206.347 251.307C206.881 251.307 207.374 251.187 207.827 250.947C208.294 250.707 208.687 250.334 209.007 249.827L210.927 250.947C210.514 251.747 209.907 252.367 209.107 252.807C208.321 253.234 207.407 253.447 206.367 253.447ZM214.631 250.927L214.691 247.787L220.271 242.627H223.271L218.531 247.387L217.211 248.487L214.631 250.927ZM212.591 253.307V238.467H215.091V253.307H212.591ZM220.651 253.307L216.751 248.487L218.331 246.487L223.691 253.307H220.651Z" fill="white"/>
<path d="M66.2596 355.404V344.904H67.8646L74.4496 352.989H73.6546V344.904H75.5896V355.404H73.9846L67.3996 347.319H68.1946V355.404H66.2596ZM81.6882 355.509C80.7982 355.509 80.0182 355.334 79.3482 354.984C78.6882 354.624 78.1732 354.134 77.8032 353.514C77.4432 352.894 77.2632 352.189 77.2632 351.399C77.2632 350.599 77.4382 349.894 77.7882 349.284C78.1482 348.664 78.6382 348.179 79.2582 347.829C79.8882 347.479 80.6032 347.304 81.4032 347.304C82.1832 347.304 82.8782 347.474 83.4882 347.814C84.0982 348.154 84.5782 348.634 84.9282 349.254C85.2782 349.874 85.4532 350.604 85.4532 351.444C85.4532 351.524 85.4482 351.614 85.4382 351.714C85.4382 351.814 85.4332 351.909 85.4232 351.999H78.7482V350.754H84.4332L83.6982 351.144C83.7082 350.684 83.6132 350.279 83.4132 349.929C83.2132 349.579 82.9382 349.304 82.5882 349.104C82.2482 348.904 81.8532 348.804 81.4032 348.804C80.9432 348.804 80.5382 348.904 80.1882 349.104C79.8482 349.304 79.5782 349.584 79.3782 349.944C79.1882 350.294 79.0932 350.709 79.0932 351.189V351.489C79.0932 351.969 79.2032 352.394 79.4232 352.764C79.6432 353.134 79.9532 353.419 80.3532 353.619C80.7532 353.819 81.2132 353.919 81.7332 353.919C82.1832 353.919 82.5882 353.849 82.9482 353.709C83.3082 353.569 83.6282 353.349 83.9082 353.049L84.9132 354.204C84.5532 354.624 84.0982 354.949 83.5482 355.179C83.0082 355.399 82.3882 355.509 81.6882 355.509ZM88.5777 355.404L85.6377 347.394H87.4077L89.9277 354.459H89.0877L91.7277 347.394H93.3027L95.8677 354.459H95.0427L97.6377 347.394H99.3027L96.3477 355.404H94.5477L92.2077 349.149H92.7627L90.3777 355.404H88.5777ZM100.412 351.924L100.052 344.904H102.272L101.897 351.924H100.412ZM101.162 355.509C100.812 355.509 100.522 355.394 100.292 355.164C100.062 354.934 99.9469 354.659 99.9469 354.339C99.9469 354.019 100.062 353.749 100.292 353.529C100.522 353.299 100.812 353.184 101.162 353.184C101.512 353.184 101.797 353.299 102.017 353.529C102.237 353.749 102.347 354.019 102.347 354.339C102.347 354.659 102.237 354.934 102.017 355.164C101.797 355.394 101.512 355.509 101.162 355.509Z" fill="white"/>
<g filter="url(#filter0_dd_487_2499)">
<rect x="89" y="779" width="224" height="60" rx="30" fill="white" shape-rendering="crispEdges"/>
<g clip-path="url(#clip1_487_2499)">
<path d="M126.268 806.738C126.268 805.319 127.02 804.005 128.245 803.287L135.245 799.185C136.494 798.453 138.041 798.453 139.29 799.185L146.29 803.287C147.515 804.005 148.268 805.319 148.268 806.738V816C148.268 818.209 146.477 820 144.268 820H130.268C128.058 820 126.268 818.209 126.268 816V806.738Z" fill="#D9D9D9"/>
<path d="M132.859 815.704H141.801" stroke="white" stroke-width="2" stroke-linecap="round"/>
</g>
<g clip-path="url(#clip2_487_2499)">
<rect x="196.377" y="798" width="15.957" height="17.583" rx="2" fill="#515151"/>
<rect x="189.83" y="803.363" width="17.4277" height="17.583" rx="2" fill="#515151" stroke="white" stroke-width="2"/>
</g>
<g clip-path="url(#clip3_487_2499)">
<rect x="253.455" y="809.876" width="23.0898" height="10.4575" rx="4" fill="#D9D9D9"/>
<rect x="260.166" y="797.666" width="9.66797" height="9.66797" rx="4.83398" fill="#D9D9D9"/>
</g>
</g>
<g filter="url(#filter1_dd_487_2499)">
<rect x="324" y="781" width="58" height="58" rx="29" fill="#484848" shape-rendering="crispEdges"/>
<path d="M343.5 810H362.5" stroke="#F0F0F0" stroke-width="3" stroke-linecap="round"/>
<path d="M353 819.5V800.5" stroke="#F0F0F0" stroke-width="3" stroke-linecap="round"/>
</g>
</g>
<defs>
<filter id="filter0_dd_487_2499" x="81" y="771" width="240" height="78" filterUnits="userSpaceOnUse" color-interpolation-filters="sRGB">
<feFlood flood-opacity="0" result="BackgroundImageFix"/>
<feColorMatrix in="SourceAlpha" type="matrix" values="0 0 0 0 0 0 0 0 0 0 0 0 0 0 0 0 0 0 127 0" result="hardAlpha"/>
<feOffset/>
<feGaussianBlur stdDeviation="4"/>
<feComposite in2="hardAlpha" operator="out"/>
<feColorMatrix type="matrix" values="0 0 0 0 0 0 0 0 0 0 0 0 0 0 0 0 0 0 0.02 0"/>
<feBlend mode="normal" in2="BackgroundImageFix" result="effect1_dropShadow_487_2499"/>
<feColorMatrix in="SourceAlpha" type="matrix" values="0 0 0 0 0 0 0 0 0 0 0 0 0 0 0 0 0 0 127 0" result="hardAlpha"/>
<feOffset dy="2"/>
<feGaussianBlur stdDeviation="4"/>
<feComposite in2="hardAlpha" operator="out"/>
<feColorMatrix type="matrix" values="0 0 0 0 0 0 0 0 0 0 0 0 0 0 0 0 0 0 0.04 0"/>
<feBlend mode="normal" in2="effect1_dropShadow_487_2499" result="effect2_dropShadow_487_2499"/>
<feBlend mode="normal" in="SourceGraphic" in2="effect2_dropShadow_487_2499" result="shape"/>
</filter>
<filter id="filter1_dd_487_2499" x="316" y="773" width="74" height="76" filterUnits="userSpaceOnUse" color-interpolation-filters="sRGB">
<feFlood flood-opacity="0" result="BackgroundImageFix"/>
<feColorMatrix in="SourceAlpha" type="matrix" values="0 0 0 0 0 0 0 0 0 0 0 0 0 0 0 0 0 0 127 0" result="hardAlpha"/>
<feOffset/>
<feGaussianBlur stdDeviation="4"/>
<feComposite in2="hardAlpha" operator="out"/>
<feColorMatrix type="matrix" values="0 0 0 0 0 0 0 0 0 0 0 0 0 0 0 0 0 0 0.02 0"/>
<feBlend mode="normal" in2="BackgroundImageFix" result="effect1_dropShadow_487_2499"/>
<feColorMatrix in="SourceAlpha" type="matrix" values="0 0 0 0 0 0 0 0 0 0 0 0 0 0 0 0 0 0 127 0" result="hardAlpha"/>
<feOffset dy="2"/>
<feGaussianBlur stdDeviation="4"/>
<feComposite in2="hardAlpha" operator="out"/>
<feColorMatrix type="matrix" values="0 0 0 0 0 0 0 0 0 0 0 0 0 0 0 0 0 0 0.04 0"/>
<feBlend mode="normal" in2="effect1_dropShadow_487_2499" result="effect2_dropShadow_487_2499"/>
<feBlend mode="normal" in="SourceGraphic" in2="effect2_dropShadow_487_2499" result="shape"/>
</filter>
<linearGradient id="paint0_linear_487_2499" x1="180.372" y1="0" x2="180.372" y2="407.668" gradientUnits="userSpaceOnUse">
<stop stop-opacity="0"/>
<stop offset="1"/>
</linearGradient>
<linearGradient id="paint1_linear_487_2499" x1="208.731" y1="721.141" x2="208.731" y2="888.455" gradientUnits="userSpaceOnUse">
<stop stop-color="#F3F5F7" stop-opacity="0"/>
<stop offset="1" stop-color="#EAEAEA"/>
</linearGradient>
<clipPath id="clip0_487_2499">
<rect width="402" height="874" fill="white"/>
</clipPath>
<clipPath id="clip1_487_2499">
<rect width="24" height="24" fill="white" transform="translate(125 797)"/>
</clipPath>
<clipPath id="clip2_487_2499">
<rect width="24" height="24" fill="white" transform="translate(189 797)"/>
</clipPath>
<clipPath id="clip3_487_2499">
<rect width="24" height="24" fill="white" transform="translate(253 797)"/>
</clipPath>
</defs>
</svg>
